<svg id="Layer_1" data-name="Layer 1" xmlns="http://www.w3.org/2000/svg" viewBox="0 0 54 44.511">
  <defs>
    <style>
      .cls-1 {
        fill: #1a1718;
      }
    </style>
  </defs>
  <title>100%UV</title>
  <g>
    <path class="cls-1" d="M18.484,15.064H54.837a8.834,8.834,0,0,1,8.82,8.835V50.761a8.829,8.829,0,0,1-8.82,8.814H18.484a8.834,8.834,0,0,1-8.827-8.814V23.9A8.839,8.839,0,0,1,18.484,15.064ZM54.837,56.691a5.933,5.933,0,0,0,5.93-5.929V23.9a5.942,5.942,0,0,0-5.93-5.939H18.484A5.946,5.946,0,0,0,12.547,23.9V50.761a5.938,5.938,0,0,0,5.937,5.929Z" transform="translate(-9.657 -15.064)"/>
    <g>
      <path class="cls-1" d="M37.444,28.645c.089.1.311.139.681.139s.607-.07.682-.189a3.006,3.006,0,0,0,.112-1.124,3.036,3.036,0,0,0-.107-1.1c-.07-.11-.321-.159-.753-.159a.92.92,0,0,0-.614.14,1.08,1.08,0,0,0-.127.657l-.008.487v.457A1.114,1.114,0,0,0,37.444,28.645Z" transform="translate(-9.657 -15.064)"/>
      <path class="cls-1" d="M40.846,27.183a.32.32,0,0,0,.363-.368l.01-.279V26.3a.4.4,0,0,0-.072-.288.647.647,0,0,0-.356-.06c-.2,0-.323.02-.368.069a1.014,1.014,0,0,0-.057.438,1.742,1.742,0,0,0,.057.646C40.456,27.153,40.6,27.183,40.846,27.183Z" transform="translate(-9.657 -15.064)"/>
      <path class="cls-1" d="M33.94,28.645c.092.1.321.139.679.139.383,0,.607-.07.686-.189a3.03,3.03,0,0,0,.11-1.124,3.089,3.089,0,0,0-.1-1.1c-.074-.11-.326-.159-.756-.159a.934.934,0,0,0-.617.14,1.086,1.086,0,0,0-.134.657v.945A1.114,1.114,0,0,0,33.94,28.645Z" transform="translate(-9.657 -15.064)"/>
      <path class="cls-1" d="M43.018,27.879a.842.842,0,0,0-.065.438,2.287,2.287,0,0,0,.052.657c.037.05.176.079.432.079s.363-.119.363-.378l.005-.268v-.249c0-.159-.025-.259-.072-.3a.757.757,0,0,0-.353-.06C43.175,27.8,43.057,27.829,43.018,27.879Z" transform="translate(-9.657 -15.064)"/>
      <path class="cls-1" d="M47.776,32.734c.072-.05.1-.159.1-.329,0-.238-.159-.358-.482-.358H46.42V32.8h.835A1.164,1.164,0,0,0,47.776,32.734Z" transform="translate(-9.657 -15.064)"/>
      <path class="cls-1" d="M47.975,33.619c0-.189-.035-.3-.112-.338a1.351,1.351,0,0,0-.569-.07H46.42v.816h.99a.77.77,0,0,0,.453-.09C47.94,33.888,47.975,33.779,47.975,33.619Z" transform="translate(-9.657 -15.064)"/>
      <polygon class="cls-1" points="23.942 16.953 23.328 18.465 24.559 18.465 23.942 16.953"/>
      <path class="cls-1" d="M43.177,39.748a11.251,11.251,0,0,0-12.849,0,6.13,6.13,0,0,0-2.659,4.865,5.662,5.662,0,0,0,1.3,3.562c.261.1.527.2.791.3a4.319,4.319,0,0,1-.03-.487c0-2.935,3.139-5.323,7.019-5.323s7.026,2.388,7.026,5.323a3.109,3.109,0,0,1-.037.487c.268-.1.53-.189.789-.3C46.634,45.528,46.181,42.036,43.177,39.748Z" transform="translate(-9.657 -15.064)"/>
      <path class="cls-1" d="M16.529,42.583v8.5a1.514,1.514,0,0,0,1.515,1.512H29.4A22.889,22.889,0,0,1,21.677,48.9,16.136,16.136,0,0,1,16.529,42.583Z" transform="translate(-9.657 -15.064)"/>
      <path class="cls-1" d="M51.822,48.9A22.891,22.891,0,0,1,44.1,52.592H55.277a1.513,1.513,0,0,0,1.51-1.512V42.961A16.3,16.3,0,0,1,51.822,48.9Z" transform="translate(-9.657 -15.064)"/>
      <path class="cls-1" d="M21.677,26.048l-1.472-1.115h6.616v5.025l-1.473-1.115c-6.287,4.766-6.287,12.506,0,17.271A16.06,16.06,0,0,0,27.3,47.379c-1.39-2.746-.624-5.979,2.286-8.188a12.55,12.55,0,0,1,14.329,0c2.905,2.209,3.669,5.442,2.273,8.188a16.271,16.271,0,0,0,1.963-1.264c6.283-4.765,6.283-12.505,0-17.271l-1.473,1.115V24.934H53.3l-1.475,1.124a16.281,16.281,0,0,1,4.964,5.93V23.571a1.513,1.513,0,0,0-1.51-1.512H18.044a1.514,1.514,0,0,0-1.515,1.512v8.8A16.164,16.164,0,0,1,21.677,26.048ZM41.772,33.52a.929.929,0,0,1-.291.806,2.355,2.355,0,0,1-1.184.2,2.735,2.735,0,0,1-1.236-.189.893.893,0,0,1-.286-.785V31.59h.684v1.96c0,.219.042.358.144.408a1.5,1.5,0,0,0,.669.09,1.577,1.577,0,0,0,.679-.09c.095-.06.134-.2.134-.428V31.59h.687Zm3.962-1.93h1.776a1.532,1.532,0,0,1,.844.159.694.694,0,0,1,.229.607.57.57,0,0,1-.527.627V33a.619.619,0,0,1,.619.687.729.729,0,0,1-.241.627,1.438,1.438,0,0,1-.828.169h-1.87Zm-.3,0-1.164,2.895H43.221L42.077,31.59h.7l.679,1.642c.062.159.159.418.284.8h.022l.065-.209c.087-.239.159-.438.211-.587l.671-1.642Zm-1.259-3.2a1.563,1.563,0,0,1-.134.816c-.087.12-.3.169-.635.169a.952.952,0,0,1-.676-.169,1.339,1.339,0,0,1-.147-.776,1.376,1.376,0,0,1,.14-.776.915.915,0,0,1,.664-.169c.351,0,.567.05.655.149A1.4,1.4,0,0,1,44.179,28.386Zm-.734-2.756L41.1,29.361h-.356l2.343-3.731Zm-3.308.169a.911.911,0,0,1,.659-.169c.361,0,.575.049.661.149a1.287,1.287,0,0,1,.132.756,1.452,1.452,0,0,1-.132.8c-.087.12-.3.179-.634.179a.94.94,0,0,1-.676-.179A1.289,1.289,0,0,1,40,26.566,1.326,1.326,0,0,1,40.138,25.8Zm-3.286.1c.157-.189.58-.288,1.266-.288s1.1.1,1.259.288a3.11,3.11,0,0,1,.243,1.592,3.06,3.06,0,0,1-.243,1.592c-.154.2-.577.308-1.259.308s-1.109-.109-1.266-.308a3.107,3.107,0,0,1-.238-1.592A3.158,3.158,0,0,1,36.852,25.9Zm-.42,7.233H37.64V33.6H36.431ZM33.345,25.9c.161-.189.584-.288,1.271-.288s1.1.1,1.261.288a3.083,3.083,0,0,1,.241,1.592,3.034,3.034,0,0,1-.241,1.592c-.156.2-.579.308-1.261.308s-1.109-.109-1.271-.308a3.178,3.178,0,0,1-.234-1.592A3.23,3.23,0,0,1,33.345,25.9ZM34.1,31.59l1.219,2.895H34.6l-.229-.547h-1.55l-.221.547h-.731l1.2-2.895Zm-3.171-5.959h.895v3.731h-.709V26.247l-.968.965-.42-.457ZM29.238,31.59l.679,1.642c.062.159.157.418.284.8h.022l.062-.209c.09-.239.159-.438.219-.587l.671-1.642H31.9l-1.159,2.895H29.686L28.534,31.59Zm-1.691,1.94V31.59h.682v1.93a.943.943,0,0,1-.286.806,2.356,2.356,0,0,1-1.181.2,2.676,2.676,0,0,1-1.234-.189.875.875,0,0,1-.3-.785V31.59h.684v1.96c0,.219.05.358.144.408a1.535,1.535,0,0,0,.671.09,1.554,1.554,0,0,0,.679-.09C27.5,33.9,27.547,33.759,27.547,33.53Z" transform="translate(-9.657 -15.064)"/>
    </g>
  </g>
</svg>
