<svg id="Layer_1" data-name="Layer 1" xmlns="http://www.w3.org/2000/svg" viewBox="0 0 236.994 192.498">
  <defs>
    <style>
      .cls-1 {
        fill: #1a1718;
      }
    </style>
  </defs>
  <title>Crush_v_k</title>
  <g>
    <g>
      <path class="cls-1" d="M52.244,179.969l-.678.142-.3-.626a12.937,12.937,0,0,1-1.279-5.1c-.258-5.384,2.789-11.26,8.95-11.555,3.305-.138,5.5,1.7,5.646,4.729.227,4.7-4.426,10.789-12.336,12.407M34.218,163.135a36.188,36.188,0,0,1,7.3-22.975c7.605-8.9,14.439-10.64,18.841-10.53l1.031.024-.01.044c3.655.42,5.918,3.018,6.113,7.122.227,4.832-2.469,10.622-7.216,15.49-3.993,4.094-11.25,9.395-23.156,11.411h-.008c-.611.1-1.244.19-1.88.272l-.98.129Zm31.863.7a10.049,10.049,0,0,0-6.582-1.593,12.9,12.9,0,0,0-12.852,13.623,12.885,12.885,0,0,0,.567,3.234l.414,1.329-1.381-.177c-.258-.033-.518-.071-.766-.113-.2-.037-.43-.081-.695-.139a11.587,11.587,0,0,1-7.317-5,23.69,23.69,0,0,1-3.022-8.773c-.019-.144-.027-.258-.037-.372l-.114-1.1.886-.1c.609-.065,1.173-.131,1.631-.2,23.862-3.323,35.963-17.854,35.52-27.061-.243-5.077-4.118-8.111-10.64-8.322A35.247,35.247,0,0,0,49.3,130.987a31.566,31.566,0,0,0-10.474,6.527,33.679,33.679,0,0,0-2.749,2.728l-.359.414a26.66,26.66,0,0,0-2.85,3.83c-.029.05-.057.1-.08.143l-.052.094a30.372,30.372,0,0,0-4.556,18.84l.1.989-.994-.008c-11.789-.076-19.319-4.513-19.659-11.573-.17-3.606,1.99-6.869,5.78-8.728a26.956,26.956,0,0,1,9.727-2.891,9.306,9.306,0,0,0-4.788-.989,14.57,14.57,0,0,0-2.171.238c-9.3,1.716-13.229,7.393-12.994,12.253.407,8.582,12.953,12.373,24.442,12.27l.742-.009.141.734A23.387,23.387,0,0,0,31.679,174c2.069,3.274,7.466,7.1,15.875,7.1h.52l.256.449a9.983,9.983,0,0,0,6.324,4.829,10.468,10.468,0,0,0,5.472.134,12.887,12.887,0,0,1-7.347-4.565l-.9-1.145,1.429-.282c1.015-.2,2.063-.457,3.111-.768,8.44-2.379,12.08-7.712,11.885-11.659a5.482,5.482,0,0,0-2.223-4.257" transform="translate(-3.171 -13.038)"/>
      <path class="cls-1" d="M69.673,156.212c-.293-.443-.535-.7-.73-.76a.411.411,0,0,0-.5.169,1.7,1.7,0,0,0-.261.794c-.04.351-.077.72-.1,1.106a4.053,4.053,0,0,0,.177,1.329,12.114,12.114,0,0,0,.543,1.479,6.743,6.743,0,0,0,1.487,2.366,8.2,8.2,0,0,0,.407-3.79,5.705,5.705,0,0,0-1.027-2.693m6.167,24.872a2.782,2.782,0,0,1-1.971-.959,4.528,4.528,0,0,1-.934-2.226,11.747,11.747,0,0,1,0-3.254,27.6,27.6,0,0,1,.846-4.036A42.8,42.8,0,0,1,75.1,166.53a24.58,24.58,0,0,1,1-2.285,6.1,6.1,0,0,1-1.1.14c-.349.009-.681.022-1,.029A9.566,9.566,0,0,1,70.594,164a6.325,6.325,0,0,1-3.891-3.709,8.734,8.734,0,0,1-.714-2.835,3.852,3.852,0,0,1,.453-2.294,1.722,1.722,0,0,1,1.235-.879,2.417,2.417,0,0,1,1.345.351,3.885,3.885,0,0,1,1.05.942,6.546,6.546,0,0,1,1.157,3.421,8.971,8.971,0,0,1-.515,3.789,4.326,4.326,0,0,0,2.68,1.127,12.781,12.781,0,0,0,3.007-.251,2.325,2.325,0,0,1,1.042-1.055,3.3,3.3,0,0,1,1.3-.33,5.124,5.124,0,0,1,1.206.1c.372.078.612.128.718.163q-.586,1.377-1.055,2.5c-.306.739-.649,1.6-1.018,2.572s-.733,1.989-1.087,3.049a25.834,25.834,0,0,0-1.551,6.7c-.042,1.5.259,2.39.894,2.652.53.192,1.271-.069,2.232-.781a16.741,16.741,0,0,0,3.2-3.428,53.576,53.576,0,0,0,3.69-5.379q1.575-2.646,3.112-5.368a8.833,8.833,0,0,1,.543-1.012c.206-.322.383-.641.548-.963.066-.14.185-.161.365-.061.145.063.163.188.063.364l-1.092,1.92q-1.488,2.722-2.981,5.339a47.2,47.2,0,0,1-3.661,5.408c-.475.606-.969,1.228-1.491,1.853a13.977,13.977,0,0,1-1.653,1.675,8.135,8.135,0,0,1-1.855,1.187,3.732,3.732,0,0,1-2.031.321" transform="translate(-3.171 -13.038)"/>
      <path class="cls-1" d="M90.36,177.544a3.229,3.229,0,0,1-2.263-1.055,4.315,4.315,0,0,1-.907-2.229,9.517,9.517,0,0,1,.116-2.914,27.909,27.909,0,0,1,.772-3.118,30.077,30.077,0,0,1,1.042-2.861c.372-.884.691-1.6.955-2.129a2.307,2.307,0,0,1,1.042-1.052,3.226,3.226,0,0,1,1.3-.328,5.057,5.057,0,0,1,1.207.1c.372.073.607.126.715.158-.134.288-.351.815-.659,1.594s-.657,1.679-1.047,2.705-.763,2.1-1.134,3.208a24.9,24.9,0,0,0-.817,3.118,8.483,8.483,0,0,0-.159,2.471,1.312,1.312,0,0,0,.849,1.258,1.705,1.705,0,0,0,1.511-.283,7.608,7.608,0,0,0,1.659-1.492,20.386,20.386,0,0,0,1.662-2.278q.822-1.31,1.566-2.725c.5-.941.962-1.864,1.411-2.769s.828-1.694,1.155-2.366l.789-1.654a2.327,2.327,0,0,1,1.044-1.052,3.156,3.156,0,0,1,1.3-.327,4.939,4.939,0,0,1,1.206.1c.372.074.609.129.715.158-.393.92-.741,1.754-1.053,2.5s-.646,1.6-1.018,2.575-.736,1.986-1.087,3.049a25.779,25.779,0,0,0-1.551,6.707q-.059,2.252.894,2.643.8.292,2.232-.776a17.069,17.069,0,0,0,3.2-3.426,53.681,53.681,0,0,0,3.687-5.386q1.567-2.639,3.109-5.362a10.017,10.017,0,0,1,.546-1.016c.2-.319.382-.639.549-.958.063-.142.184-.166.364-.066.14.068.161.187.063.366l-1.091,1.923q-1.492,2.718-2.986,5.331a45.646,45.646,0,0,1-3.661,5.41q-.7.909-1.488,1.856a13.506,13.506,0,0,1-1.651,1.673A8.121,8.121,0,0,1,102.6,180a3.768,3.768,0,0,1-2.034.322,2.779,2.779,0,0,1-1.968-.966,4.447,4.447,0,0,1-.934-2.221,11.317,11.317,0,0,1,.005-3.252,26.712,26.712,0,0,1,.844-4.035l.285-1.06q-.846,1.654-1.788,3.281A20.147,20.147,0,0,1,95,174.962a9.868,9.868,0,0,1-2.218,2.009,3.488,3.488,0,0,1-2.418.572" transform="translate(-3.171 -13.038)"/>
      <path class="cls-1" d="M120.961,152.907a16.7,16.7,0,0,0,.8-2.072,2.918,2.918,0,0,0,.152-1.158.607.607,0,0,0-.495-.665.926.926,0,0,0-.882.34,4.209,4.209,0,0,0-.973,1.474,10.576,10.576,0,0,0-.725,2.774,6.336,6.336,0,0,0-.04,1.338,9.235,9.235,0,0,0,.227,1.488c.8-1.318,1.446-2.49,1.939-3.518m-11.22,27.188a3.994,3.994,0,0,0,1.733,1.7,4.322,4.322,0,0,0,4.338-.266,5,5,0,0,0,1.677-1.833,13.767,13.767,0,0,0,1.546-5,21.792,21.792,0,0,0-.079-5.106q-2.88,1.662-5.37,3.413a12.508,12.508,0,0,0-3.635,3.676,3.38,3.38,0,0,0-.211,3.416m21.369-19.114c.145.134.166.258.063.366a15.7,15.7,0,0,1-3.8,3.234q-2.389,1.519-5.169,3.123c.081.416.158.844.22,1.278s.138.861.222,1.277a16.193,16.193,0,0,1-1.546,9.277,6.627,6.627,0,0,1-2.44,2.516,7.186,7.186,0,0,1-3.478.968l-.158.005a7.415,7.415,0,0,1-3.4-.681,5.035,5.035,0,0,1-2.286-1.972,4.265,4.265,0,0,1-.5-1.665,3.682,3.682,0,0,1,.691-2.273,13.019,13.019,0,0,1,3.787-3.869q2.587-1.836,5.573-3.55-.316-1.934-.8-3.779t-.947-3.563l-.351-1.088-1.553,2.145c-.137.142-.262.145-.372.014-.177-.1-.193-.225-.06-.367.337-.4.654-.8.957-1.21s.588-.812.857-1.208c-.354-1.211-.636-2.348-.842-3.405a8.1,8.1,0,0,1-.086-2.909,8.518,8.518,0,0,1,1.078-3.176,5.09,5.09,0,0,1,2.01-2,5.373,5.373,0,0,1,1.612-.337,2,2,0,0,1,1.538.554q1.127.859-.494,4.474a18.377,18.377,0,0,1-.987,1.838q-.6.99-1.3,2.163c.159.663.348,1.338.559,2.031s.454,1.435.723,2.232c.311.9.608,1.832.9,2.8s.538,1.957.743,2.965q2.73-1.552,5.043-3.042a15.157,15.157,0,0,0,3.621-3.1c.14-.142.262-.166.368-.066" transform="translate(-3.171 -13.038)"/>
      <path class="cls-1" d="M140.484,148.581a34.721,34.721,0,0,0,1.935-5.984,9.374,9.374,0,0,0,.162-4.2.993.993,0,0,0-.119-.417,29.9,29.9,0,0,0-3.25,6.813q-1.8,4.824-3.869,12.281a16.056,16.056,0,0,0,2.566-3.381,37.483,37.483,0,0,0,2.575-5.112m3.823,20.434a26.188,26.188,0,0,0-1.4,6.391c-.043,1.43.254,2.282.892,2.542.528.191,1.272-.065,2.232-.78a16.878,16.878,0,0,0,3.2-3.426,52.839,52.839,0,0,0,3.687-5.382q1.57-2.644,3.112-5.365a9.409,9.409,0,0,1,.55-1.014c.2-.319.38-.64.543-.96.068-.142.187-.164.369-.066.138.069.158.19.061.369l-1.094,1.923q-1.489,2.717-2.981,5.331a46.931,46.931,0,0,1-3.661,5.409q-.71.91-1.491,1.855a13.565,13.565,0,0,1-1.653,1.675,8.222,8.222,0,0,1-1.852,1.187,3.735,3.735,0,0,1-2.031.322,3.3,3.3,0,0,1-2.981-3.081,15.466,15.466,0,0,1,.73-6.971c.252-.879.483-1.733.706-2.564a14.726,14.726,0,0,0,.429-2.266,5.81,5.81,0,0,0-.051-1.73,1.106,1.106,0,0,0-.739-.894,2,2,0,0,0-1.74.422,8.838,8.838,0,0,0-1.909,1.9,25.32,25.32,0,0,0-1.881,2.807q-.922,1.574-1.712,3.148c-.527,1.048-1.008,2.024-1.43,2.926s-.756,1.606-.986,2.1a.567.567,0,0,0-.043.263.046.046,0,0,1-.053.053,2.941,2.941,0,0,1-1.435,1.069,4.086,4.086,0,0,1-2.727-.1,11.634,11.634,0,0,1,.364-1.791c.275-1.2.649-2.759,1.113-4.678s1.014-4.095,1.636-6.526,1.281-4.879,1.973-7.348q1.234-4.335,2.358-7.754t2.157-5.8q2.691-6.326,4.695-5.916a2.351,2.351,0,0,1,1.443.954v.051c.073.071.111.118.111.152a5.589,5.589,0,0,1,.288.778,10.37,10.37,0,0,1-.153,4.408,33.064,33.064,0,0,1-1.988,6.143,35.646,35.646,0,0,1-2.87,5.62,14.672,14.672,0,0,1-2.828,3.471l-.1.052q-.62,2.172-1.123,4.336c-.344,1.446-.668,2.825-.973,4.147s-.581,2.545-.8,3.668-.437,2.077-.625,2.852c.558-1.174,1.195-2.5,1.923-3.993a35.587,35.587,0,0,1,2.387-4.191,15.331,15.331,0,0,1,2.785-3.2,4.19,4.19,0,0,1,3.163-1.092,3.346,3.346,0,0,1,2.155.954,3.916,3.916,0,0,1,.952,2.018,8.041,8.041,0,0,1,.005,2.675,18.813,18.813,0,0,1-.7,2.927" transform="translate(-3.171 -13.038)"/>
      <path class="cls-1" d="M178.053,142.873a4.339,4.339,0,0,0-.3-1.408,4.17,4.17,0,0,0-.8-1.284,3.14,3.14,0,0,0-1.231-.825,2.667,2.667,0,0,0-1.546-.084,7.484,7.484,0,0,0-2.215.959,19.973,19.973,0,0,0-2.335,1.67,21.356,21.356,0,0,0-2.109,2,22.972,22.972,0,0,0-1.617,1.967l1.423.319c1.236.316,2.427.586,3.585.811a12.655,12.655,0,0,0,3.253.24,3.648,3.648,0,0,0,3.016-1.48,4.817,4.817,0,0,0,.877-2.887m-13.178,12.149a3.067,3.067,0,0,0,.761.973,4.119,4.119,0,0,0,1.067.623,3.509,3.509,0,0,0,1.627.187,5.234,5.234,0,0,0,1.277-.224,7.558,7.558,0,0,0,1.319-.514,3.783,3.783,0,0,0,1-.686,1.062,1.062,0,0,0,.369-.8c-.048-.383-.422-.71-1.13-.988a4.407,4.407,0,0,0-2.414-.161,10.463,10.463,0,0,0-2.075.588,6.1,6.1,0,0,0-1.8,1m-.948-11.4a12.609,12.609,0,0,1,1.5-1.411,17.032,17.032,0,0,1,2.815-1.973,13.54,13.54,0,0,1,3-1.242,7.424,7.424,0,0,1,1.5-.391,12.82,12.82,0,0,1,1.411-.121,4.175,4.175,0,0,1,3.284,1.366,4.7,4.7,0,0,1,1.14,3.007,5.024,5.024,0,0,1-1.047,3.281,4.642,4.642,0,0,1-3.353,1.622,13,13,0,0,1-3.3-.237c-1.192-.224-2.421-.493-3.69-.8-.281-.063-.54-.127-.788-.192s-.511-.121-.788-.183l-.7,1.177a10.452,10.452,0,0,0-.883,2.75,8.95,8.95,0,0,0-.1,2.575,3.264,3.264,0,0,0,.228.728,18.078,18.078,0,0,1,4.271-.764,7.677,7.677,0,0,1,3.2.429,1.724,1.724,0,0,1,1.193,1.325c.02.7-.429,1.31-1.357,1.824a8.621,8.621,0,0,1-3.632,1.005,20.165,20.165,0,0,1-2.746.006,4.816,4.816,0,0,1-2.569-.944c-.645.443-1.272.907-1.867,1.392a18.686,18.686,0,0,0-1.7,1.6,21.616,21.616,0,0,0-2.318,2.924,15.171,15.171,0,0,0-1.578,3.121,10.146,10.146,0,0,0-.7,6.207,7.419,7.419,0,0,0,2.695,4.43,6.988,6.988,0,0,0,3.978,1.686,9.393,9.393,0,0,0,4.007-.654,15.3,15.3,0,0,0,3.808-2.186q1.841-1.42,3.413-2.884a39.585,39.585,0,0,0,4.557-5.042c1.207-1.63,2.141-2.957,2.805-3.994.066-.14.191-.161.364-.063.14.066.163.188.063.367q-1,1.547-2.832,3.993a44.237,44.237,0,0,1-4.627,5.148q-1.174,1.136-2.521,2.226a21.223,21.223,0,0,1-2.873,1.952,17.571,17.571,0,0,1-3.149,1.406,11.619,11.619,0,0,1-3.357.6q-4.7.149-7.338-2.184a8.709,8.709,0,0,1-2.649-4.584,10.7,10.7,0,0,1,.737-6.522,17.509,17.509,0,0,1,1.656-3.226,21.214,21.214,0,0,1,2.339-2.981,25.9,25.9,0,0,1,2.676-2.387,18.022,18.022,0,0,1,2.948-1.876,4.546,4.546,0,0,1-.742-2.072,9.376,9.376,0,0,1,.984-5.436c.17-.282.332-.577.5-.875a35.464,35.464,0,0,1,2.135-2.925" transform="translate(-3.171 -13.038)"/>
      <path class="cls-1" d="M190.578,180.34c-.175-.064-.26-.155-.245-.28s.128-.187.335-.195q4.443-.186,8.109-5.753a32.584,32.584,0,0,0,1.99-3.366q.942-1.807,1.729-3.46c.526-1.1.992-2.081,1.4-2.952s.715-1.5.907-1.891c.068-.14.184-.172.342-.092s.191.216.09.393a26.36,26.36,0,0,0-1.234,2.421c-.427.943-.887,1.925-1.377,2.956s-1.032,2.083-1.609,3.17-1.2,2.124-1.867,3.124a19.3,19.3,0,0,1-3.757,4.178,7.775,7.775,0,0,1-4.819,1.746m-10.831-2.653a3.217,3.217,0,0,1-2.259-1.058,4.285,4.285,0,0,1-.907-2.229,9.193,9.193,0,0,1,.123-2.911,26.635,26.635,0,0,1,.769-3.118c.317-1.02.666-1.978,1.037-2.867s.7-1.591.958-2.121a2.344,2.344,0,0,1,1.038-1.057,3.154,3.154,0,0,1,1.3-.325,5.058,5.058,0,0,1,1.209.093c.369.076.606.129.712.158q-.141.427-.63,1.6c-.325.775-.683,1.68-1.071,2.7s-.768,2.095-1.134,3.208a23.879,23.879,0,0,0-.824,3.117,8.926,8.926,0,0,0-.16,2.469,1.312,1.312,0,0,0,.855,1.258,1.942,1.942,0,0,0,1.714-.423,9.134,9.134,0,0,0,1.883-1.893,25.748,25.748,0,0,0,1.879-2.8q.924-1.578,1.712-3.121t1.4-2.9c.412-.9.749-1.6,1.013-2.1a.8.8,0,0,1,.2-.372l.051-.106.049-.053a2.832,2.832,0,0,1,1.748-1.079,7.446,7.446,0,0,1,1.673-.185q-.546,4.321-1.535,8.883a81.436,81.436,0,0,1-2.478,8.965,79.961,79.961,0,0,1-3.435,8.519,48.067,48.067,0,0,1-4.405,7.557,26.885,26.885,0,0,1-9.124,8.459,12.8,12.8,0,0,1-5.561,1.583,8.911,8.911,0,0,1-4.061-.815,5.489,5.489,0,0,1-3.244-3.208,6.8,6.8,0,0,1-.032-4.4,15.939,15.939,0,0,1,1.272-2.973,20.563,20.563,0,0,1,2.083-3.083,34.91,34.91,0,0,1,2.79-3.049,30.579,30.579,0,0,1,3.345-2.826,40.226,40.226,0,0,1,3.6-2.368,21.209,21.209,0,0,1,3.566-1.682,13.406,13.406,0,0,1,6.994-1.053c.206,0,.283.08.216.253.005.245-.08.32-.255.222a13.7,13.7,0,0,0-6.47.931,28.1,28.1,0,0,0-7.323,4.1,31.756,31.756,0,0,0-6.01,5.745,17.638,17.638,0,0,0-3.278,5.915q-.85,2.968.058,4.538a4.093,4.093,0,0,0,2.74,1.983,8.982,8.982,0,0,0,4.138-.148,11.617,11.617,0,0,0,4.21-1.991,30.144,30.144,0,0,0,6.805-7.08,43.951,43.951,0,0,0,4.141-7.047,77.961,77.961,0,0,0,3.089-7.619q1.323-3.842,2.262-7.542t1.677-6.865c-.562,1.166-1.19,2.479-1.9,3.936a33.6,33.6,0,0,1-2.339,4.083,15.047,15.047,0,0,1-2.759,3.152,3.919,3.919,0,0,1-3.117,1.042" transform="translate(-3.171 -13.038)"/>
      <path class="cls-1" d="M209.355,161.885c-.458,1-.89,1.994-1.3,3.006s-.771,2.024-1.086,3.047c.817-.657,1.68-1.367,2.579-2.129s1.78-1.575,2.626-2.44a21.575,21.575,0,0,0,2.274-2.743,11.927,11.927,0,0,0,1.53-3.033,8.635,8.635,0,0,0,.288-.955,4.463,4.463,0,0,0,.121-1.155,2.384,2.384,0,0,0-.245-1.015,1.1,1.1,0,0,0-.747-.58,1.5,1.5,0,0,0-1.164.506,11.573,11.573,0,0,0-1.523,1.675,23.73,23.73,0,0,0-1.7,2.593q-.871,1.523-1.654,3.223m14.824-.142c.141.137.179.258.116.364q-1.555,2.4-3,4.812a46.035,46.035,0,0,1-3.26,4.714c-.677.86-1.415,1.72-2.23,2.588a17.236,17.236,0,0,1-2.7,2.332,9.786,9.786,0,0,1-2.63,1.289,6.552,6.552,0,0,1-2.875.271,5.012,5.012,0,0,1-2.608-1.2,5.965,5.965,0,0,1-1.719-3.147,12.951,12.951,0,0,1-.371-3.506,18.51,18.51,0,0,1,.514-3.814,25.139,25.139,0,0,1,1.268-3.84,22.082,22.082,0,0,1,1.86-3.516,15.387,15.387,0,0,1,4.315-4.561,7.084,7.084,0,0,1,4.562-1.377,1.423,1.423,0,0,1,1.12.593,2.493,2.493,0,0,1,.378,1.221,5.143,5.143,0,0,1-.109,1.443c-.109.5-.209.918-.3,1.273a12.482,12.482,0,0,1-1.552,3.166,22.315,22.315,0,0,1-2.349,2.907,37.348,37.348,0,0,1-2.822,2.653q-1.509,1.278-3.045,2.424a25,25,0,0,0-.616,3.007,10.057,10.057,0,0,0-.053,2.548,4.314,4.314,0,0,0,.635,1.87,2.342,2.342,0,0,0,1.447.975,5.728,5.728,0,0,0,4.625-1.244,20.556,20.556,0,0,0,3.289-2.983,46.857,46.857,0,0,0,3.028-3.767c.952-1.324,1.833-2.624,2.628-3.9s1.5-2.445,2.1-3.477c.066-.142.182-.179.363-.115" transform="translate(-3.171 -13.038)"/>
      <path class="cls-1" d="M229.878,152.445a17.386,17.386,0,0,0,.8-2.067,2.95,2.95,0,0,0,.15-1.162.6.6,0,0,0-.5-.664.926.926,0,0,0-.875.342,4.119,4.119,0,0,0-.979,1.472,10.61,10.61,0,0,0-.725,2.772,6.413,6.413,0,0,0-.039,1.337,9.024,9.024,0,0,0,.228,1.487c.8-1.314,1.442-2.49,1.934-3.519M218.66,179.639a3.994,3.994,0,0,0,1.724,1.7,4.45,4.45,0,0,0,2.2.453,4.386,4.386,0,0,0,2.152-.72,4.929,4.929,0,0,0,1.672-1.835,13.64,13.64,0,0,0,1.551-5,21.651,21.651,0,0,0-.078-5.109q-2.888,1.662-5.376,3.416a12.534,12.534,0,0,0-3.634,3.676,3.376,3.376,0,0,0-.206,3.419m21.374-19.117c.148.134.17.258.065.367a15.759,15.759,0,0,1-3.808,3.236q-2.387,1.515-5.171,3.123c.083.414.158.839.221,1.276s.143.863.226,1.277a16.173,16.173,0,0,1-1.551,9.277,6.607,6.607,0,0,1-2.439,2.511,7.192,7.192,0,0,1-3.481.973l-.162.006a7.387,7.387,0,0,1-3.4-.681,5.016,5.016,0,0,1-2.289-1.978,4.228,4.228,0,0,1-.5-1.66,3.692,3.692,0,0,1,.691-2.278,13.029,13.029,0,0,1,3.792-3.864q2.589-1.836,5.573-3.553c-.211-1.287-.482-2.543-.8-3.776s-.632-2.416-.945-3.561l-.351-1.091-1.559,2.144c-.131.148-.259.151-.366.013q-.266-.151-.066-.364c.344-.4.659-.8.963-1.208s.587-.818.851-1.208q-.523-1.815-.839-3.408a8.179,8.179,0,0,1-.088-2.907A8.613,8.613,0,0,1,225.69,150a5.058,5.058,0,0,1,2.012-2,5.218,5.218,0,0,1,1.612-.338,1.987,1.987,0,0,1,1.539.557q1.121.855-.494,4.471a17.85,17.85,0,0,1-1,1.838c-.395.663-.829,1.379-1.3,2.163.162.663.346,1.338.565,2.028s.453,1.437.718,2.234c.313.9.611,1.833.9,2.8s.538,1.954.745,2.964q2.724-1.551,5.044-3.038a15.244,15.244,0,0,0,3.626-3.1c.138-.141.259-.163.364-.063" transform="translate(-3.171 -13.038)"/>
      <path class="cls-1" d="M66.083,170.911c.95-.63,1.849-2.769,2.226-3.832.531-1.508,1.279-2.82,1.841-4.339" transform="translate(-3.171 -13.038)"/>
      <path class="cls-1" d="M164.691,145.778c-.317,0-.524-.454-.907-.678a8.76,8.76,0,0,0-2.056-.569c-1.862-.486-3.6-1.056-5.466-1.643a35.626,35.626,0,0,0-6.739-1.91,31.673,31.673,0,0,0-4.746-.05" transform="translate(-3.171 -13.038)"/>
    </g>
    <g>
      <path class="cls-1" d="M179.485,44.512c-.472-.992-.976-1.963-1.477-2.937-.161-.289-.329-.576-.492-.866C177.5,55.692,156.641,78.323,117.5,81.88c-.752.067-1.675.128-2.681.184l-1.446.094.094,1.767c.008.183.015.38.037.624a38.364,38.364,0,0,0,4.235,14.481,18.9,18.9,0,0,0,11.553,8.683c.423.12.787.209,1.116.28.4.093.821.173,1.246.248l2.23.4-.577-2.2a21.093,21.093,0,0,1-.671-5.28c0-13.727,11.347-21.128,22.017-21.128,8.582,0,13.9,3.9,13.9,10.179,0,6.418-6.335,14.795-20.285,18.006-1.729.422-3.457.759-5.127,1.009l-2.352.347,1.378,1.925a20.29,20.29,0,0,0,8.237,6.725l.128-.048a10.774,10.774,0,0,1,1.3-.549,54.476,54.476,0,0,0,27.649-73.113" transform="translate(-3.171 -13.038)"/>
      <path class="cls-1" d="M162.523,89.061c0-4.924-3.472-8.109-8.84-8.109-10.065,0-15.492,9.3-15.492,18.061a20.938,20.938,0,0,0,1.693,8.373l.442,1.031,1.119-.173c13.029-2.007,21.079-11.529,21.079-19.183" transform="translate(-3.171 -13.038)"/>
      <path class="cls-1" d="M118.031,80.707h.018c19.565-2.351,31.811-10.4,38.638-16.731,8.129-7.537,12.982-16.722,12.982-24.584,0-6.567-3.375-10.919-9.131-11.977l.042-.11-1.992-.135c-7.166-.516-18.453,1.77-31.534,15.636A58.651,58.651,0,0,0,113.363,79.53l-.022,1.609L114.947,81c1.04-.077,2.093-.183,3.084-.293" transform="translate(-3.171 -13.038)"/>
      <path class="cls-1" d="M134.94,110.5l-.386-.744-.839-.034c-13.722-.66-22.217-7.279-25.337-12.762a38.157,38.157,0,0,1-4.537-13.469l-.167-1.2-1.218-.039c-9.532-.368-19.4-2.4-26.823-6.139a54.869,54.869,0,0,0,71.607,43.265c-.738-.14-1.51-.307-2.37-.558a16.265,16.265,0,0,1-9.93-8.316" transform="translate(-3.171 -13.038)"/>
      <path class="cls-1" d="M101.951,81.284l1.625.08-.089-1.607a49.282,49.282,0,0,1,8.9-30.233l.085-.134c.049-.07.087-.149.147-.239a44.087,44.087,0,0,1,4.95-5.991l.618-.644a52.914,52.914,0,0,1,4.692-4.218c5.847-4.756,12.256-8.326,17.585-9.784a57.9,57.9,0,0,1,20.353-2.151A28.552,28.552,0,0,1,167,27.52a54.968,54.968,0,0,0-85.86,14.955,39.86,39.86,0,0,1,4.553-.925,24.43,24.43,0,0,1,3.19-.212,15.36,15.36,0,0,1,8.1,1.974,44.15,44.15,0,0,0-16.077,3.935,18.859,18.859,0,0,0-2.5,1.335,54.268,54.268,0,0,0-3.436,19.05c0,1.356.067,2.7.167,4.023,5.081,5.46,14.417,8.95,26.814,9.627" transform="translate(-3.171 -13.038)"/>
    </g>
  </g>
</svg>
