<svg id="Layer_1" data-name="Layer 1" xmlns="http://www.w3.org/2000/svg" viewBox="0 0 435.431 113.856">
  <defs>
    <style>
      .cls-1 {
        fill: #fff;
      }
    </style>
  </defs>
  <title>CrushEyes_h_rev</title>
  <g>
    <g>
      <path class="cls-1" d="M189.439,94.1l-.934.2-.418-.862a17.824,17.824,0,0,1-1.762-7.021C185.971,79,190.168,70.9,198.654,70.5c4.553-.19,7.577,2.339,7.777,6.513.313,6.481-6.1,14.862-16.992,17.091m-24.83-23.187a49.854,49.854,0,0,1,10.053-31.646c10.476-12.259,19.889-14.656,25.953-14.5l1.421.033-.015.062c5.035.578,8.152,4.157,8.421,9.809.312,6.656-3.4,14.631-9.94,21.337-5.5,5.64-15.5,12.941-31.9,15.718h-.011c-.841.138-1.714.262-2.59.374l-1.35.178Zm43.89.959c-2.151-1.62-5.292-2.383-9.066-2.193a17.763,17.763,0,0,0-17.7,18.765,17.759,17.759,0,0,0,.782,4.454l.57,1.831-1.9-.244c-.356-.046-.713-.1-1.055-.156-.276-.05-.593-.111-.957-.191a15.959,15.959,0,0,1-10.078-6.889,32.64,32.64,0,0,1-4.163-12.085c-.025-.2-.037-.355-.05-.512l-.156-1.518L165.939,73c.839-.09,1.616-.181,2.247-.272,32.868-4.578,49.536-24.593,48.926-37.275-.334-6.993-5.672-11.172-14.656-11.462a48.554,48.554,0,0,0-17.07,2.638c-4.427,1.445-9.687,4.73-14.427,8.99a46.456,46.456,0,0,0-3.787,3.758l-.494.57a36.746,36.746,0,0,0-3.926,5.275c-.04.069-.078.139-.111.2l-.071.13A41.834,41.834,0,0,0,156.3,71.5l.134,1.362-1.369-.012c-16.238-.1-26.611-6.215-27.079-15.941-.234-4.967,2.741-9.462,7.962-12.022a37.141,37.141,0,0,1,13.4-3.981,12.821,12.821,0,0,0-6.6-1.362,20,20,0,0,0-2.991.328c-12.813,2.363-18.221,10.184-17.9,16.878.561,11.821,17.842,17.042,33.668,16.9l1.022-.012.195,1.01a32.209,32.209,0,0,0,4.371,11.223c2.85,4.51,10.283,9.773,21.867,9.776h.716l.352.618a13.753,13.753,0,0,0,8.71,6.651c3.675.861,6.053.651,7.537.186a17.753,17.753,0,0,1-10.12-6.288l-1.239-1.577,1.969-.388c1.4-.273,2.841-.629,4.285-1.058,11.626-3.277,16.639-10.623,16.371-16.059a7.552,7.552,0,0,0-3.062-5.863" transform="translate(-12.856 -15.46)"/>
      <path class="cls-1" d="M213.446,61.376c-.4-.611-.737-.96-1.006-1.047a.566.566,0,0,0-.683.233,2.347,2.347,0,0,0-.36,1.093c-.054.484-.106.992-.139,1.523a5.6,5.6,0,0,0,.244,1.831,16.723,16.723,0,0,0,.748,2.037,9.284,9.284,0,0,0,2.049,3.259,11.284,11.284,0,0,0,.56-5.221,7.855,7.855,0,0,0-1.414-3.709m8.495,34.259a3.832,3.832,0,0,1-2.714-1.321,6.231,6.231,0,0,1-1.286-3.067,16.2,16.2,0,0,1,0-4.482,38.093,38.093,0,0,1,1.166-5.56q.976-3.491,1.816-5.616a33.672,33.672,0,0,1,1.381-3.147,8.5,8.5,0,0,1-1.512.193c-.479.011-.938.029-1.373.04a13.185,13.185,0,0,1-4.708-.574,8.708,8.708,0,0,1-5.359-5.108,12.029,12.029,0,0,1-.984-3.905,5.312,5.312,0,0,1,.625-3.16,2.37,2.37,0,0,1,1.7-1.211,3.335,3.335,0,0,1,1.853.483A5.355,5.355,0,0,1,214,60.5a9.018,9.018,0,0,1,1.595,4.713,12.361,12.361,0,0,1-.709,5.22,5.959,5.959,0,0,0,3.691,1.553,17.64,17.64,0,0,0,4.142-.346,3.2,3.2,0,0,1,1.435-1.453,4.513,4.513,0,0,1,1.795-.454,7.071,7.071,0,0,1,1.66.131c.512.108.843.177.988.225q-.807,1.9-1.453,3.44c-.422,1.018-.894,2.2-1.4,3.543s-1.01,2.739-1.5,4.2A35.583,35.583,0,0,0,222.1,90.5c-.058,2.071.357,3.292,1.232,3.651.73.265,1.751-.094,3.074-1.075a23.084,23.084,0,0,0,4.4-4.723,73.717,73.717,0,0,0,5.082-7.409q2.17-3.645,4.287-7.394a12.276,12.276,0,0,1,.748-1.394c.284-.443.527-.884.756-1.326.092-.192.255-.222.5-.084.2.087.226.259.087.5l-1.5,2.644q-2.049,3.75-4.105,7.354a64.9,64.9,0,0,1-5.042,7.449c-.654.834-1.333,1.691-2.053,2.553a19.184,19.184,0,0,1-2.277,2.307,11.143,11.143,0,0,1-2.554,1.636,5.151,5.151,0,0,1-2.8.442" transform="translate(-12.856 -15.46)"/>
      <path class="cls-1" d="M241.941,90.76a4.453,4.453,0,0,1-3.117-1.453,5.941,5.941,0,0,1-1.249-3.07,13.092,13.092,0,0,1,.159-4.015,38.439,38.439,0,0,1,1.064-4.294,41.331,41.331,0,0,1,1.435-3.941c.513-1.218.952-2.2,1.315-2.932a3.179,3.179,0,0,1,1.436-1.45,4.449,4.449,0,0,1,1.792-.451,6.947,6.947,0,0,1,1.663.132c.512.1.835.174.984.218-.185.4-.483,1.122-.908,2.194s-.905,2.313-1.442,3.727-1.051,2.89-1.562,4.419a34.452,34.452,0,0,0-1.126,4.295,11.662,11.662,0,0,0-.218,3.4,1.8,1.8,0,0,0,1.169,1.732,2.352,2.352,0,0,0,2.082-.389,10.491,10.491,0,0,0,2.285-2.056,28.229,28.229,0,0,0,2.29-3.139q1.132-1.8,2.157-3.754c.683-1.3,1.325-2.567,1.943-3.814s1.141-2.332,1.592-3.259l1.086-2.278a3.213,3.213,0,0,1,1.438-1.449,4.362,4.362,0,0,1,1.792-.45,6.761,6.761,0,0,1,1.661.132c.512.1.839.178.984.218-.542,1.267-1.02,2.415-1.45,3.439s-.891,2.2-1.4,3.546-1.014,2.735-1.5,4.2a35.511,35.511,0,0,0-2.137,9.238q-.081,3.1,1.233,3.641,1.1.4,3.074-1.068a23.524,23.524,0,0,0,4.407-4.719,73.787,73.787,0,0,0,5.078-7.419q2.158-3.634,4.283-7.386a13.822,13.822,0,0,1,.752-1.4c.276-.439.526-.879.756-1.319.087-.194.255-.229.5-.09.192.094.222.258.086.5l-1.5,2.648q-2.055,3.744-4.113,7.344a62.889,62.889,0,0,1-5.043,7.451q-.97,1.252-2.049,2.558a18.61,18.61,0,0,1-2.274,2.3,11.191,11.191,0,0,1-2.553,1.639,5.19,5.19,0,0,1-2.8.443,3.82,3.82,0,0,1-2.71-1.331A6.117,6.117,0,0,1,252,90.2a15.587,15.587,0,0,1,.008-4.478,36.843,36.843,0,0,1,1.161-5.56l.392-1.46q-1.166,2.278-2.463,4.519a27.792,27.792,0,0,1-2.769,3.982,13.6,13.6,0,0,1-3.056,2.768,4.8,4.8,0,0,1-3.331.789" transform="translate(-12.856 -15.46)"/>
      <path class="cls-1" d="M284.091,56.823a23.027,23.027,0,0,0,1.1-2.854,4.052,4.052,0,0,0,.21-1.6.837.837,0,0,0-.682-.915,1.275,1.275,0,0,0-1.215.469,5.806,5.806,0,0,0-1.341,2.03,14.568,14.568,0,0,0-1,3.821,8.725,8.725,0,0,0-.055,1.843,12.686,12.686,0,0,0,.312,2.049c1.1-1.816,1.991-3.43,2.67-4.847m-15.454,37.45a5.5,5.5,0,0,0,2.387,2.347A5.952,5.952,0,0,0,277,96.253a6.886,6.886,0,0,0,2.31-2.524,18.941,18.941,0,0,0,2.129-6.893,29.993,29.993,0,0,0-.108-7.033q-3.967,2.288-7.4,4.7a17.219,17.219,0,0,0-5.007,5.064,4.653,4.653,0,0,0-.29,4.7m29.434-26.329c.2.186.229.356.087.5a21.6,21.6,0,0,1-5.238,4.454q-3.29,2.093-7.12,4.3c.112.572.218,1.161.3,1.761s.19,1.185.306,1.758A22.3,22.3,0,0,1,284.28,93.5a9.14,9.14,0,0,1-3.361,3.466,9.892,9.892,0,0,1-4.79,1.332l-.218.008a10.226,10.226,0,0,1-4.688-.937,6.939,6.939,0,0,1-3.148-2.717,5.884,5.884,0,0,1-.687-2.294,5.073,5.073,0,0,1,.952-3.131,17.919,17.919,0,0,1,5.217-5.33q3.562-2.528,7.676-4.891-.435-2.663-1.1-5.205T278.83,68.9l-.483-1.5-2.139,2.954c-.19.2-.361.2-.513.019-.244-.142-.266-.309-.083-.506.464-.544.9-1.1,1.318-1.667s.81-1.119,1.181-1.663q-.731-2.5-1.16-4.69a11.166,11.166,0,0,1-.119-4.007,11.722,11.722,0,0,1,1.485-4.375,7.019,7.019,0,0,1,2.77-2.762,7.409,7.409,0,0,1,2.22-.465,2.756,2.756,0,0,1,2.118.763q1.553,1.184-.68,6.162a25.491,25.491,0,0,1-1.359,2.532q-.828,1.364-1.787,2.979c.218.913.478,1.843.771,2.8s.625,1.977,1,3.074c.429,1.235.839,2.525,1.243,3.862s.741,2.7,1.023,4.083q3.762-2.136,6.947-4.189a20.9,20.9,0,0,0,4.987-4.265c.193-.2.36-.23.5-.091" transform="translate(-12.856 -15.46)"/>
      <path class="cls-1" d="M310.984,50.865a47.962,47.962,0,0,0,2.666-8.243,12.89,12.89,0,0,0,.222-5.783,1.339,1.339,0,0,0-.164-.575,41.259,41.259,0,0,0-4.477,9.385q-2.473,6.643-5.329,16.915a22.136,22.136,0,0,0,3.534-4.657,51.7,51.7,0,0,0,3.548-7.041M316.25,79.01a36.029,36.029,0,0,0-1.933,8.8c-.058,1.97.35,3.143,1.229,3.5.727.263,1.751-.09,3.073-1.075a23.234,23.234,0,0,0,4.4-4.72,72.394,72.394,0,0,0,5.077-7.413q2.165-3.643,4.287-7.391a13.139,13.139,0,0,1,.756-1.4c.273-.439.523-.882.749-1.322.095-.2.258-.226.509-.091.19.095.218.262.084.508l-1.508,2.648q-2.051,3.744-4.105,7.344a64.678,64.678,0,0,1-5.043,7.45q-.976,1.254-2.053,2.555A18.8,18.8,0,0,1,319.5,90.72a11.275,11.275,0,0,1-2.55,1.635,5.15,5.15,0,0,1-2.8.443c-2.276-.266-3.64-1.683-4.105-4.244s-.131-5.761,1.007-9.6c.346-1.211.665-2.387.973-3.532a20.3,20.3,0,0,0,.59-3.121,7.97,7.97,0,0,0-.069-2.383,1.527,1.527,0,0,0-1.017-1.231,2.767,2.767,0,0,0-2.4.581,12.191,12.191,0,0,0-2.63,2.611,34.984,34.984,0,0,0-2.591,3.867q-1.269,2.168-2.358,4.336c-.725,1.444-1.388,2.788-1.969,4.03s-1.043,2.212-1.358,2.9a.772.772,0,0,0-.059.362c0,.048-.021.072-.072.072a4.052,4.052,0,0,1-1.977,1.473,5.629,5.629,0,0,1-3.757-.139,15.885,15.885,0,0,1,.5-2.467c.378-1.653.894-3.8,1.533-6.444s1.4-5.641,2.254-8.989,1.764-6.721,2.717-10.122q1.7-5.972,3.248-10.681t2.972-7.993q3.706-8.713,6.468-8.148a3.239,3.239,0,0,1,1.986,1.316v.069c.1.1.152.162.152.21a7.383,7.383,0,0,1,.4,1.071,14.3,14.3,0,0,1-.211,6.072,45.391,45.391,0,0,1-2.739,8.461,49.07,49.07,0,0,1-3.952,7.741,20.247,20.247,0,0,1-3.9,4.782l-.142.072q-.857,2.991-1.547,5.973c-.474,1.991-.92,3.891-1.34,5.712s-.8,3.506-1.106,5.052-.6,2.861-.86,3.929c.77-1.618,1.646-3.449,2.648-5.5a49.09,49.09,0,0,1,3.288-5.773,21.125,21.125,0,0,1,3.836-4.414,5.767,5.767,0,0,1,4.356-1.5,4.61,4.61,0,0,1,2.969,1.314,5.422,5.422,0,0,1,1.311,2.779,11.159,11.159,0,0,1,.007,3.685,25.9,25.9,0,0,1-.959,4.031" transform="translate(-12.856 -15.46)"/>
      <path class="cls-1" d="M362.732,43a5.9,5.9,0,0,0-.418-1.939,5.733,5.733,0,0,0-1.1-1.77,4.318,4.318,0,0,0-1.7-1.136,3.677,3.677,0,0,0-2.13-.117,10.343,10.343,0,0,0-3.051,1.322,27.314,27.314,0,0,0-3.216,2.3,29.628,29.628,0,0,0-2.906,2.758,32.116,32.116,0,0,0-2.228,2.71l1.962.439c1.7.435,3.343.807,4.938,1.115a17.4,17.4,0,0,0,4.479.331,5.028,5.028,0,0,0,4.155-2.039A6.641,6.641,0,0,0,362.732,43m-18.15,16.735a4.235,4.235,0,0,0,1.046,1.341,5.748,5.748,0,0,0,1.472.857,4.831,4.831,0,0,0,2.242.258,7.261,7.261,0,0,0,1.758-.309,10.418,10.418,0,0,0,1.816-.709,5.215,5.215,0,0,0,1.373-.943,1.465,1.465,0,0,0,.51-1.1c-.066-.526-.581-.977-1.557-1.361a6.076,6.076,0,0,0-3.324-.222,14.383,14.383,0,0,0-2.858.81,8.383,8.383,0,0,0-2.477,1.377m-1.309-15.7a17.612,17.612,0,0,1,2.064-1.943,23.453,23.453,0,0,1,3.879-2.718,18.629,18.629,0,0,1,4.129-1.711,10.245,10.245,0,0,1,2.07-.538,17.5,17.5,0,0,1,1.943-.166,5.749,5.749,0,0,1,4.523,1.881,6.486,6.486,0,0,1,1.57,4.142,6.918,6.918,0,0,1-1.443,4.52,6.391,6.391,0,0,1-4.618,2.234,17.921,17.921,0,0,1-4.548-.326c-1.642-.31-3.334-.681-5.083-1.1-.388-.087-.744-.175-1.086-.265s-.705-.168-1.087-.252l-.963,1.621a14.41,14.41,0,0,0-1.217,3.789,12.33,12.33,0,0,0-.141,3.546,4.546,4.546,0,0,0,.314,1,24.931,24.931,0,0,1,5.883-1.053,10.594,10.594,0,0,1,4.41.591,2.373,2.373,0,0,1,1.643,1.825c.029.962-.589,1.8-1.867,2.513a11.886,11.886,0,0,1-5,1.385,27.909,27.909,0,0,1-3.782.007,6.636,6.636,0,0,1-3.538-1.3c-.89.609-1.751,1.249-2.572,1.917a25.486,25.486,0,0,0-2.344,2.206,29.859,29.859,0,0,0-3.192,4.028,20.982,20.982,0,0,0-2.174,4.3,13.987,13.987,0,0,0-.959,8.549,10.212,10.212,0,0,0,3.713,6.1,9.621,9.621,0,0,0,5.479,2.322,12.956,12.956,0,0,0,5.519-.9,21.057,21.057,0,0,0,5.245-3.012q2.536-1.956,4.7-3.972a54.525,54.525,0,0,0,6.275-6.944c1.663-2.246,2.95-4.073,3.865-5.5.091-.192.261-.222.5-.087.192.091.226.259.086.5q-1.371,2.131-3.9,5.5A60.99,60.99,0,0,1,355.2,83.82q-1.619,1.564-3.474,3.066a29.2,29.2,0,0,1-3.957,2.688,24.192,24.192,0,0,1-4.338,1.937,16,16,0,0,1-4.624.829q-6.475.207-10.107-3.009a11.981,11.981,0,0,1-3.647-6.314q-.98-3.874,1.014-8.983a24.089,24.089,0,0,1,2.281-4.443,29.336,29.336,0,0,1,3.223-4.105,35.771,35.771,0,0,1,3.685-3.288,24.858,24.858,0,0,1,4.062-2.584,6.259,6.259,0,0,1-1.022-2.855,12.906,12.906,0,0,1,1.356-7.488c.233-.389.457-.8.686-1.206a48.807,48.807,0,0,1,2.939-4.029" transform="translate(-12.856 -15.46)"/>
      <path class="cls-1" d="M379.985,94.611c-.242-.088-.359-.214-.337-.386s.175-.258.461-.269q6.122-.256,11.169-7.924A44.946,44.946,0,0,0,394.02,81.4q1.3-2.49,2.383-4.767c.724-1.518,1.366-2.866,1.933-4.065s.985-2.067,1.251-2.6c.094-.192.254-.236.472-.127s.262.3.124.541a35.9,35.9,0,0,0-1.7,3.335c-.591,1.3-1.223,2.651-1.9,4.072s-1.421,2.87-2.216,4.367-1.657,2.926-2.572,4.3a26.566,26.566,0,0,1-5.173,5.755,10.719,10.719,0,0,1-6.639,2.405m-14.92-3.655a4.422,4.422,0,0,1-3.109-1.457,5.879,5.879,0,0,1-1.25-3.07,12.62,12.62,0,0,1,.167-4.01,37.2,37.2,0,0,1,1.06-4.295c.436-1.405.917-2.725,1.429-3.948s.958-2.191,1.319-2.922a3.23,3.23,0,0,1,1.431-1.457,4.35,4.35,0,0,1,1.795-.447,7.059,7.059,0,0,1,1.664.128q.763.158.98.218-.195.589-.868,2.2c-.447,1.067-.94,2.314-1.476,3.724s-1.057,2.885-1.562,4.418a33.27,33.27,0,0,0-1.134,4.294,12.382,12.382,0,0,0-.221,3.4,1.808,1.808,0,0,0,1.177,1.732,2.674,2.674,0,0,0,2.36-.582,12.578,12.578,0,0,0,2.595-2.608,35.531,35.531,0,0,0,2.588-3.862q1.273-2.174,2.36-4.3c.727-1.42,1.367-2.757,1.933-4s1.032-2.205,1.4-2.895a1.088,1.088,0,0,1,.272-.512l.069-.145.068-.072A3.906,3.906,0,0,1,382.518,69a10.293,10.293,0,0,1,2.3-.255q-.753,5.953-2.115,12.236a111.813,111.813,0,0,1-3.415,12.35,110.008,110.008,0,0,1-4.729,11.733,66.354,66.354,0,0,1-6.067,10.41q-5.821,8.118-12.567,11.65a17.622,17.622,0,0,1-7.661,2.18,12.264,12.264,0,0,1-5.595-1.121,7.568,7.568,0,0,1-4.47-4.419,9.375,9.375,0,0,1-.043-6.059,21.86,21.86,0,0,1,1.751-4.1,28.505,28.505,0,0,1,2.87-4.246,47.991,47.991,0,0,1,3.844-4.2,41.98,41.98,0,0,1,4.606-3.892,55.348,55.348,0,0,1,4.956-3.263A29.367,29.367,0,0,1,361.1,95.7a18.459,18.459,0,0,1,9.634-1.45c.284-.007.389.11.3.349.007.338-.109.441-.352.306a18.866,18.866,0,0,0-8.912,1.283,38.744,38.744,0,0,0-10.086,5.652,43.722,43.722,0,0,0-8.28,7.913,24.348,24.348,0,0,0-4.516,8.147q-1.17,4.088.08,6.25a5.639,5.639,0,0,0,3.775,2.732,12.377,12.377,0,0,0,5.7-.2,15.992,15.992,0,0,0,5.8-2.742,41.47,41.47,0,0,0,9.373-9.752,60.414,60.414,0,0,0,5.705-9.707,107.628,107.628,0,0,0,4.257-10.5q1.822-5.291,3.114-10.388T379,74.135c-.774,1.606-1.639,3.416-2.616,5.422a46.2,46.2,0,0,1-3.223,5.623,20.741,20.741,0,0,1-3.8,4.342,5.4,5.4,0,0,1-4.294,1.435" transform="translate(-12.856 -15.46)"/>
      <path class="cls-1" d="M405.849,69.19c-.632,1.374-1.228,2.747-1.787,4.141s-1.061,2.788-1.5,4.2q1.69-1.358,3.554-2.932t3.617-3.361a29.633,29.633,0,0,0,3.132-3.777,16.415,16.415,0,0,0,2.107-4.179,11.408,11.408,0,0,0,.4-1.315,6.1,6.1,0,0,0,.167-1.591,3.241,3.241,0,0,0-.338-1.4,1.517,1.517,0,0,0-1.027-.8,2.065,2.065,0,0,0-1.606.7,16.1,16.1,0,0,0-2.1,2.307,32.747,32.747,0,0,0-2.343,3.572q-1.2,2.1-2.278,4.439m20.418-.2c.2.188.247.355.159.5q-2.14,3.312-4.126,6.629a63.231,63.231,0,0,1-4.49,6.493c-.932,1.185-1.948,2.369-3.071,3.564a23.732,23.732,0,0,1-3.724,3.212,13.478,13.478,0,0,1-3.625,1.775,9.025,9.025,0,0,1-3.96.374,6.894,6.894,0,0,1-3.59-1.655,8.2,8.2,0,0,1-2.37-4.335,17.851,17.851,0,0,1-.511-4.829,25.479,25.479,0,0,1,.709-5.253,34.475,34.475,0,0,1,1.747-5.289,30.353,30.353,0,0,1,2.561-4.843,21.213,21.213,0,0,1,5.943-6.282,9.769,9.769,0,0,1,6.285-1.9,1.958,1.958,0,0,1,1.541.817,3.425,3.425,0,0,1,.523,1.683,7,7,0,0,1-.152,1.987c-.149.686-.288,1.265-.418,1.754a17.177,17.177,0,0,1-2.14,4.36,30.656,30.656,0,0,1-3.233,4,51.918,51.918,0,0,1-3.889,3.654q-2.08,1.761-4.2,3.339a34.164,34.164,0,0,0-.848,4.142,13.794,13.794,0,0,0-.072,3.509,5.928,5.928,0,0,0,.873,2.576,3.23,3.23,0,0,0,1.994,1.344q2.9.7,6.369-1.714a28.193,28.193,0,0,0,4.529-4.109,63.627,63.627,0,0,0,4.172-5.189c1.311-1.823,2.525-3.614,3.621-5.377s2.065-3.367,2.889-4.789c.09-.194.251-.246.5-.158" transform="translate(-12.856 -15.46)"/>
      <path class="cls-1" d="M434.117,56.188a23.665,23.665,0,0,0,1.108-2.847,4.057,4.057,0,0,0,.2-1.6.83.83,0,0,0-.684-.914,1.276,1.276,0,0,0-1.206.471,5.69,5.69,0,0,0-1.349,2.028,14.68,14.68,0,0,0-1,3.818,9.08,9.08,0,0,0-.055,1.842,12.312,12.312,0,0,0,.316,2.049c1.1-1.81,1.983-3.43,2.662-4.847M418.666,93.645a5.51,5.51,0,0,0,2.376,2.344,6.123,6.123,0,0,0,3.023.624,6.047,6.047,0,0,0,2.965-.991,6.783,6.783,0,0,0,2.3-2.528,18.782,18.782,0,0,0,2.137-6.889,29.979,29.979,0,0,0-.108-7.037q-3.978,2.288-7.4,4.705a17.26,17.26,0,0,0-5.006,5.063,4.649,4.649,0,0,0-.284,4.709m29.442-26.332c.2.186.233.356.088.5a21.742,21.742,0,0,1-5.243,4.458q-3.292,2.086-7.125,4.3c.117.57.218,1.155.306,1.758s.2,1.189.313,1.759a22.3,22.3,0,0,1-2.136,12.778,9.108,9.108,0,0,1-3.361,3.459,9.907,9.907,0,0,1-4.8,1.34l-.221.008a10.17,10.17,0,0,1-4.684-.937,6.9,6.9,0,0,1-3.152-2.725,5.845,5.845,0,0,1-.687-2.286,5.094,5.094,0,0,1,.952-3.139,17.933,17.933,0,0,1,5.225-5.322q3.564-2.53,7.676-4.895c-.291-1.772-.664-3.5-1.1-5.2s-.868-3.328-1.3-4.905l-.482-1.5-2.147,2.954c-.182.2-.356.207-.5.018-.244-.138-.273-.306-.091-.5.473-.544.907-1.1,1.326-1.663s.81-1.127,1.173-1.664q-.721-2.5-1.155-4.694a11.316,11.316,0,0,1-.123-4,11.873,11.873,0,0,1,1.493-4.385,6.983,6.983,0,0,1,2.771-2.754,7.213,7.213,0,0,1,2.22-.465,2.74,2.74,0,0,1,2.122.767q1.542,1.178-.68,6.158a25.09,25.09,0,0,1-1.373,2.532c-.544.913-1.141,1.9-1.783,2.978.221.913.475,1.843.776,2.794s.625,1.98.991,3.078c.43,1.238.841,2.524,1.243,3.862s.742,2.691,1.028,4.083q3.754-2.136,6.946-4.186a21.016,21.016,0,0,0,5-4.273c.188-.194.356-.225.5-.086" transform="translate(-12.856 -15.46)"/>
      <path class="cls-1" d="M208.5,81.622c1.308-.867,2.546-3.814,3.066-5.277.731-2.078,1.762-3.884,2.536-5.977" transform="translate(-12.856 -15.46)"/>
      <path class="cls-1" d="M344.327,47c-.436,0-.723-.625-1.25-.934a12.064,12.064,0,0,0-2.834-.785c-2.564-.669-4.963-1.454-7.527-2.264-3.241-1.024-5.944-2.238-9.282-2.631a43.659,43.659,0,0,0-6.536-.068" transform="translate(-12.856 -15.46)"/>
    </g>
    <g>
      <path class="cls-1" d="M104.15,43.065c-.412-.87-.853-1.722-1.291-2.576-.14-.253-.288-.5-.43-.759C102.415,52.87,84.2,72.719,50,75.838c-.657.06-1.464.112-2.341.161l-1.263.083.082,1.55c.007.16.013.333.032.547a33.75,33.75,0,0,0,3.7,12.7A16.507,16.507,0,0,0,60.3,98.494c.37.105.688.185.975.246.353.082.718.152,1.088.219l1.948.348-.5-1.93a18.572,18.572,0,0,1-.585-4.63c0-12.04,9.911-18.53,19.231-18.53,7.5,0,12.142,3.421,12.142,8.927,0,5.629-5.533,12.975-17.718,15.792-1.511.371-3.02.666-4.478.885l-2.056.3,1.2,1.689a17.745,17.745,0,0,0,7.2,5.9l.111-.042A9.546,9.546,0,0,1,80,107.189,47.879,47.879,0,0,0,104.15,43.065" transform="translate(-12.856 -15.46)"/>
      <path class="cls-1" d="M89.333,82.137c0-4.319-3.033-7.112-7.722-7.112-8.792,0-13.533,8.158-13.533,15.841a18.437,18.437,0,0,0,1.479,7.344l.386.9.978-.152C82.3,97.2,89.333,88.85,89.333,82.137" transform="translate(-12.856 -15.46)"/>
      <path class="cls-1" d="M50.469,74.81h.016c17.091-2.062,27.787-9.121,33.751-14.675,7.1-6.61,11.339-14.666,11.339-21.562,0-5.759-2.948-9.575-7.977-10.5l.037-.1-1.74-.119c-6.261-.451-16.119,1.553-27.545,13.714A51.563,51.563,0,0,0,46.391,73.776l-.019,1.411,1.4-.121c.909-.067,1.828-.161,2.693-.257" transform="translate(-12.856 -15.46)"/>
      <path class="cls-1" d="M65.24,100.94l-.337-.652-.733-.029c-11.986-.58-19.407-6.385-22.133-11.193a33.557,33.557,0,0,1-3.963-11.812L37.928,76.2l-1.063-.035c-8.327-.322-16.946-2.107-23.43-5.384a47.874,47.874,0,0,0,62.55,37.945c-.645-.122-1.32-.27-2.071-.489a14.225,14.225,0,0,1-8.673-7.294" transform="translate(-12.856 -15.46)"/>
      <path class="cls-1" d="M36.424,75.315l1.419.07-.078-1.41A43.349,43.349,0,0,1,45.538,47.46l.074-.118c.043-.062.076-.13.128-.209a38.646,38.646,0,0,1,4.324-5.255l.54-.564a46.134,46.134,0,0,1,4.1-3.7c5.108-4.172,10.706-7.3,15.361-8.581a50.4,50.4,0,0,1,17.779-1.887,24.882,24.882,0,0,1,5.406,1.016,47.906,47.906,0,0,0-75,13.116,34.925,34.925,0,0,1,3.977-.81,21.21,21.21,0,0,1,2.787-.185,13.381,13.381,0,0,1,7.072,1.731A38.448,38.448,0,0,0,18.04,45.464a16.517,16.517,0,0,0-2.183,1.172,47.767,47.767,0,0,0-3,16.708c0,1.189.059,2.364.146,3.528,4.438,4.788,12.593,7.85,23.422,8.443" transform="translate(-12.856 -15.46)"/>
    </g>
  </g>
</svg>
