<svg id="Layer_1" data-name="Layer 1" xmlns="http://www.w3.org/2000/svg" viewBox="0 0 54 44.507">
  <defs>
    <style>
      .cls-1 {
        fill: #1a1718;
      }
    </style>
  </defs>
  <title>Form_Fitting</title>
  <g>
    <path class="cls-1" d="M20.647,48.339V40.51h3.832c2.149,0,3.84,1.084,3.84,2.462V55.278C23.868,54.243,20.647,51.537,20.647,48.339Zm8.433,6.939V23.29c0-1.378,1.681-2.462,3.833-2.462h3.832V48.339C36.745,51.537,33.53,54.243,29.08,55.278Zm8.439-6.939V20.828h3.825c2.149,0,3.838,1.084,3.838,2.462V55.278C40.729,54.243,37.519,51.537,37.519,48.339Zm8.426,6.939V42.972c0-1.378,1.688-2.462,3.835-2.462h3.832v7.829C53.612,51.537,50.394,54.243,45.945,55.278Z" transform="translate(-9.99 -15.431)"/>
    <path class="cls-1" d="M18.816,15.431h36.35a8.835,8.835,0,0,1,8.824,8.824v26.86a8.835,8.835,0,0,1-8.824,8.824H18.816A8.836,8.836,0,0,1,9.99,51.115V24.255A8.835,8.835,0,0,1,18.816,15.431Zm36.35,41.617A5.938,5.938,0,0,0,61.1,51.115V24.255a5.937,5.937,0,0,0-5.932-5.934H18.816a5.941,5.941,0,0,0-5.936,5.934v26.86a5.942,5.942,0,0,0,5.936,5.934Z" transform="translate(-9.99 -15.431)"/>
  </g>
</svg>
