<svg id="Layer_1" data-name="Layer 1" xmlns="http://www.w3.org/2000/svg" viewBox="0 0 54 44.513">
  <defs>
    <style>
      .cls-1 {
        fill: #1a1718;
      }
    </style>
  </defs>
  <title>Helmet</title>
  <g>
    <path class="cls-1" d="M17.819,14.557H54.166a8.836,8.836,0,0,1,8.824,8.829V50.245a8.835,8.835,0,0,1-8.824,8.824H17.819A8.838,8.838,0,0,1,8.99,50.245V23.386A8.839,8.839,0,0,1,17.819,14.557ZM54.166,56.18A5.938,5.938,0,0,0,60.1,50.245V23.386a5.942,5.942,0,0,0-5.932-5.939H17.819a5.946,5.946,0,0,0-5.939,5.939V50.245a5.942,5.942,0,0,0,5.939,5.934Z" transform="translate(-8.99 -14.557)"/>
    <path class="cls-1" d="M54.166,21.909H17.819a1.478,1.478,0,0,0-1.478,1.477V50.245a1.481,1.481,0,0,0,1.478,1.478H54.166a1.48,1.48,0,0,0,1.475-1.478V23.386A1.477,1.477,0,0,0,54.166,21.909Zm-3.81,23.184c-.047.737-.38.925-1.152,1.512s-5.5.945-7.322.712c-2.256-.294-3.519-3.049-3.984-3.681-.7-.94-1.117-1.184-1.624-1.154h0c-.517-.03-.922.214-1.629,1.154-.465.632-1.731,3.387-3.984,3.681-1.82.234-6.556-.12-7.327-.712s-1.092-.776-1.144-1.512a35.961,35.961,0,0,1,.564-5.914c.316-1.179,1.716-2.054,3.78-3.029a16.954,16.954,0,0,1,5.7-1.91,39.916,39.916,0,0,1,4.041.074,39.857,39.857,0,0,1,4.039-.074,16.91,16.91,0,0,1,5.7,1.91c2.064.975,3.467,1.85,3.787,3.029A35.665,35.665,0,0,1,50.357,45.092ZM47.131,34.772c-4.721-2.293-14.462-4.362-21.868,0-2.8-2.647-4.529,8.68-4.529,4.646a14.164,14.164,0,0,1,4.529-10.336,16.1,16.1,0,0,1,21.868,0,14.173,14.173,0,0,1,4.529,10.336C51.659,43.451,49.929,32.125,47.131,34.772Z" transform="translate(-8.99 -14.557)"/>
  </g>
</svg>
