<svg id="Layer_1" data-name="Layer 1" xmlns="http://www.w3.org/2000/svg" viewBox="0 0 27.972 27.972">
  <defs>
    <style>
      .cls-1 {
        fill: #030504;
      }
    </style>
  </defs>
  <title>Insta_K</title>
  <path class="cls-1" d="M46.391,21.971H25.41a3.443,3.443,0,0,0-3.5,3.5V46.447a3.443,3.443,0,0,0,3.5,3.5H46.389a3.443,3.443,0,0,0,3.5-3.5V25.468A3.44,3.44,0,0,0,46.391,21.971ZM35.921,30.463A5.444,5.444,0,1,1,30.307,35.9,5.532,5.532,0,0,1,35.921,30.463ZM46.391,45.572c0,.613-.262.875-.875.875H26.285c-.611,0-.875-.262-.875-.875V33.335l2.179.475a8.139,8.139,0,0,0-.36,2.4,8.7,8.7,0,0,0,17.383,0,8.139,8.139,0,0,0-.36-2.4l2.137-.475V45.572Zm0-15.735a.874.874,0,0,1-.875.875h-3.5a.874.874,0,0,1-.875-.875v-3.5a.874.874,0,0,1,.875-.875h3.5a.874.874,0,0,1,.875.875Z" transform="translate(-21.914 -21.971)"/>
</svg>
