<svg id="Layer_1" data-name="Layer 1" xmlns="http://www.w3.org/2000/svg" viewBox="0 0 440.662 71.131">
  <defs>
    <style>
      .cls-1 {
        fill: #fcfdfe;
      }
    </style>
  </defs>
  <title>Kreedom_h_rev</title>
  <g>
    <g>
      <polygon class="cls-1" points="115.635 8.263 115.635 35.53 143.362 8.263 152.785 8.263 129.73 30.327 153.705 62.954 144.515 62.954 124.749 35.304 115.635 43.806 115.635 62.954 108.358 62.954 108.358 8.263 115.635 8.263"/>
      <path class="cls-1" d="M216.312,69.387a10.567,10.567,0,0,0,4.021-1.492,8.219,8.219,0,0,0,2.756-2.991,10.034,10.034,0,0,0,1.036-4.861,9.8,9.8,0,0,0-2.3-6.741q-2.3-2.606-7.429-2.605H196.319V69.77h15.167a29.3,29.3,0,0,0,4.826-.383m-1.534-24.819q7.812,0,12.219,3.829t4.4,10.492a16.644,16.644,0,0,1-2.256,8.737,11.647,11.647,0,0,1-7.239,5.13v.156a9.769,9.769,0,0,1,3.87,1.531,8.4,8.4,0,0,1,2.372,2.565,11.678,11.678,0,0,1,1.3,3.331,36.22,36.22,0,0,1,.648,3.829c.1,1.331.181,2.685.228,4.063a35.28,35.28,0,0,0,.383,4.057,24.814,24.814,0,0,0,.879,3.795,9.39,9.39,0,0,0,1.726,3.177H225.2a4.584,4.584,0,0,1-1.038-2.3,22.857,22.857,0,0,1-.343-3.257c-.051-1.2-.1-2.49-.154-3.868a26.423,26.423,0,0,0-.46-4.063c-.205-1.324-.457-2.587-.767-3.79a8.816,8.816,0,0,0-1.456-3.141,7.21,7.21,0,0,0-2.6-2.145,9.654,9.654,0,0,0-4.287-.8H196.319V99.26H189.04V44.567Z" transform="translate(-29.589 -36.305)"/>
      <polygon class="cls-1" points="249.687 8.263 249.687 14.391 219.199 14.391 219.199 31.781 247.619 31.781 247.619 37.908 219.199 37.908 219.199 56.829 249.917 56.829 249.917 62.954 211.921 62.954 211.921 8.263 249.687 8.263"/>
      <polygon class="cls-1" points="288.285 8.263 296.494 14.391 266.003 14.391 266.003 31.781 294.421 31.781 294.421 37.908 266.003 37.908 266.003 56.829 296.724 56.829 285.777 62.954 258.73 62.954 258.73 8.263 288.285 8.263"/>
      <path class="cls-1" d="M322.87,93.128a30.3,30.3,0,0,0,3.062-.193,16.939,16.939,0,0,0,3.9-.919,17.864,17.864,0,0,0,4.1-2.1,13.773,13.773,0,0,0,3.639-3.756,20.863,20.863,0,0,0,2.647-5.937,31.541,31.541,0,0,0,1.029-8.616,36.715,36.715,0,0,0-.953-8.772,16.844,16.844,0,0,0-3.143-6.584,13.8,13.8,0,0,0-5.629-4.143,22.442,22.442,0,0,0-8.5-1.414H310.768V93.128Zm-.611-48.565q12.633,0,19.453,6.434t6.818,19.609A44.27,44.27,0,0,1,347,82.824a22.907,22.907,0,0,1-4.748,8.965,20.625,20.625,0,0,1-8.2,5.551,32.919,32.919,0,0,1-11.795,1.913H303.485V44.563Z" transform="translate(-29.589 -36.305)"/>
      <path class="cls-1" d="M362.7,80.066a22.04,22.04,0,0,0,3.369,7.237,17.2,17.2,0,0,0,5.9,5.172,19.819,19.819,0,0,0,17.158,0,17.209,17.209,0,0,0,5.9-5.172,22.163,22.163,0,0,0,3.371-7.237,31.57,31.57,0,0,0,0-16.315,22.22,22.22,0,0,0-3.371-7.241,17.2,17.2,0,0,0-5.9-5.17,19.837,19.837,0,0,0-17.158,0,17.19,17.19,0,0,0-5.9,5.17,22.1,22.1,0,0,0-3.369,7.241,31.456,31.456,0,0,0,0,16.315M356,61.144a27.235,27.235,0,0,1,4.941-9.153,24.083,24.083,0,0,1,8.2-6.356,28.6,28.6,0,0,1,22.828,0,24.057,24.057,0,0,1,8.2,6.356,27.175,27.175,0,0,1,4.945,9.153,36.081,36.081,0,0,1,0,21.525,27.131,27.131,0,0,1-4.945,9.158,23.675,23.675,0,0,1-8.2,6.318,29.043,29.043,0,0,1-22.828,0,23.7,23.7,0,0,1-8.2-6.318A27.191,27.191,0,0,1,356,82.669a35.958,35.958,0,0,1,0-21.525" transform="translate(-29.589 -36.305)"/>
      <polygon class="cls-1" points="396.158 8.258 413.386 54.219 430.703 8.258 440.662 8.258 440.662 62.948 433.767 62.948 433.767 17.448 433.613 17.448 416.537 62.948 410.326 62.948 393.244 17.448 393.087 17.448 393.087 62.948 386.197 62.948 386.197 8.258 396.158 8.258"/>
    </g>
    <path class="cls-1" d="M64.752,71.615h.027L88.738,96.677l-5.8.03L58.924,71.674h-.06l.032-.03h0l23.931-25.03,5.882.023Zm11.3-24.979L52.1,71.615h.04L76.095,96.677l-5.8.028L46.284,71.674H46.21l23.963-25.06Zm44.113,58.7V38.416c0-1.166-1.272-2.111-2.849-2.111H32.43c-1.563,0-2.841.945-2.841,2.111v66.916c0,1.16,1.278,2.1,2.841,2.1h84.889c1.577,0,2.849-.943,2.849-2.1" transform="translate(-29.589 -36.305)"/>
  </g>
</svg>
