<svg id="Layer_1" data-name="Layer 1" xmlns="http://www.w3.org/2000/svg" viewBox="0 0 223.161 168.613">
  <defs>
    <style>
      .cls-1 {
        fill: #fff;
      }
    </style>
  </defs>
  <title>Kreedom_v_rev</title>
  <g>
    <g>
      <polygon class="cls-1" points="4.886 131.062 4.886 149.374 23.506 131.062 29.834 131.062 14.353 145.88 30.453 167.792 24.281 167.792 11.007 149.222 4.886 154.931 4.886 167.792 0 167.792 0 131.062 4.886 131.062"/>
      <path class="cls-1" d="M62.692,171.863a7.079,7.079,0,0,0,2.7-1,5.515,5.515,0,0,0,1.851-2.008,6.745,6.745,0,0,0,.7-3.266,6.581,6.581,0,0,0-1.546-4.527q-1.542-1.749-4.989-1.749H49.265v12.81H59.451a19.659,19.659,0,0,0,3.24-.258M61.662,155.2q5.246,0,8.206,2.572a8.853,8.853,0,0,1,2.957,7.046,11.17,11.17,0,0,1-1.516,5.867,7.819,7.819,0,0,1-4.861,3.445v.105a6.567,6.567,0,0,1,2.6,1.027,5.64,5.64,0,0,1,1.592,1.724,7.843,7.843,0,0,1,.876,2.237,24.283,24.283,0,0,1,.436,2.571c.068.894.122,1.8.153,2.728a23.835,23.835,0,0,0,.257,2.724,16.782,16.782,0,0,0,.59,2.549,6.318,6.318,0,0,0,1.159,2.134H68.66a3.083,3.083,0,0,1-.7-1.541,15.334,15.334,0,0,1-.23-2.187c-.035-.8-.069-1.673-.1-2.6a17.623,17.623,0,0,0-.309-2.728c-.137-.889-.306-1.737-.514-2.545a5.934,5.934,0,0,0-.978-2.109,4.844,4.844,0,0,0-1.749-1.441,6.482,6.482,0,0,0-2.879-.539H49.265v15.69H44.377V155.2Z" transform="translate(-10.066 -24.133)"/>
      <polygon class="cls-1" points="94.91 131.062 94.91 135.178 74.436 135.178 74.436 146.857 93.521 146.857 93.521 150.971 74.436 150.971 74.436 163.677 95.064 163.677 95.064 167.792 69.548 167.792 69.548 131.062 94.91 131.062"/>
      <polygon class="cls-1" points="120.831 131.062 126.344 135.178 105.868 135.178 105.868 146.857 124.952 146.857 124.952 150.971 105.868 150.971 105.868 163.677 126.499 163.677 119.146 167.792 100.982 167.792 100.982 131.062 120.831 131.062"/>
      <path class="cls-1" d="M134.251,187.808a20.5,20.5,0,0,0,2.057-.13,11.409,11.409,0,0,0,2.623-.617,11.962,11.962,0,0,0,2.753-1.414,9.242,9.242,0,0,0,2.443-2.522,14.027,14.027,0,0,0,1.777-3.986,21.21,21.21,0,0,0,.691-5.787,24.657,24.657,0,0,0-.641-5.892,11.327,11.327,0,0,0-2.11-4.421,9.265,9.265,0,0,0-3.779-2.781,15.059,15.059,0,0,0-5.711-.951h-8.23v28.5Zm-.41-32.615q8.483,0,13.064,4.32t4.578,13.169a29.744,29.744,0,0,1-1.029,8.206,15.361,15.361,0,0,1-3.188,6.02,13.871,13.871,0,0,1-5.5,3.728,22.1,22.1,0,0,1-7.921,1.284H121.235V155.192Z" transform="translate(-10.066 -24.133)"/>
      <path class="cls-1" d="M161,179.036a14.776,14.776,0,0,0,2.264,4.859,11.537,11.537,0,0,0,3.96,3.474,13.309,13.309,0,0,0,11.522,0,11.55,11.55,0,0,0,3.961-3.474,14.873,14.873,0,0,0,2.263-4.859,21.183,21.183,0,0,0,0-10.957,14.922,14.922,0,0,0-2.263-4.863,11.536,11.536,0,0,0-3.961-3.472,13.319,13.319,0,0,0-11.522,0,11.524,11.524,0,0,0-3.96,3.472A14.824,14.824,0,0,0,161,168.079a21.155,21.155,0,0,0,0,10.957m-4.5-12.709a18.278,18.278,0,0,1,3.319-6.146,16.157,16.157,0,0,1,5.5-4.269,19.208,19.208,0,0,1,15.33,0,16.148,16.148,0,0,1,5.5,4.269,18.228,18.228,0,0,1,3.32,6.146,24.224,24.224,0,0,1,0,14.456,18.191,18.191,0,0,1-3.32,6.15,15.9,15.9,0,0,1-5.5,4.243,19.5,19.5,0,0,1-15.33,0,15.9,15.9,0,0,1-5.5-4.243,18.241,18.241,0,0,1-3.319-6.15,24.143,24.143,0,0,1,0-14.456" transform="translate(-10.066 -24.133)"/>
      <polygon class="cls-1" points="193.273 131.059 204.843 161.925 216.472 131.059 223.161 131.059 223.161 167.787 218.53 167.787 218.53 137.232 218.425 137.232 206.958 167.787 202.788 167.787 191.316 137.232 191.211 137.232 191.211 167.787 186.584 167.787 186.584 131.059 193.273 131.059"/>
    </g>
    <path class="cls-1" d="M103.923,77.291h.041l36.068,37.728-8.733.046L95.151,77.379h-.091l.048-.046h0l36.025-37.681,8.855.035Zm17.015-37.6L84.87,77.291h.06L121,115.019l-8.736.043L76.122,77.379h-.112l36.074-37.727Zm66.409,88.361V27.312c0-1.755-1.914-3.179-4.288-3.179H55.266c-2.353,0-4.277,1.423-4.277,3.179V128.048c0,1.747,1.924,3.166,4.277,3.166H183.059c2.374,0,4.288-1.42,4.288-3.166" transform="translate(-10.066 -24.133)"/>
  </g>
</svg>
