<svg id="Layer_1" data-name="Layer 1" xmlns="http://www.w3.org/2000/svg" viewBox="0 0 108 72">
  <defs>
    <style>
      .cls-1 {
        fill: #030504;
      }

      .cls-2 {
        fill: #edeeef;
      }

      .cls-3 {
        fill: #fff;
      }
    </style>
  </defs>
  <title>MensOn</title>
  <polygon class="cls-1" points="108 72 0 72 15.767 36.877 0 0 108 0 108 72"/>
  <g>
    <path class="cls-2" d="M36.137,53.966a1.466,1.466,0,0,0-1.176-.564,1.21,1.21,0,0,0-.4.066.969.969,0,0,0-.348.21.987.987,0,0,0-.246.372,1.464,1.464,0,0,0-.09.54,1.069,1.069,0,0,0,.324.834,3.8,3.8,0,0,0,.852.558,7.112,7.112,0,0,1,.636.36,2.876,2.876,0,0,1,.588.491,2.3,2.3,0,0,1,.6,1.62,2.883,2.883,0,0,1-.2,1.1,2.445,2.445,0,0,1-.528.81,2.145,2.145,0,0,1-.774.5,2.615,2.615,0,0,1-.936.168,3.1,3.1,0,0,1-1.308-.275,2.755,2.755,0,0,1-.96-.7l.78-1.056a1.99,1.99,0,0,0,.666.527,1.788,1.788,0,0,0,.8.192,1.006,1.006,0,0,0,.756-.312,1.214,1.214,0,0,0,.3-.876,1.121,1.121,0,0,0-.36-.876,4.1,4.1,0,0,0-.912-.6,5.5,5.5,0,0,1-.654-.372,2.483,2.483,0,0,1-.54-.486,2.2,2.2,0,0,1-.372-.66,2.638,2.638,0,0,1-.138-.905,2.788,2.788,0,0,1,.21-1.135,2.335,2.335,0,0,1,.552-.786,2.222,2.222,0,0,1,.774-.461,2.64,2.64,0,0,1,.876-.15,3.023,3.023,0,0,1,1.158.21,2.235,2.235,0,0,1,.858.618Z" transform="translate(0 0)"/>
    <path class="cls-2" d="M42.161,60.817V57.05H39.617v3.768H38.188v-8.5h1.428v3.444h2.544V52.321h1.428v8.5Z" transform="translate(0 0)"/>
    <path class="cls-2" d="M51.064,56.558a7.39,7.39,0,0,1-.21,1.83,4.5,4.5,0,0,1-.606,1.41,2.868,2.868,0,0,1-.966.911,2.693,2.693,0,0,1-2.562,0,2.888,2.888,0,0,1-.96-.911,4.493,4.493,0,0,1-.606-1.41,7.39,7.39,0,0,1-.21-1.83,7.545,7.545,0,0,1,.2-1.824,4.425,4.425,0,0,1,.6-1.4,2.813,2.813,0,0,1,.966-.905,2.748,2.748,0,0,1,2.568,0,2.812,2.812,0,0,1,.966.905,4.509,4.509,0,0,1,.606,1.4A7.32,7.32,0,0,1,51.064,56.558Zm-1.488,0a6.918,6.918,0,0,0-.1-1.218,3.868,3.868,0,0,0-.3-.984,1.871,1.871,0,0,0-.492-.654,1.041,1.041,0,0,0-.678-.24,1.058,1.058,0,0,0-.69.24,1.864,1.864,0,0,0-.492.654,3.7,3.7,0,0,0-.294.984,7.757,7.757,0,0,0,0,2.436,3.8,3.8,0,0,0,.294.99,1.854,1.854,0,0,0,.492.66,1.115,1.115,0,0,0,1.38,0,1.854,1.854,0,0,0,.492-.66,3.8,3.8,0,0,0,.294-.99A7.339,7.339,0,0,0,49.577,56.558Z" transform="translate(0 0)"/>
    <path class="cls-2" d="M57.148,54.829a3.017,3.017,0,0,1-.2,1.135,2.42,2.42,0,0,1-.521.81,2.033,2.033,0,0,1-.741.479,2.437,2.437,0,0,1-.86.156h-1v3.408H52.408v-8.5h2.346a3.112,3.112,0,0,1,.837.12,2,2,0,0,1,.772.414,2.245,2.245,0,0,1,.563.773A2.87,2.87,0,0,1,57.148,54.829Zm-1.356.019a1.318,1.318,0,0,0-.324-.991,1.146,1.146,0,0,0-.827-.312h-.816v2.688h.816a1.072,1.072,0,0,0,.827-.353A1.471,1.471,0,0,0,55.792,54.848Z" transform="translate(0 0)"/>
    <path class="cls-2" d="M66.521,60.817l.024-6.528h-.036l-1.7,6.528H63.677l-1.668-6.528h-.036L62,60.817H60.688v-8.5H62.62l1.633,6.216H64.3l1.6-6.216h2.028v8.5Z" transform="translate(0 0)"/>
    <path class="cls-2" d="M69.64,60.817v-8.5h3.8v1.272H71.021V55.85h2.243v1.176H71.021v2.508h2.544v1.284Z" transform="translate(0 0)"/>
    <path class="cls-2" d="M78.592,60.817l-2.412-6h-.035l.023,6h-1.3v-8.5h1.644L78.9,58.357h.036l-.013-6.036h1.248v8.5Z" transform="translate(0 0)"/>
    <path class="cls-2" d="M82.036,52.321h1.092l-.7,2.977h-.96Z" transform="translate(0 0)"/>
    <path class="cls-2" d="M87.76,53.966a1.465,1.465,0,0,0-1.176-.564,1.211,1.211,0,0,0-.4.066.963.963,0,0,0-.348.21.988.988,0,0,0-.246.372,1.475,1.475,0,0,0-.09.54,1.067,1.067,0,0,0,.324.834,3.8,3.8,0,0,0,.852.558,7.112,7.112,0,0,1,.636.36,2.879,2.879,0,0,1,.589.491,2.3,2.3,0,0,1,.6,1.62,2.883,2.883,0,0,1-.2,1.1,2.43,2.43,0,0,1-.528.81,2.143,2.143,0,0,1-.773.5,2.618,2.618,0,0,1-.937.168,3.1,3.1,0,0,1-1.308-.275,2.76,2.76,0,0,1-.96-.7l.78-1.056a1.98,1.98,0,0,0,.666.527,1.787,1.787,0,0,0,.8.192,1,1,0,0,0,.756-.312,1.211,1.211,0,0,0,.3-.876,1.123,1.123,0,0,0-.359-.876,4.112,4.112,0,0,0-.912-.6,5.5,5.5,0,0,1-.654-.372,2.486,2.486,0,0,1-.54-.486,2.2,2.2,0,0,1-.372-.66,2.651,2.651,0,0,1-.138-.905,2.78,2.78,0,0,1,.21-1.135,2.333,2.333,0,0,1,.552-.786,2.228,2.228,0,0,1,.774-.461,2.64,2.64,0,0,1,.876-.15,3.022,3.022,0,0,1,1.157.21,2.232,2.232,0,0,1,.858.618Z" transform="translate(0 0)"/>
  </g>
  <path class="cls-3" d="M55.682,27.4h.012L66.7,38.913l-2.665.014-11.029-11.5h-.028l.015-.014h0l10.992-11.5,2.7.011Zm5.191-11.473-11,11.473h.018L60.892,38.913l-2.666.013L47.2,27.429h-.034L58.172,15.918ZM81.136,42.889V12.152c0-.536-.584-.97-1.308-.97H40.836c-.718,0-1.305.434-1.305.97V42.889c0,.533.587.966,1.305.966H79.828c.724,0,1.308-.433,1.308-.966" transform="translate(0 0)"/>
</svg>
