<!-- Generator: Adobe Illustrator 21.1.0, SVG Export Plug-In  -->
<svg version="1.1"
	 xmlns="http://www.w3.org/2000/svg" xmlns:xlink="http://www.w3.org/1999/xlink" xmlns:a="http://ns.adobe.com/AdobeSVGViewerExtensions/3.0/"
	 x="0px" y="0px" width="532.338px" height="630.169px" viewBox="0 0 532.338 630.169"
	 style="enable-background:new 0 0 532.338 630.169;" xml:space="preserve">
<style type="text/css">
	.st0{fill:#E2B585;}
	.st1{fill:#B88A5B;}
	.st2{fill-rule:evenodd;clip-rule:evenodd;fill:#CD9A6E;}
	.st3{fill-rule:evenodd;clip-rule:evenodd;fill:#F5C398;}
	.st4{fill:#D6A875;}
	.st5{fill:#4E3827;}
	.st6{fill:#442E1A;}
</style>
<defs>
</defs>
<g>
	<g>
		<path class="st0" d="M380.372,439.753c-55.581-48.965-40.419-89.744-28.036-108.326h-13.97
			c-22.629,7.444-49.829,9.11-71.808,6.877v-0.345c-0.524,0.062-1.05,0.117-1.575,0.174c-0.524-0.058-1.05-0.112-1.575-0.174v0.345
			c-21.979,2.233-49.18,0.567-71.808-6.877h-13.97c12.382,18.582,27.545,59.36-28.036,108.326
			c-42.397,37.35,38.266,56.914,115.389,53.378C342.107,496.667,422.77,477.103,380.372,439.753z"/>
	</g>
	<path class="st1" d="M380.372,439.753c-55.581-48.965-40.419-89.744-28.036-108.326h-13.97c-22.629,7.444-49.829,9.11-71.808,6.877
		v-0.345c-0.524,0.062-1.05,0.117-1.575,0.174c-0.133-0.015-0.266-0.03-0.4-0.044v155.059c0.133-0.006,0.266-0.011,0.4-0.017
		C342.107,496.667,422.77,477.103,380.372,439.753z"/>
	<path class="st2" d="M389.619,244.416c-0.423-7.851-1.172-15.686-2-23.505c-0.21-1.985-2.155-3.435-4.352-2.108
		c-0.952,0.575-5.05,5.229-5.825,6.079c-0.134-1.279,4.916-24.61,4.947-29.31c0.074-10.863,0.264-21.736-0.09-32.586
		c-0.299-9.169-3.16-18.008-3.964-19.757c-1.958-4.263-3.861-8.57-6.14-12.65c-1.958-3.506-37.827-53.651-61.681-59.3
		c-4.177-0.99-28.201-7.38-46.133-7.517c0-0.002,0-0.002,0-0.004c-0.173,0-0.347,0.002-0.519,0.002
		c-0.173-0.001-0.347-0.002-0.52-0.002c0,0.002,0,0.003,0,0.004c-17.933,0.137-41.956,6.527-46.134,7.517
		c-23.853,5.648-59.722,55.793-61.68,59.3c-2.279,4.08-4.182,8.388-6.14,12.65c-0.804,1.749-3.664,10.587-3.963,19.757
		c-0.355,10.851-0.163,21.724-0.09,32.586c0.032,4.7,5.082,28.031,4.947,29.31c-0.775-0.849-4.873-5.503-5.825-6.079
		c-2.198-1.327-4.142,0.123-4.352,2.108c-0.828,7.818-1.578,15.654-2,23.505c-0.815,15.159,4.941,28.179,12.232,40.93
		c3.08,5.388,4.694,11.98,6.74,18.005c0.666,1.962,1.297,3.99,2.319,5.757c1.53,2.646,4.161,3.248,7.002,3.447
		c0.832,0.057,2.249,1.057,2.299,1.715c0.325,4.261,1.468,11.127,2.843,18.067c1.725,47.934,42.491,86.283,92.537,86.283
		c50.845,0,92.111-39.584,92.589-88.587c1.153-6.169,2.071-12.016,2.357-15.764c0.051-0.658,1.467-1.658,2.299-1.715
		c2.842-0.199,5.473-0.801,7.003-3.447c1.022-1.768,1.653-3.796,2.319-5.757c2.047-6.025,3.66-12.617,6.741-18.005
		C384.677,272.595,390.434,259.575,389.619,244.416z"/>
	<path class="st3" d="M390.786,242.079c-0.423-7.851-1.172-15.686-2-23.505c-0.21-1.985-2.155-3.435-4.352-2.108
		c-0.952,0.575-5.05,5.229-5.825,6.079c-0.134-1.279,4.916-24.61,4.947-29.31c0.074-10.863,0.264-21.736-0.09-32.586
		c-0.299-9.169-3.16-18.008-3.964-19.757c-1.958-4.263-3.861-8.57-6.14-12.65c-1.958-3.506-37.827-53.651-61.681-59.3
		c-4.177-0.99-28.201-7.38-46.133-7.517c0-0.002,0-0.002,0-0.004c-0.173,0-0.346,0.002-0.519,0.002
		c-0.173-0.001-0.347-0.002-0.52-0.002c0,0.002,0,0.003,0,0.004c-17.933,0.137-41.956,6.527-46.134,7.517
		c-23.853,5.648-59.722,55.793-61.68,59.3c-2.279,4.08-4.182,8.388-6.14,12.65c-0.804,1.749-3.664,10.587-3.963,19.757
		c-0.355,10.851-0.163,21.724-0.09,32.586c0.032,4.7,5.082,28.031,4.947,29.31c-0.775-0.849-4.873-5.503-5.825-6.079
		c-2.198-1.327-4.142,0.123-4.352,2.108c-0.828,7.818-1.578,15.654-2,23.505c-0.815,15.159,4.941,28.179,12.232,40.93
		c3.08,5.388,4.694,11.98,6.74,18.005c0.666,1.962,1.297,3.99,2.319,5.757c1.53,2.646,4.161,3.248,7.002,3.447
		c0.832,0.057,2.249,1.057,2.3,1.715c0.325,4.261,1.468,11.127,2.843,18.067c1.725,47.934,42.491,86.283,92.537,86.283
		c50.845,0,92.111-39.584,92.589-88.587c1.153-6.169,2.071-12.016,2.357-15.764c0.051-0.658,1.467-1.658,2.299-1.715
		c2.842-0.199,5.473-0.801,7.003-3.447c1.022-1.768,1.653-3.796,2.319-5.757c2.047-6.025,3.66-12.617,6.741-18.005
		C385.845,270.258,391.601,257.239,390.786,242.079z"/>
	<g>
		<path class="st4" d="M390.397,241.689c-0.423-7.851-1.172-15.686-2-23.505c-0.21-1.985-2.155-3.435-4.352-2.108
			c-0.952,0.575-5.05,5.229-5.825,6.079c-0.135-1.279,4.916-24.61,4.947-29.31c0.074-10.863,0.264-21.736-0.09-32.586
			c-0.299-9.169-3.16-18.008-3.964-19.757c-1.958-4.263-3.861-8.57-6.14-12.65c-1.958-3.506-37.827-53.651-61.681-59.3
			c-4.12-0.976-27.548-7.206-45.395-7.507V415.88c50.365-0.537,91.074-39.906,91.549-88.574c1.153-6.169,2.071-12.016,2.357-15.764
			c0.051-0.658,1.467-1.658,2.299-1.715c2.842-0.199,5.473-0.801,7.003-3.447c1.022-1.768,1.653-3.796,2.319-5.757
			c2.047-6.025,3.66-12.617,6.741-18.005C385.455,269.868,391.212,256.848,390.397,241.689z"/>
	</g>
	<path class="st5" d="M461.084,442.645c-18.703-9.798-49.535-13.606-84.722-25.843c0.05-0.383-5.463-12.676-7.971-17.528
		c-5.912-11.443-9.834-13.618-25.779-14.744c2.293,10.057,2.442,10.523,5.685,20.244c-9.719,25.483-46.624,54.547-78.713,62.359
		c-1.297,0.316-7.648,0.348-9.078,0c-32.09-7.813-68.995-36.876-78.713-62.359c3.243-9.721,3.392-10.187,5.685-20.244
		c-15.944,1.126-19.866,3.301-25.779,14.744c-2.507,4.852-7.992,17.424-7.86,18.32c-34.307,11.905-64.183,15.41-82.585,25.051
		C18.914,470.069,4.084,510.4,0,630.169l266.337-0.264l266.001,0.264C528.254,510.4,513.423,470.069,461.084,442.645z"/>
	<path class="st6" d="M461.084,442.645c-18.703-9.798-49.535-13.606-84.722-25.843c0.05-0.383-5.463-12.676-7.971-17.528
		c-5.912-11.443-9.834-13.618-25.779-14.744c2.293,10.057,2.442,10.523,5.685,20.244c-9.719,25.483-46.624,54.547-78.713,62.359
		c-0.706,0.172-2.909,0.26-5,0.248v162.525l1.754-0.002l266.001,0.264C528.254,510.4,513.423,470.069,461.084,442.645z"/>
	<path class="st6" d="M386.24,156.787c-1.049-10.105-0.72-53.834-24.224-62.183c-0.492-0.675-0.99-1.33-1.493-1.963
		c-0.614-22.115-25.165-34.344-53.88-43.444c-2.661-0.843-7.322-1.785-12.689-2.677c-9.041-2.274-18.059-4.294-26.197-6.905
		c-1.007-0.323-2.069-0.665-3.174-1.025v87.535c1.113-0.018,2.232-0.03,3.358-0.03c44.683,0,79.32,14.733,87.849,32.066
		c-0.633,6.684-1.815,13.374-2.663,20.045c-0.557,4.384-1.103,8.649,0.964,12.807c0.775,1.563,4.393,8.37,5.169,14.378
		c1.091,8.437,1.988,16.921,2.479,25.414c0.072,1.254,0.132,2.511,0.182,3.768c-0.517,7.867-1.288,36.824-1.288,36.824
		c-0.01,9.768,7.246-7.074,6.804-12.424c0.168-1.053,1.357,0.781,1.074-0.578c-2.131-3.005,4.592-24.32,6.691-27.571
		c2.236-3.461,4.038-7.392,5.128-12.088c1.198,0.061,0.642,2.01,1.613,2.317c3.548-6.836-0.831-16.28,0-22.579
		c1.405,0.802,1.907,2.575,3.224,3.474c-0.551-8.685,0.504-18.133,1.092-27.424C386.643,168.458,386.829,162.461,386.24,156.787z"/>
	<path class="st5" d="M386.24,156.787c-1.049-10.105-0.72-53.834-24.224-62.183c-0.492-0.675-0.99-1.33-1.493-1.963
		c-0.614-22.115-25.165-34.344-53.88-43.444c-2.661-0.843-7.322-1.785-12.689-2.677c-9.041-2.274-18.059-4.294-26.197-6.905
		C249.084,33.624,212.158,21.341,207.719,0c-2.542,1.357-29.471,24.633-37.07,46.582c5.924-25.206,19.774-35.828,26.096-41.22
		c-33.386,11.53-44.813,51.603-36.48,67.582c0.279,0.49,0.572,0.985,0.879,1.487c-0.315-0.468-0.607-0.965-0.879-1.487
		c-8.162-14.282-4.901-23.385-1.013-31.572c-9.809,14.427-12.324,40.361-1.565,55.245c-4.036,5.525-6.024,12.747-6.369,22.912
		l7.593-5.706c-6.202,9.21-14.803,25.173-13.087,40.94c0.51,4.689,0.154,11.03,0.269,15.92c0.034,1.441,0.094,2.893,0.172,4.354
		c0.48,9.053,1.616,18.436,1.17,26.91c1.244-0.633,1.892-3.039,3.108-3.201c0.109,0.556,0.218,1.109,0.324,1.657
		c-0.472,6.604-3.444,15.131,0.061,20.649c0.556-0.75,0.237-2.447,1.611-2.317c0.808,5.001,2.668,8.869,4.965,12.265
		c2.157,3.19,7.187,23.619,6.586,27.683c-0.132,0.73,1.333-0.806,1.076,0.579c-0.524,5.225,6.634,15.119,6.55,13.885l-0.019-0.009
		c0,0-0.636-36.611-1.159-39.929c-0.017-0.11-0.028-0.221-0.044-0.331c0.033-0.692,0.065-1.384,0.105-2.075
		c0.491-8.493,1.389-16.977,2.479-25.414c0.776-6.008,4.393-12.815,5.169-14.378c2.066-4.158,1.521-8.424,0.964-12.807
		c-0.611-4.799-1.393-9.608-2.021-14.417c0.872-1.734,1.781-3.552,2.713-5.526c8.201-17.367,43.233-32.168,88.038-32.168
		c44.683,0,79.32,14.733,87.849,32.066c-0.633,6.684-1.815,13.374-2.663,20.045c-0.557,4.384-1.103,8.649,0.964,12.807
		c0.775,1.563,4.393,8.37,5.169,14.378c1.091,8.437,1.988,16.921,2.479,25.414c0.072,1.254,0.132,2.511,0.182,3.768
		c-0.517,7.867-1.288,36.824-1.288,36.824c-0.01,9.768,7.246-7.074,6.804-12.424c0.168-1.053,1.357,0.781,1.074-0.578
		c-2.131-3.005,4.592-24.32,6.691-27.571c2.236-3.461,4.038-7.392,5.128-12.088c1.198,0.061,0.642,2.01,1.613,2.317
		c3.548-6.836-0.831-16.28,0-22.579c1.405,0.802,1.907,2.575,3.224,3.474c-0.551-8.685,0.504-18.133,1.092-27.424
		C386.643,168.458,386.829,162.461,386.24,156.787z"/>
</g>
</svg>