<!-- Generator: Adobe Illustrator 21.1.0, SVG Export Plug-In  -->
<svg version="1.1"
	 xmlns="http://www.w3.org/2000/svg" xmlns:xlink="http://www.w3.org/1999/xlink" xmlns:a="http://ns.adobe.com/AdobeSVGViewerExtensions/3.0/"
	 x="0px" y="0px" width="545.488px" height="714.462px" viewBox="0 0 545.488 714.462"
	 style="enable-background:new 0 0 545.488 714.462;" xml:space="preserve">
<style type="text/css">
	.st0{fill:#E2B585;}
	.st1{fill:#B88A5B;}
	.st2{fill:#4E3827;}
	.st3{fill:#442E1A;}
	.st4{fill:#CD9A6E;}
	.st5{fill:#F5C398;}
	.st6{fill:#D6A875;}
</style>
<defs>
</defs>
<g>
	<path class="st0" d="M389.074,504.702c-77.256-73.154-19.375-129.504-19.375-129.504c-24.798,17.905-65.238,22.549-95.736,19.218
		v-0.376c-0.531,0.069-1.062,0.128-1.594,0.191c-0.53-0.063-1.062-0.122-1.592-0.191v0.376
		c-30.499,3.331-70.938-1.313-95.737-19.218c0,0,57.88,56.35-19.376,129.504c-42.88,40.605,38.702,61.874,116.704,58.028
		C350.372,566.575,431.954,545.306,389.074,504.702z"/>
	<path class="st1" d="M389.074,504.702c-77.256-73.154-19.375-129.504-19.375-129.504c-24.798,17.905-65.238,22.549-95.736,19.218
		v-0.376c-0.531,0.069-1.062,0.128-1.594,0.191c-0.091-0.011-0.181-0.022-0.272-0.032v168.545c0.091-0.004,0.181-0.008,0.272-0.013
		C350.372,566.575,431.954,545.306,389.074,504.702z"/>
	<path class="st2" d="M476.429,510.603c-20.907-11.131-52.682-15.149-91.389-29.942c-1.242-2.904-5.633-13.131-7.797-17.633
		c-5.981-12.439-9.947-14.803-26.073-16.026c2.32,10.932,2.47,11.439,5.75,22.007c-9.83,27.703-47.155,59.298-79.611,67.792
		c-2.517,0.658-7.293,0.671-9.858,0c-32.456-8.494-69.782-40.089-79.611-67.792c3.28-10.568,3.429-11.075,5.75-22.007
		c-16.126,1.223-20.093,3.587-26.073,16.026c-2.211,4.597-6.746,15.173-7.874,17.812c-38.46,15.023-69.669,18.628-90.583,29.762
		C13.065,540.416,4.369,584.26,0,714.462l272.744-0.286l272.744,0.286C541.119,584.26,532.423,540.416,476.429,510.603z"/>
	<path class="st3" d="M476.429,510.603c-20.907-11.131-52.682-15.149-91.389-29.942c-1.242-2.904-5.633-13.131-7.797-17.633
		c-5.981-12.439-9.947-14.803-26.073-16.026c2.32,10.932,2.47,11.439,5.75,22.007c-9.83,27.703-47.155,59.298-79.611,67.792
		c-1.328,0.347-3.283,0.513-5.212,0.495v176.88l0.647,0l272.744,0.286C541.119,584.26,532.423,540.416,476.429,510.603z"/>
	<path class="st4" d="M273.397,41.565c-0.23-0.008-1.146-0.009-1.376,0C170.67,45.314,165.58,119.982,140.694,191.862l7.146,104.686
		c0.097,11.401,4.693,27.897,4.693,37.773c0,132.917,240.799,134.282,240.799,0c0-9.876,4.149-26.372,4.245-37.773l7.146-104.686
		C378.936,119.982,375.937,44.61,273.397,41.565z"/>
	<path class="st5" d="M273.397,33.827c-0.23-0.008-1.146-0.009-1.376,0C170.67,37.575,165.58,112.244,140.694,184.123l7.146,104.686
		c0.097,11.401,4.693,27.897,4.693,37.773c0,132.917,240.799,134.282,240.799,0c0-9.876,4.149-26.372,4.245-37.773l7.146-104.686
		C378.936,112.244,375.937,36.871,273.397,33.827z"/>
	<path class="st6" d="M273.4,33.827c-0.23-0.008-1.146-0.009-1.376,0c-0.895,102.169,0.47,294.633,0.912,392.956
		c60.2,0.171,120.4-33.059,120.4-100.199c0-9.876,4.149-26.372,4.245-37.773l7.146-104.686
		C378.939,112.244,375.94,36.871,273.4,33.827z"/>
	<path class="st2" d="M447.06,333.308c-1.945-15.631-5.035-32.675-6.552-48.382c-2.08-21.536,1.242-39.473,4.012-61.568
		c5.653-45.093,1.148-71.539-5.757-94.071C421.557,73.144,369.957-1.647,285.566,0.028c-24.111,0.48-54.045,22.254-54.045,22.254
		s-35.764-14.306-73.912,25.432c-42.044,43.795-57.06,125.673-53.314,184.425c2.15,33.726-5.428,61.318-9.613,93.952
		c-7.094,55.304,46.05,69.506,77.194,70.593c10.556,4.057,10.226,4.845,22.269,5.036c0,0-26.887-20.44-40.552-96.919
		c-4.888-27.357,2.649-64.164,10.897-76.425c9.171-13.637,68.926-66.08,74.417-87.111l-10.855,70.251l40.157-95.947
		c2.738,4.571,41.799,113.937,74.359,124.197c-4.579-1.442-30.995-76.224-30.995-76.224c19.77,43.579,66.159,84.947,76.608,94.794
		c-3.6-12.271-9.263-29.565-8.399-39.88c1.729,2.642,31.195,34.971,6,121.48c-9.029,31.001-17.398,45.401-38.463,65.011
		c1.776-0.901,4.867,1.865,21.442-2.317C397.286,402.96,454.193,390.663,447.06,333.308z M163.938,393.153
		c-24.3-7.762-63.665-26.228-49.396-56.58c0.652-1.388,1.323-2.701,2.007-3.958C127.111,367.266,146.959,384.539,163.938,393.153z
		 M368.89,402.571c20.614-9.448,46.957-27.653,57.366-62.861c0.651,1.233,1.289,2.521,1.91,3.883
		C444.66,379.775,385.815,398.741,368.89,402.571z"/>
	<path class="st3" d="M447.06,333.308c-1.945-15.631-5.035-32.675-6.552-48.382c-2.08-21.536,1.242-39.473,4.012-61.568
		c5.653-45.093,1.148-71.539-5.757-94.071C421.557,73.144,369.957-1.647,285.566,0.028c-4.37,0.087-8.93,0.876-13.469,2.105v122.742
		c11.104,27.53,43.086,106.262,70.472,114.891c-4.579-1.442-30.995-76.224-30.995-76.224c19.77,43.579,66.159,84.947,76.608,94.794
		c-3.6-12.271-9.263-29.565-8.399-39.88c1.729,2.642,31.195,34.971,6,121.48c-9.029,31.001-17.398,45.401-38.463,65.011
		c1.776-0.901,4.867,1.865,21.442-2.317C397.286,402.96,454.193,390.663,447.06,333.308z M368.89,402.571
		c20.614-9.448,46.957-27.653,57.366-62.861c0.651,1.233,1.289,2.521,1.91,3.883C444.66,379.775,385.815,398.741,368.89,402.571z"/>
</g>
</svg>