<!-- Generator: Adobe Illustrator 21.1.0, SVG Export Plug-In  -->
<svg version="1.1"
	 xmlns="http://www.w3.org/2000/svg" xmlns:xlink="http://www.w3.org/1999/xlink" xmlns:a="http://ns.adobe.com/AdobeSVGViewerExtensions/3.0/"
	 x="0px" y="0px" width="69.192px" height="92.017px" viewBox="0 0 69.192 92.017"
	 style="enable-background:new 0 0 69.192 92.017;" xml:space="preserve">
<defs>
</defs>
<g>
	<g>
		<path d="M10.268,76.263C3.422,70.787,0,64.175,0,56.419V1.27h6.318v55.148c0,6.385,2.844,11.815,8.53,16.286
			c5.583,4.47,12.375,6.705,20.379,6.705c7.584,0,14.113-2.235,19.589-6.705c5.371-4.471,8.057-9.901,8.057-16.286V1.27h6.319
			v55.148c0,7.756-3.317,14.368-9.953,19.844c-6.634,5.474-14.639,8.211-24.012,8.211C25.537,84.474,17.22,81.736,10.268,76.263z"/>
	</g>
	<g>
		<path d="M31.641,76.573L5.745,21.093h5.498l23.209,50.523l23.209-50.523h5.619l-26.017,55.48H31.641z"/>
	</g>
	<g>
		<g>
			<path d="M7.425,78.693c-0.258-0.232-0.515-0.468-0.769-0.708c0.042-0.045,0.084-0.09,0.127-0.135
				c0.057,0.054,0.115,0.107,0.172,0.161c0.156,0.146,0.344,0.221,0.565,0.225c0.229,0.005,0.432-0.064,0.608-0.205
				c0.05,0.045,0.101,0.09,0.151,0.135c-0.931,1.056-1.862,2.111-2.793,3.167c-0.079-0.068-0.158-0.138-0.236-0.207
				C5.975,80.315,6.7,79.504,7.425,78.693z"/>
			<path d="M7.314,82.19c0.023-0.452,0.251-0.939,0.678-1.458c0.428-0.519,0.86-0.839,1.288-0.975
				c0.428-0.134,0.811-0.064,1.16,0.205c0.347,0.267,0.509,0.616,0.488,1.062c-0.019,0.447-0.217,0.94-0.606,1.483
				c-0.388,0.542-0.794,0.889-1.227,1.028c-0.432,0.146-0.849,0.075-1.235-0.216C7.472,83.027,7.289,82.646,7.314,82.19z
				 M9.017,83.273c0.366-0.141,0.721-0.455,1.069-0.935c0.348-0.48,0.538-0.912,0.574-1.295c0.035-0.386-0.084-0.677-0.364-0.894
				c-0.281-0.216-0.6-0.259-0.962-0.124C8.972,80.16,8.6,80.458,8.223,80.92c-0.376,0.464-0.588,0.89-0.628,1.279
				C7.554,82.59,7.692,82.906,8,83.139C8.309,83.371,8.647,83.415,9.017,83.273z"/>
			<path d="M10.324,84.384c-0.015-0.447,0.172-0.945,0.551-1.492c0.38-0.548,0.78-0.899,1.191-1.07
				c0.411-0.169,0.794-0.134,1.16,0.101c0.364,0.233,0.552,0.564,0.568,1.003c0.017,0.441-0.139,0.945-0.478,1.512
				c-0.338,0.566-0.712,0.943-1.127,1.118c-0.415,0.18-0.832,0.146-1.236-0.107C10.546,85.193,10.335,84.833,10.324,84.384z
				 M12.089,85.303c0.349-0.17,0.674-0.511,0.979-1.012c0.305-0.503,0.457-0.943,0.462-1.323c0.003-0.382-0.137-0.66-0.431-0.849
				c-0.294-0.188-0.612-0.203-0.959-0.039c-0.346,0.164-0.689,0.487-1.022,0.976c-0.334,0.488-0.509,0.925-0.517,1.312
				c-0.01,0.388,0.152,0.688,0.475,0.89C11.399,85.459,11.736,85.474,12.089,85.303z"/>
			<path d="M14.451,84.638c-0.079-0.264-0.051-0.51,0.08-0.738c0.134-0.232,0.333-0.383,0.595-0.457
				c0.26-0.07,0.509-0.038,0.749,0.09c0.24,0.129,0.403,0.317,0.487,0.569c0.082,0.258,0.065,0.503-0.057,0.74
				c-0.119,0.233-0.31,0.393-0.575,0.473c-0.263,0.076-0.525,0.05-0.778-0.083C14.701,85.098,14.532,84.896,14.451,84.638z
				 M15.624,85.068c0.193-0.06,0.333-0.179,0.426-0.355c0.093-0.179,0.11-0.363,0.053-0.552c-0.053-0.187-0.167-0.327-0.341-0.42
				c-0.174-0.092-0.355-0.109-0.546-0.053c-0.193,0.055-0.34,0.171-0.439,0.348c-0.099,0.174-0.121,0.356-0.062,0.55
				c0.056,0.191,0.175,0.337,0.355,0.432C15.249,85.113,15.437,85.131,15.624,85.068z M18.285,84.601
				c0.1,0.045,0.199,0.09,0.299,0.134c-1.557,0.818-3.204,1.562-4.937,2.215c-0.115-0.061-0.229-0.122-0.344-0.185
				C15.05,86.13,16.713,85.404,18.285,84.601z M15.577,87.604c-0.102-0.26-0.096-0.51,0.024-0.745
				c0.119-0.236,0.315-0.391,0.579-0.471c0.264-0.081,0.526-0.063,0.782,0.054c0.262,0.12,0.441,0.304,0.548,0.553
				c0.109,0.25,0.112,0.492,0.004,0.733c-0.106,0.239-0.292,0.406-0.563,0.497c-0.266,0.087-0.536,0.072-0.81-0.053
				C15.871,88.052,15.681,87.86,15.577,87.604z M16.82,87.992c0.197-0.072,0.335-0.2,0.418-0.382
				c0.081-0.179,0.082-0.357,0.008-0.545c-0.072-0.184-0.201-0.319-0.389-0.404c-0.187-0.086-0.377-0.096-0.57-0.032
				c-0.197,0.064-0.337,0.181-0.424,0.357c-0.089,0.18-0.099,0.365-0.025,0.562c0.073,0.188,0.207,0.329,0.401,0.416
				C16.433,88.052,16.629,88.062,16.82,87.992z"/>
			<path d="M20.771,89.635c-0.228-0.357-0.274-0.716-0.144-1.076c0.306-0.851,0.612-1.7,0.918-2.55
				c0.089,0.03,0.178,0.061,0.267,0.091c-0.3,0.852-0.6,1.702-0.9,2.554c-0.105,0.298-0.061,0.594,0.129,0.885
				c0.186,0.289,0.472,0.49,0.846,0.6c0.355,0.102,0.695,0.085,1.012-0.056c0.312-0.143,0.509-0.364,0.594-0.666
				c0.245-0.862,0.489-1.724,0.734-2.586c0.091,0.024,0.183,0.049,0.274,0.072c-0.238,0.863-0.477,1.726-0.715,2.589
				c-0.101,0.365-0.341,0.639-0.727,0.812c-0.386,0.175-0.801,0.201-1.247,0.072C21.354,90.242,21.007,89.992,20.771,89.635z"/>
			<path d="M25.464,91.168c-0.245-1.386-0.439-2.776-0.583-4.169c0.103,0.025,0.205,0.051,0.308,0.076
				c0.135,1.264,0.311,2.525,0.528,3.783c0.733-1.07,1.429-2.153,2.085-3.246c0.105,0.019,0.211,0.036,0.317,0.054
				c-0.721,1.203-1.49,2.394-2.305,3.57C25.696,91.214,25.58,91.191,25.464,91.168z"/>
			<path d="M30.304,91.857c0.144-1.284,0.289-2.569,0.434-3.854c0.622,0.059,1.246,0.104,1.87,0.133
				c0.271,0.013,0.494,0.123,0.672,0.329c0.183,0.212,0.268,0.457,0.256,0.742c-0.012,0.299-0.118,0.551-0.328,0.757
				c-0.204,0.207-0.453,0.308-0.738,0.296c-0.56-0.025-1.119-0.059-1.678-0.106c-0.061,0.576-0.122,1.152-0.182,1.729
				C30.507,91.875,30.405,91.866,30.304,91.857z M32.434,90.009c0.213,0.009,0.402-0.062,0.56-0.212
				c0.159-0.146,0.242-0.331,0.252-0.552c0.011-0.229-0.054-0.428-0.191-0.598c-0.138-0.166-0.309-0.252-0.514-0.262
				c-0.518-0.025-1.036-0.06-1.553-0.105c-0.057,0.542-0.114,1.083-0.171,1.625C31.355,89.95,31.894,89.984,32.434,90.009z"/>
			<path d="M34.016,92.017c0.035-1.279,0.069-2.558,0.104-3.837c0.659,0.006,1.318-0.004,1.977-0.03
				c0.284-0.011,0.529,0.074,0.74,0.259c0.21,0.18,0.322,0.406,0.335,0.685c0.012,0.243-0.039,0.459-0.157,0.647
				c-0.124,0.189-0.285,0.302-0.479,0.345c0.186,0.032,0.337,0.158,0.459,0.378c0.122,0.22,0.196,0.487,0.211,0.807
				c0.009,0.18,0.018,0.314,0.033,0.404c0.014,0.106,0.04,0.18,0.07,0.22c-0.102,0.008-0.203,0.016-0.305,0.022
				c-0.053-0.049-0.091-0.142-0.11-0.275c-0.016-0.182-0.031-0.364-0.046-0.546c-0.01-0.256-0.091-0.472-0.239-0.647
				c-0.142-0.173-0.315-0.253-0.516-0.244c-0.578,0.025-1.157,0.038-1.736,0.04c-0.012,0.591-0.023,1.182-0.035,1.771
				C34.219,92.017,34.118,92.018,34.016,92.017z M36.087,89.967c0.229-0.011,0.424-0.099,0.583-0.263
				c0.155-0.16,0.228-0.35,0.218-0.565c-0.009-0.216-0.096-0.394-0.258-0.538c-0.165-0.144-0.356-0.209-0.577-0.2
				c-0.553,0.022-1.107,0.032-1.661,0.031c-0.01,0.525-0.021,1.05-0.031,1.574C34.937,90.005,35.512,89.991,36.087,89.967z"/>
			<path d="M38.323,91.316c-0.391-0.317-0.597-0.771-0.631-1.355c-0.037-0.604,0.108-1.104,0.422-1.495
				c0.312-0.392,0.736-0.618,1.294-0.688c0.553-0.067,1.018,0.047,1.405,0.348c0.387,0.301,0.633,0.746,0.726,1.337
				c0.089,0.572-0.014,1.062-0.325,1.47c-0.309,0.407-0.777,0.661-1.385,0.742C39.214,91.757,38.711,91.634,38.323,91.316z
				 M40.971,90.8c0.265-0.352,0.351-0.782,0.275-1.286c-0.077-0.52-0.283-0.91-0.614-1.18c-0.329-0.27-0.726-0.371-1.199-0.312
				c-0.477,0.06-0.84,0.257-1.103,0.604c-0.262,0.346-0.383,0.782-0.348,1.311c0.035,0.515,0.215,0.913,0.545,1.188
				c0.329,0.277,0.757,0.384,1.275,0.314C40.317,91.37,40.71,91.154,40.971,90.8z"/>
			<path d="M43.567,90.962c-0.227-1.142-0.454-2.283-0.68-3.425c-0.468,0.101-0.938,0.193-1.408,0.277
				c-0.013-0.081-0.026-0.162-0.039-0.243c1.032-0.183,2.059-0.406,3.077-0.672c0.019,0.079,0.038,0.157,0.058,0.236
				c-0.469,0.122-0.94,0.236-1.413,0.342c0.234,1.139,0.469,2.277,0.704,3.416C43.767,90.917,43.667,90.939,43.567,90.962z"/>
			<path d="M45.85,90.385c-0.307-1.198-0.615-2.397-0.922-3.595c0.878-0.238,1.75-0.508,2.613-0.809
				c0.025,0.076,0.051,0.152,0.076,0.229c-0.778,0.271-1.563,0.518-2.354,0.739c0.122,0.459,0.243,0.918,0.364,1.377
				c0.747-0.212,1.489-0.446,2.226-0.701c0.024,0.073,0.048,0.146,0.072,0.22c-0.741,0.257-1.487,0.493-2.238,0.707
				c0.134,0.506,0.268,1.012,0.401,1.517c0.854-0.247,1.701-0.521,2.542-0.821c0.025,0.074,0.05,0.149,0.075,0.224
				C47.761,89.81,46.809,90.114,45.85,90.385z"/>
			<path d="M49.365,88.725c-0.511-0.207-0.845-0.572-1.016-1.076c-0.171-0.506-0.133-1.002,0.099-1.495
				c0.229-0.485,0.583-0.823,1.077-1.025c0.407-0.167,0.789-0.218,1.147-0.155c0.359,0.06,0.645,0.225,0.848,0.506
				c-0.088,0.041-0.177,0.082-0.266,0.122c-0.151-0.21-0.383-0.336-0.695-0.385c-0.306-0.048-0.621-0.002-0.947,0.132
				c-0.422,0.173-0.725,0.467-0.92,0.892c-0.192,0.43-0.22,0.866-0.066,1.308c0.153,0.44,0.446,0.763,0.884,0.951
				c0.437,0.184,0.889,0.18,1.346-0.013c0.394-0.166,0.678-0.398,0.848-0.691c0.176-0.293,0.214-0.601,0.114-0.912
				c0.091-0.043,0.183-0.085,0.274-0.128c0.126,0.377,0.086,0.747-0.124,1.104c-0.206,0.354-0.551,0.639-1.027,0.84
				C50.401,88.927,49.87,88.934,49.365,88.725z"/>
			<path d="M54.123,87.098c-0.502-1.009-1.005-2.017-1.507-3.025c-0.435,0.223-0.874,0.437-1.315,0.642
				c-0.032-0.072-0.065-0.145-0.098-0.217c0.967-0.449,1.92-0.94,2.857-1.472c0.038,0.068,0.077,0.137,0.115,0.205
				c-0.431,0.245-0.866,0.482-1.304,0.71c0.51,1.003,1.019,2.007,1.529,3.01C54.308,87.001,54.215,87.05,54.123,87.098z"/>
			<path d="M56.22,85.926c-0.595-1.038-1.19-2.077-1.784-3.116c0.083-0.048,0.166-0.097,0.249-0.146
				c0.602,1.033,1.204,2.065,1.806,3.099C56.401,85.817,56.31,85.872,56.22,85.926z"/>
			<path d="M57.325,84.7c-0.496-0.078-0.881-0.359-1.167-0.831c-0.295-0.488-0.379-0.976-0.26-1.454
				c0.118-0.478,0.409-0.871,0.893-1.202c0.48-0.328,0.959-0.461,1.445-0.4c0.485,0.061,0.904,0.31,1.244,0.76
				c0.329,0.434,0.444,0.897,0.334,1.393c-0.109,0.496-0.43,0.938-0.954,1.305C58.332,84.639,57.818,84.778,57.325,84.7z
				 M59.534,82.975c0.092-0.426-0.015-0.829-0.301-1.215c-0.295-0.397-0.652-0.623-1.074-0.684c-0.419-0.062-0.829,0.047-1.24,0.327
				c-0.413,0.282-0.661,0.624-0.753,1.04c-0.091,0.415-0.014,0.839,0.248,1.265c0.254,0.413,0.592,0.66,1.014,0.731
				c0.422,0.074,0.861-0.044,1.306-0.354C59.178,83.775,59.446,83.4,59.534,82.975z"/>
			<path d="M61.1,82.543c-0.725-0.927-1.449-1.853-2.174-2.779c0.107-0.083,0.213-0.168,0.319-0.253
				c1.362,0.29,2.765,0.498,4.2,0.619c-0.725-0.784-1.45-1.568-2.174-2.353c0.074-0.067,0.147-0.135,0.22-0.203
				c0.796,0.849,1.593,1.696,2.389,2.545c-0.109,0.104-0.219,0.206-0.329,0.309c-1.429-0.11-2.824-0.307-4.181-0.583
				c0.661,0.831,1.322,1.662,1.983,2.494C61.269,82.407,61.184,82.476,61.1,82.543z"/>
		</g>
	</g>
	<g>
		<path d="M22.132,18.077v4.504h-3.018v-4.504h-8.972v-2.269l8.614-15.587h3.377v15.587h2.221v2.269H22.132z M13,15.809h6.113V4.886
			L13,15.809z"/>
		<path d="M26.97,5.621C26.97,2.201,29.074,0,33.322,0c4.286,0,6.39,2.201,6.39,5.621V17.15c0,3.417-2.104,5.652-6.39,5.652
			c-4.249,0-6.353-2.235-6.353-5.652V5.621z M30.026,17.308c0,2.014,1.072,3.229,3.296,3.229c2.264,0,3.295-1.215,3.295-3.229V5.492
			c0-2.044-1.032-3.257-3.295-3.257c-2.224,0-3.296,1.213-3.296,3.257V17.308z"/>
		<path d="M42.884,5.621C42.884,2.201,44.99,0,49.236,0c4.289,0,6.393,2.201,6.393,5.621V17.15c0,3.417-2.104,5.652-6.393,5.652
			c-4.246,0-6.352-2.235-6.352-5.652V5.621z M45.94,17.308c0,2.014,1.072,3.229,3.295,3.229c2.264,0,3.295-1.215,3.295-3.229V5.492
			c0-2.044-1.032-3.257-3.295-3.257c-2.223,0-3.295,1.213-3.295,3.257V17.308z"/>
	</g>
</g>
</svg>