<!-- Generator: Adobe Illustrator 21.1.0, SVG Export Plug-In  -->
<svg version="1.1"
	 xmlns="http://www.w3.org/2000/svg" xmlns:xlink="http://www.w3.org/1999/xlink" xmlns:a="http://ns.adobe.com/AdobeSVGViewerExtensions/3.0/"
	 x="0px" y="0px" width="137.27px" height="57.754px" viewBox="0 0 137.27 57.754"
	 style="enable-background:new 0 0 137.27 57.754;" xml:space="preserve">
<defs>
</defs>
<g>
	<path d="M128.556,26.672c0.621-2.607,1.258-5.846,1.915-9.891c0.538,0.066,0.707-0.254,1.01-1.366
		c0.303-1.108,0.958-5.655,0.958-6.156c0-0.511-0.857-2.126-4.394-4.246c-3.532-2.12-12.771-4.795-23.627-4.995
		c-10.86-0.201-18.937,1.408-21.917,1.914c-2.976,0.507-9.223,1.715-13.867,1.72c-4.64-0.005-10.887-1.213-13.86-1.72
		C51.796,1.426,43.71-0.184,32.854,0.017c-10.856,0.2-20.098,2.875-23.632,4.995c-3.534,2.12-4.394,3.735-4.394,4.246
		c0,0.501,0.654,5.048,0.96,6.156c0.301,1.112,0.468,1.433,1.01,1.366c0.657,4.045,1.297,7.283,1.913,9.891
		c0.774-0.195,1.614-0.387,2.584-0.545c-0.069-0.315-0.139-0.635-0.206-0.964c-0.052-0.259-0.1-0.502-0.148-0.755
		c-0.014-0.062-0.026-0.129-0.038-0.191c-0.174-0.883-0.337-1.748-0.477-2.574c-0.017-0.104-0.029-0.205-0.048-0.314
		c-0.143-0.879-0.263-1.729-0.353-2.551c-0.017-0.153-0.029-0.301-0.043-0.449c-0.086-0.912-0.134-1.781-0.134-2.608
		c0.005-0.22,0.019-0.435,0.024-0.649c0.024-0.611,0.067-1.208,0.158-1.776c0.059-0.378,0.138-0.755,0.236-1.128
		c0.093-0.372,0.208-0.74,0.335-1.099c0.814-2.287,2.268-4.236,4.071-5.043c0.487-0.22,1.342-0.482,2.45-0.76
		c0.53-0.134,1.11-0.272,1.741-0.406c0.962-0.205,2.035-0.415,3.179-0.615c0.53-0.091,1.075-0.182,1.628-0.268
		c0.941-0.148,1.911-0.282,2.894-0.401c0.518-0.067,1.041-0.124,1.564-0.182c0.891-0.091,1.782-0.172,2.667-0.23
		c0.494-0.033,0.988-0.066,1.476-0.086c0.836-0.038,1.655-0.053,2.45-0.053c0.375,0,0.748,0.006,1.115,0.02
		c0.074,0.005,0.155,0.005,0.234,0.01c0.729,0.023,1.483,0.066,2.257,0.119c0.416,0.023,0.836,0.058,1.261,0.091
		c0.716,0.062,1.442,0.129,2.173,0.205c0.401,0.044,0.8,0.087,1.201,0.139c0.707,0.081,1.414,0.167,2.118,0.268
		c0.382,0.048,0.764,0.105,1.144,0.162c0.702,0.101,1.394,0.216,2.078,0.325c0.368,0.062,0.729,0.124,1.086,0.187
		c0.697,0.129,1.38,0.258,2.032,0.392c0.351,0.071,0.69,0.143,1.024,0.22c0.697,0.152,1.359,0.309,1.973,0.468
		c0.33,0.086,0.643,0.172,0.943,0.258c0.702,0.205,1.328,0.406,1.858,0.606c0.248,0.096,0.48,0.191,0.685,0.286
		c0.036,0.024,0.072,0.039,0.11,0.058c0.614,0.292,1.151,0.578,1.605,0.874c0.222,0.148,0.42,0.297,0.609,0.449
		c0.516,0.416,0.898,0.856,1.156,1.337c0.112,0.21,0.203,0.431,0.27,0.654c0.205,0.698,0.215,1.481,0.057,2.407
		c-0.033,0.205-0.072,0.42-0.122,0.636c-0.019,0.086-0.038,0.177-0.06,0.267c-0.181,0.798-0.435,1.939-0.757,3.286
		c-0.053,0.229-0.107,0.468-0.167,0.707c-0.27,1.118-0.585,2.35-0.929,3.625c-0.046,0.157-0.086,0.316-0.129,0.478
		c-0.372,1.347-0.778,2.732-1.22,4.079c-0.024,0.076-0.05,0.152-0.074,0.22c-0.043,0.143-0.091,0.277-0.134,0.41
		c1.146,0.22,2.121,0.482,3.038,0.731c0.176,0.043,0.346,0.095,0.518,0.143c0.551-1.228,1.015-2.34,1.328-3.237
		c1.56-4.476,3.768-5.646,5.631-5.66c1.865,0.015,4.079,1.185,5.633,5.66c0.318,0.897,0.778,2.01,1.33,3.237
		c0.177-0.048,0.354-0.095,0.528-0.143c0.914-0.249,1.884-0.507,3.028-0.731c-0.184-0.554-0.368-1.117-0.544-1.681
		c-0.014-0.062-0.033-0.114-0.053-0.172c-0.246-0.803-0.478-1.604-0.702-2.393c-0.021-0.09-0.05-0.181-0.074-0.267
		c-0.222-0.803-0.432-1.586-0.626-2.341c-0.034-0.129-0.062-0.253-0.093-0.377c-0.205-0.803-0.392-1.566-0.559-2.273
		c-0.043-0.167-0.081-0.324-0.114-0.483c-0.196-0.836-0.368-1.581-0.506-2.197c-0.045-0.21-0.093-0.41-0.131-0.592
		c-0.024-0.106-0.045-0.201-0.067-0.296c-0.165-0.727-0.241-1.371-0.227-1.954c0.01-0.334,0.048-0.654,0.125-0.955
		c0.363-1.413,1.519-2.445,3.788-3.506c0.095-0.037,0.198-0.086,0.301-0.129c0.547-0.233,1.225-0.463,2.006-0.697
		c1.022-0.301,2.216-0.597,3.532-0.873c0.538-0.12,1.099-0.23,1.674-0.344c0.984-0.187,2.021-0.368,3.08-0.535
		c0.528-0.082,1.065-0.163,1.603-0.239c0.943-0.134,1.903-0.258,2.854-0.368c0.519-0.061,1.034-0.119,1.547-0.172
		c0.903-0.09,1.796-0.167,2.67-0.225c0.501-0.037,0.996-0.071,1.48-0.1c0.452-0.02,0.893-0.038,1.321-0.053
		c0.38-0.014,0.767-0.02,1.158-0.02c0.446,0,0.9,0.006,1.366,0.015c0.74,0.024,1.5,0.058,2.273,0.11
		c0.416,0.023,0.84,0.057,1.263,0.09c0.719,0.062,1.445,0.13,2.161,0.211c0.404,0.043,0.798,0.091,1.194,0.143
		c0.711,0.086,1.409,0.182,2.099,0.287c0.38,0.053,0.76,0.109,1.13,0.172c0.709,0.115,1.39,0.234,2.049,0.349
		c0.368,0.071,0.721,0.139,1.067,0.205c0.712,0.143,1.383,0.287,1.994,0.431c0.354,0.076,0.683,0.157,0.993,0.233
		c0.771,0.2,1.411,0.382,1.894,0.55c0.198,0.071,0.375,0.143,0.519,0.205c0.102,0.043,0.198,0.096,0.298,0.152
		c0.502,0.263,0.967,0.607,1.399,1.027c0.179,0.172,0.349,0.358,0.511,0.554c0.372,0.43,0.711,0.917,1.01,1.447
		c0.117,0.2,0.227,0.406,0.33,0.616c0.282,0.573,0.523,1.18,0.712,1.811c0.065,0.21,0.122,0.425,0.175,0.64
		c0.084,0.339,0.153,0.678,0.21,1.023c0.065,0.396,0.107,0.807,0.139,1.231c0.012,0.206,0.012,0.425,0.021,0.64
		c0.028,0.875,0,1.791-0.079,2.766c-0.017,0.182-0.028,0.358-0.048,0.545c-0.103,1.031-0.253,2.111-0.444,3.248
		c-0.024,0.129-0.048,0.262-0.069,0.391c-0.172,0.984-0.365,1.992-0.578,3.048c-0.046,0.21-0.086,0.41-0.132,0.607
		c-0.014,0.061-0.028,0.129-0.041,0.19c-0.014,0.053-0.024,0.105-0.038,0.167C126.944,26.285,127.78,26.476,128.556,26.672z"/>
	<path d="M17.122,5.265l-6.522,5.803c-0.127,0.358-0.241,0.727-0.335,1.099l8.597-7.308C18.232,4.994,17.652,5.132,17.122,5.265z"/>
	<path d="M22.042,4.244L9.872,15.071c-0.005,0.215-0.019,0.43-0.024,0.649L23.67,3.976C23.116,4.062,22.571,4.153,22.042,4.244z"/>
	<path d="M26.564,3.575L9.982,18.328c0.014,0.148,0.026,0.296,0.043,0.449L28.128,3.393C27.605,3.451,27.083,3.508,26.564,3.575z"/>
	<path d="M30.796,3.164L10.378,21.328c0.019,0.109,0.031,0.21,0.048,0.314L32.271,3.078C31.784,3.097,31.29,3.131,30.796,3.164z"/>
	<path d="M34.722,3.025L10.904,24.217c0.012,0.062,0.024,0.129,0.038,0.191L36.071,3.054c-0.079-0.005-0.16-0.005-0.234-0.01
		C35.469,3.031,35.097,3.025,34.722,3.025z"/>
	<path d="M12.757,25.922c0.064-0.005,0.131-0.014,0.198-0.019L39.588,3.264c-0.425-0.033-0.845-0.067-1.261-0.091L12.757,25.922z"/>
	<path d="M16.778,25.697c0.067,0,0.129,0,0.191,0L42.963,3.608c-0.401-0.052-0.8-0.095-1.201-0.139L16.778,25.697z"/>
	<path d="M20.42,25.812c0.06,0.005,0.11,0.01,0.165,0.014l25.64-21.788c-0.38-0.057-0.762-0.114-1.144-0.162L20.42,25.812z"/>
	<path d="M23.706,26.247c0.043,0.009,0.083,0.019,0.124,0.023L49.389,4.55c-0.358-0.062-0.719-0.124-1.086-0.187L23.706,26.247z"/>
	<path d="M26.679,26.954c0.031,0.009,0.062,0.014,0.091,0.023L52.445,5.161c-0.334-0.077-0.673-0.148-1.024-0.22L26.679,26.954z"/>
	<path d="M29.657,27.66c0.026,0.005,0.048,0.005,0.069,0.01L55.361,5.887c-0.301-0.086-0.614-0.172-0.943-0.258L29.657,27.66z"/>
	<path d="M57.219,6.493L33.057,27.99c0.022,0,0.043,0,0.065,0L58.014,6.837c-0.038-0.018-0.074-0.033-0.11-0.058
		C57.699,6.684,57.467,6.589,57.219,6.493z"/>
	<path d="M36.912,27.914c0.024,0,0.05,0,0.074-0.005L60.228,8.16c-0.189-0.152-0.387-0.301-0.609-0.449L36.912,27.914z"/>
	<path d="M41.676,27.03c0.043-0.01,0.088-0.024,0.134-0.033c0.012-0.005,0.021-0.005,0.033-0.01l19.811-16.836
		c-0.067-0.224-0.158-0.444-0.27-0.654L41.676,27.03z"/>
	<path d="M61.711,12.558L46.628,25.979c0.072-0.01,0.133-0.02,0.203-0.024l14.698-12.494c0.021-0.09,0.041-0.181,0.06-0.267
		C61.639,12.978,61.678,12.763,61.711,12.558z"/>
	<path d="M50.714,25.702c0.06,0,0.125,0,0.184,0l9.708-8.248c0.06-0.239,0.114-0.478,0.167-0.707L50.714,25.702z"/>
	<path d="M54.387,25.788c0.055,0,0.11,0.01,0.165,0.01l4.996-4.241c0.043-0.162,0.083-0.32,0.129-0.478L54.387,25.788z"/>
	<path d="M79.669,6.65l-4.088,3.635c-0.077,0.301-0.115,0.621-0.125,0.955l6.219-5.287C80.894,6.187,80.216,6.417,79.669,6.65z"/>
	<path d="M57.706,26.189c0.045,0.005,0.091,0.015,0.134,0.023l0.413-0.357c0.024-0.067,0.05-0.144,0.074-0.22L57.706,26.189z"/>
	<path d="M85.206,5.08l-9.456,8.41c0.038,0.182,0.086,0.382,0.131,0.592L86.88,4.736C86.305,4.85,85.744,4.96,85.206,5.08z"/>
	<path d="M89.961,4.201L76.388,16.279c0.033,0.158,0.071,0.316,0.114,0.483l15.062-12.8C91.026,4.038,90.489,4.119,89.961,4.201z"/>
	<path d="M94.417,3.594L77.061,19.035c0.031,0.124,0.06,0.248,0.093,0.377l18.81-15.99C95.451,3.474,94.936,3.532,94.417,3.594z"/>
	<path d="M98.634,3.197L77.78,21.753c0.024,0.086,0.053,0.177,0.074,0.267l22.261-18.922C99.63,3.126,99.136,3.16,98.634,3.197z"/>
	<path d="M102.594,3.025L78.556,24.413c0.02,0.058,0.039,0.109,0.053,0.172L101.937,4.76c-0.301-0.053-0.6-0.106-0.886-0.158
		c0.332,0.029,0.647,0.053,0.975,0.077l1.934-1.639C103.494,3.031,103.04,3.025,102.594,3.025z"/>
	<path d="M104.024,5.108L80.5,26.041c0.066-0.014,0.131-0.018,0.2-0.028L105.08,5.29C104.721,5.227,104.368,5.17,104.024,5.108z"/>
	<path d="M104.282,4.879c0.394,0.033,0.778,0.072,1.155,0.109l2.059-1.748c-0.423-0.033-0.848-0.066-1.263-0.09L104.282,4.879z"/>
	<path d="M107.67,5.222c0.38,0.043,0.745,0.086,1.113,0.129l2.068-1.758c-0.396-0.052-0.791-0.1-1.194-0.143L107.67,5.222z"/>
	<path d="M108.174,5.867c-0.341-0.071-0.676-0.133-1.01-0.195L84.641,25.707c0.067,0,0.129-0.005,0.191-0.005L108.174,5.867z"/>
	<path d="M110.976,5.634c0.36,0.052,0.711,0.104,1.058,0.157l2.047-1.738c-0.37-0.062-0.75-0.119-1.13-0.172L110.976,5.634z"/>
	<path d="M111.159,6.536c-0.317-0.081-0.628-0.152-0.945-0.23L88.349,25.764c0.055,0.005,0.11,0.005,0.169,0.01L111.159,6.536z"/>
	<path d="M113.996,7.329c-0.286-0.091-0.575-0.182-0.864-0.263L91.706,26.133c0.045,0.009,0.088,0.014,0.134,0.024L113.996,7.329z"
		/>
	<path d="M114.159,6.154c0.339,0.066,0.668,0.129,0.989,0.195l2.049-1.743c-0.346-0.066-0.7-0.134-1.067-0.205L114.159,6.154z"/>
	<path d="M117.175,6.828c0.306,0.08,0.602,0.162,0.888,0.248l2.121-1.806c-0.311-0.076-0.64-0.157-0.993-0.233L117.175,6.828z"/>
	<path d="M116.652,8.274c-0.253-0.1-0.509-0.2-0.769-0.301L94.728,26.796c0.033,0.01,0.064,0.015,0.1,0.028L116.652,8.274z"/>
	<path d="M118.424,9.072L97.667,27.541c0.024,0,0.048,0.01,0.072,0.015l21.346-18.145C118.865,9.297,118.645,9.181,118.424,9.072z"
		/>
	<path d="M122.077,5.82l-2.142,1.91c0.26,0.1,0.511,0.21,0.747,0.324l2.211-1.877c-0.1-0.057-0.196-0.109-0.298-0.152
		C122.452,5.963,122.275,5.891,122.077,5.82z"/>
	<path d="M122.316,8.967c0.2,0.135,0.389,0.277,0.57,0.421l1.918-1.629c-0.163-0.195-0.332-0.382-0.511-0.554L122.316,8.967z"/>
	<path d="M121.258,10.772c-0.179-0.134-0.358-0.263-0.544-0.382l-19.747,17.566c0.021,0,0.043,0.004,0.062,0.004L121.258,10.772z"/>
	<path d="M104.795,27.967l18.316-15.57c-0.134-0.139-0.277-0.277-0.418-0.416l-17.967,15.986
		C104.748,27.967,104.774,27.967,104.795,27.967z"/>
	<path d="M124.138,10.696c0.129,0.172,0.244,0.354,0.354,0.53l1.652-1.404c-0.103-0.21-0.212-0.416-0.33-0.616L124.138,10.696z"/>
	<path d="M124.298,13.91l-15.066,13.402c0.048-0.01,0.093-0.024,0.141-0.034l15.209-12.924
		C124.492,14.207,124.394,14.058,124.298,13.91z"/>
	<path d="M125.237,13.074c0.047,0.201,0.093,0.401,0.134,0.611l1.66-1.413c-0.053-0.215-0.11-0.43-0.175-0.64L125.237,13.074z"/>
	<path d="M125.566,16.136c0,0.196-0.005,0.388-0.01,0.588c-0.041-0.153-0.093-0.301-0.141-0.454l-11.057,9.839
		c0.064-0.01,0.131-0.024,0.196-0.028L127.4,15.166c-0.01-0.215-0.01-0.434-0.021-0.64L125.566,16.136z"/>
	<path d="M118.564,25.721c0.06-0.005,0.127-0.005,0.189-0.005l8.52-7.24c0.02-0.187,0.031-0.363,0.048-0.545L118.564,25.721z"/>
	<path d="M122.304,25.745c0.057,0.005,0.117,0.005,0.172,0.01l4.284-3.64c0.021-0.129,0.046-0.262,0.069-0.391L122.304,25.745z"/>
	<path d="M125.698,26.084c0.046,0.006,0.098,0.015,0.141,0.019l0.172-0.143c0.012-0.062,0.026-0.129,0.041-0.19L125.698,26.084z"/>
	<path d="M120.114,28.281c-4.504,0-6.792,0.616-9,1.213c-2.099,0.568-4.084,1.103-8.155,1.103c-4.071,0-6.059-0.535-8.157-1.103
		c-2.214-0.597-4.497-1.213-9.003-1.213c-4.501,0-6.789,0.616-9,1.213c-2.099,0.568-4.081,1.103-8.157,1.103
		c-4.074,0-6.059-0.535-8.158-1.103c-2.211-0.597-4.497-1.213-9.003-1.213c-4.501,0-6.787,0.616-8.998,1.213
		c-2.099,0.568-4.083,1.103-8.162,1.103c-4.074,0-6.058-0.535-8.157-1.103c-2.212-0.597-4.499-1.213-9.003-1.213
		c-4.501,0-6.792,0.616-8.998,1.213C6.061,30.062,4.079,30.597,0,30.597v3.233c4.504,0,6.789-0.621,9.003-1.218
		c2.099-0.568,4.083-1.099,8.157-1.099c4.079,0,6.061,0.53,8.162,1.099c2.209,0.597,4.497,1.218,8.998,1.218
		c4.506,0,6.794-0.621,9.003-1.218c2.099-0.568,4.083-1.099,8.157-1.099c4.079,0,6.061,0.53,8.158,1.099
		c2.213,0.597,4.499,1.218,9.003,1.218c4.503,0,6.792-0.621,9.002-1.218c2.097-0.568,4.083-1.099,8.155-1.099
		c4.076,0,6.061,0.53,8.16,1.099c2.209,0.597,4.494,1.218,9,1.218c4.501,0,6.789-0.621,9-1.218c2.097-0.568,4.081-1.099,8.155-1.099
		c4.072,0,6.056,0.53,8.155,1.099c2.211,0.597,4.497,1.218,9.001,1.218v-3.233c-4.072,0-6.056-0.535-8.158-1.103
		C126.903,28.897,124.616,28.281,120.114,28.281z"/>
	<path d="M128.943,38.044c-2.169-0.588-4.411-1.194-8.829-1.194c-4.417,0-6.66,0.607-8.833,1.194
		c-2.145,0.577-4.16,1.122-8.322,1.122c-4.162,0-6.185-0.545-8.327-1.122c-2.17-0.588-4.415-1.194-8.833-1.194
		c-4.415,0-6.66,0.607-8.829,1.194c-2.144,0.577-4.169,1.122-8.329,1.122c-4.16,0-6.183-0.545-8.325-1.122
		c-2.171-0.588-4.413-1.194-8.836-1.194c-4.417,0-6.657,0.607-8.831,1.194c-2.142,0.577-4.165,1.122-8.33,1.122
		c-4.16,0-6.185-0.545-8.327-1.122c-2.171-0.588-4.416-1.194-8.833-1.194c-4.418,0-6.662,0.607-8.833,1.194
		C6.185,38.621,4.16,39.166,0,39.166v1.939c4.418,0,6.663-0.603,8.833-1.194c2.143-0.573,4.167-1.122,8.327-1.122
		c4.165,0,6.185,0.549,8.33,1.122c2.17,0.592,4.413,1.194,8.831,1.194c4.423,0,6.665-0.603,8.836-1.194
		c2.142-0.573,4.165-1.122,8.324-1.122c4.165,0,6.19,0.549,8.33,1.122c2.171,0.592,4.413,1.194,8.831,1.194
		c4.418,0,6.663-0.603,8.835-1.194c2.14-0.573,4.165-1.122,8.322-1.122c4.162,0,6.183,0.549,8.327,1.122
		c2.168,0.592,4.415,1.194,8.833,1.194c4.416,0,6.66-0.603,8.829-1.194c2.144-0.573,4.169-1.122,8.327-1.122
		c4.16,0,6.183,0.549,8.322,1.122c2.171,0.592,4.416,1.194,8.834,1.194v-1.939C133.112,39.166,131.087,38.621,128.943,38.044z"/>
	<polygon points="23.235,48.846 24.573,44.94 9.504,44.94 5.094,57.754 11.279,57.754 12.848,53.221 21.731,53.221 22.903,49.811 
		14.018,49.811 14.352,48.846 	"/>
	<path d="M33.585,44.94h-6.316l-3.24,9.385c-0.11,0.325-0.153,0.683-0.124,1.079c0.026,0.396,0.109,0.77,0.241,1.113
		c0.131,0.354,0.298,0.645,0.501,0.883c0.201,0.239,0.428,0.354,0.676,0.354h9.201l1.337-3.868h-5.352L33.585,44.94z"/>
	<path d="M54.547,48.388c0.11-0.334,0.153-0.707,0.129-1.108c-0.031-0.401-0.105-0.778-0.234-1.117
		c-0.124-0.339-0.289-0.631-0.492-0.869c-0.203-0.234-0.42-0.354-0.657-0.354H42.884c-0.196,0-0.463,0.124-0.802,0.377
		c-0.344,0.249-0.688,0.545-1.037,0.884c-0.351,0.344-0.661,0.702-0.94,1.07c-0.28,0.367-0.461,0.663-0.545,0.888l-2.34,6.772
		c-0.069,0.22-0.086,0.492-0.043,0.816c0.043,0.32,0.129,0.626,0.253,0.927c0.124,0.306,0.277,0.559,0.458,0.765
		c0.179,0.21,0.375,0.314,0.583,0.314h10.412c0.236,0,0.542-0.114,0.907-0.354c0.373-0.238,0.735-0.529,1.099-0.883
		c0.365-0.344,0.695-0.717,0.993-1.113c0.301-0.397,0.506-0.754,0.616-1.079L54.547,48.388z M46.289,53.99h-2.693l1.841-5.33h2.694
		L46.289,53.99z"/>
	<path d="M68.03,44.94h-6.125l-8.17,12.813h14.591L68.03,44.94z M62.991,54.76H60.82l2.672-4.843L62.991,54.76z"/>
	<polygon points="88.072,44.94 73.004,44.94 71.666,48.846 76.371,48.846 73.295,57.754 79.091,57.754 82.159,48.846 86.735,48.846 
			"/>
	<polygon points="96.705,44.94 90.916,44.94 86.506,57.754 92.294,57.754 	"/>
	<polygon points="114.307,44.94 107.995,44.94 106.386,49.621 105.505,44.94 99.716,44.94 95.303,57.754 101.096,57.754 
		102.601,53.385 103.584,57.754 109.892,57.754 	"/>
	<path d="M119.3,44.94h-0.024c-0.191,0-0.463,0.124-0.803,0.377c-0.341,0.249-0.68,0.545-1.022,0.884
		c-0.341,0.344-0.654,0.702-0.929,1.07c-0.28,0.367-0.461,0.663-0.542,0.888l-2.345,6.772c-0.069,0.22-0.083,0.492-0.043,0.816
		c0.043,0.32,0.129,0.626,0.253,0.927c0.125,0.306,0.277,0.559,0.461,0.765c0.177,0.21,0.375,0.314,0.583,0.314h12.859l2.087-6.065
		h-6.293l-0.795,2.302h-2.737l1.82-5.268h9.05l1.292-3.782H119.3z"/>
</g>
</svg>