<!-- Generator: Adobe Illustrator 21.1.0, SVG Export Plug-In  -->
<svg version="1.1"
	 xmlns="http://www.w3.org/2000/svg" xmlns:xlink="http://www.w3.org/1999/xlink" xmlns:a="http://ns.adobe.com/AdobeSVGViewerExtensions/3.0/"
	 x="0px" y="0px" width="78.847px" height="83.578px" viewBox="0 0 78.847 83.578"
	 style="enable-background:new 0 0 78.847 83.578;" xml:space="preserve">
<defs>
</defs>
<g>
	<g>
		<path d="M32.154,39.016c0.902,0,1.311-0.597,1.311-1.591v-5.838c0-1.011-0.408-1.612-1.311-1.612
			c-0.881,0-1.307,0.601-1.307,1.612v5.838C30.848,38.419,31.273,39.016,32.154,39.016"/>
		<path d="M33.985,48.83c-0.114,0-0.205,0.031-0.267,0.101c-0.061,0.069-0.092,0.162-0.092,0.271v6.744
			c0,0.109,0.031,0.203,0.089,0.27c0.058,0.067,0.146,0.104,0.269,0.104c0.124,0,0.21-0.036,0.273-0.104
			c0.059-0.066,0.091-0.16,0.091-0.27v-6.744c0-0.109-0.031-0.202-0.089-0.271C34.203,48.861,34.114,48.83,33.985,48.83"/>
		<path d="M28.508,48.928h-0.361v3.685h0.361c0.124,0,0.215-0.038,0.271-0.108c0.058-0.068,0.084-0.157,0.084-0.265v-2.938
			c0-0.109-0.026-0.2-0.084-0.268C28.718,48.964,28.627,48.928,28.508,48.928"/>
		<path d="M45.24,33.882c0.15,0,0.266-0.046,0.342-0.135c0.076-0.086,0.114-0.195,0.114-0.341v-3.198
			c0-0.141-0.038-0.255-0.109-0.341c-0.077-0.089-0.187-0.132-0.347-0.132c-0.155,0-0.27,0.043-0.346,0.132
			c-0.074,0.086-0.115,0.2-0.115,0.341v3.198c0,0.146,0.036,0.255,0.115,0.341C44.961,33.836,45.083,33.882,45.24,33.882"/>
		<path d="M23.297,52.861c0.058-0.071,0.086-0.157,0.086-0.268v-3.291c0-0.109-0.024-0.2-0.081-0.268
			c-0.058-0.071-0.148-0.107-0.277-0.107h-0.358v4.038h0.358C23.151,52.966,23.244,52.933,23.297,52.861"/>
		<path d="M38.294,39.016c0.899,0,1.311-0.597,1.311-1.591v-5.838c0-1.011-0.411-1.612-1.311-1.612
			c-0.884,0-1.312,0.601-1.312,1.612v5.838C36.982,38.419,37.41,39.016,38.294,39.016"/>
		<path d="M63.446,56.319c0.122,0,0.208-0.036,0.268-0.104c0.064-0.066,0.089-0.16,0.089-0.27v-6.744c0-0.109-0.024-0.2-0.082-0.271
			c-0.057-0.069-0.15-0.101-0.274-0.101c-0.117,0-0.208,0.031-0.269,0.101c-0.062,0.071-0.091,0.162-0.091,0.271v6.744
			c0,0.109,0.028,0.203,0.086,0.27C63.234,56.283,63.322,56.319,63.446,56.319"/>
		<path d="M49.488,39.13c0.153,0,0.268-0.038,0.349-0.124c0.074-0.089,0.11-0.203,0.11-0.344v-3.195c0-0.144-0.033-0.258-0.11-0.344
			c-0.071-0.089-0.187-0.129-0.349-0.129c-0.152,0-0.263,0.04-0.342,0.129c-0.073,0.086-0.111,0.2-0.111,0.344v3.195
			c0,0.141,0.038,0.255,0.109,0.344C49.217,39.092,49.331,39.13,49.488,39.13"/>
		<rect y="22.178" width="78.847" height="2.872"/>
		<path d="M0,60.307h78.842V26.358H0V60.307z M29.697,52.24c0,0.182-0.036,0.329-0.11,0.444c-0.071,0.114-0.169,0.21-0.299,0.281
			c0.13,0.067,0.228,0.16,0.299,0.275c0.074,0.111,0.11,0.26,0.11,0.437v3.104c0,0.038-0.01,0.071-0.031,0.093
			c-0.021,0.026-0.055,0.041-0.094,0.041h-0.346c-0.119,0-0.208-0.036-0.275-0.105c-0.057-0.066-0.088-0.155-0.088-0.263v-2.87
			c0-0.11-0.026-0.203-0.079-0.268c-0.057-0.071-0.15-0.104-0.276-0.104h-0.358v3.242c0,0.107-0.033,0.196-0.091,0.263
			c-0.063,0.069-0.15,0.105-0.272,0.105h-0.344c-0.043,0-0.071-0.015-0.096-0.041c-0.018-0.021-0.033-0.055-0.033-0.093v-8.415
			c0-0.043,0.015-0.072,0.033-0.099c0.024-0.021,0.053-0.035,0.096-0.035h1.079c0.177,0,0.34,0.026,0.479,0.076
			c0.147,0.058,0.271,0.124,0.372,0.215c0.107,0.091,0.187,0.205,0.239,0.337c0.057,0.129,0.086,0.274,0.086,0.439V52.24z
			 M35.178,55.946c0,0.332-0.104,0.592-0.311,0.783c-0.213,0.191-0.5,0.284-0.882,0.284c-0.177,0-0.344-0.026-0.487-0.073
			c-0.143-0.051-0.271-0.122-0.375-0.216c-0.103-0.093-0.184-0.202-0.24-0.334c-0.058-0.129-0.086-0.277-0.086-0.444v-6.744
			c0-0.331,0.104-0.592,0.312-0.783c0.213-0.19,0.504-0.286,0.876-0.286c0.177,0,0.345,0.026,0.487,0.076
			c0.148,0.051,0.274,0.122,0.382,0.21c0.105,0.099,0.182,0.208,0.239,0.34c0.057,0.126,0.084,0.276,0.084,0.443V55.946z
			 M40.094,48.569c0,0.107-0.028,0.193-0.086,0.261c-0.057,0.067-0.129,0.098-0.229,0.098h-0.387v7.764
			c0,0.06-0.02,0.114-0.063,0.157c-0.043,0.043-0.096,0.067-0.158,0.067H38.79c-0.066,0-0.114-0.024-0.162-0.067
			c-0.043-0.043-0.062-0.098-0.062-0.157v-7.764h-0.388c-0.093,0-0.172-0.03-0.229-0.098c-0.057-0.067-0.086-0.153-0.086-0.261
			v-0.212c0-0.041,0.015-0.071,0.039-0.093c0.023-0.021,0.055-0.031,0.09-0.031h1.971c0.041,0,0.071,0.01,0.098,0.031
			c0.021,0.021,0.033,0.052,0.033,0.093V48.569z M44.935,48.569c0,0.107-0.031,0.193-0.093,0.261
			c-0.058,0.067-0.132,0.098-0.225,0.098h-0.765v3.344h0.827c0.035,0,0.066,0.009,0.093,0.03c0.026,0.02,0.036,0.053,0.036,0.092
			v0.21c0,0.109-0.029,0.195-0.086,0.26c-0.062,0.069-0.137,0.103-0.229,0.103h-0.641v3.255h0.765c0.093,0,0.167,0.031,0.225,0.099
			c0.062,0.066,0.093,0.152,0.093,0.262v0.206c0,0.043-0.017,0.076-0.04,0.098c-0.024,0.017-0.056,0.031-0.096,0.031h-1.652
			c-0.043,0-0.072-0.015-0.094-0.041c-0.021-0.021-0.031-0.055-0.031-0.093v-8.415c0-0.043,0.01-0.072,0.031-0.099
			c0.021-0.021,0.051-0.035,0.094-0.035h1.652c0.04,0,0.071,0.01,0.096,0.031c0.023,0.021,0.04,0.052,0.04,0.093V48.569z
			 M50.238,51.978c0,0.038-0.01,0.066-0.028,0.096c-0.024,0.023-0.053,0.038-0.093,0.038h-0.352c-0.119,0-0.205-0.038-0.268-0.106
			c-0.06-0.066-0.091-0.155-0.091-0.263v-2.541c0-0.114-0.026-0.2-0.088-0.271c-0.056-0.069-0.145-0.101-0.27-0.101
			c-0.119,0-0.212,0.031-0.27,0.101c-0.059,0.071-0.093,0.157-0.093,0.271v6.744c0,0.115,0.033,0.203,0.091,0.27
			c0.06,0.067,0.147,0.104,0.272,0.104c0.119,0,0.211-0.036,0.27-0.104c0.062-0.066,0.088-0.154,0.088-0.27v-2.462
			c0-0.104,0.031-0.196,0.089-0.261c0.057-0.071,0.146-0.107,0.26-0.111h0.361c0.04,0,0.068,0.014,0.093,0.035
			c0.019,0.029,0.028,0.058,0.028,0.096v2.703c0,0.332-0.105,0.592-0.312,0.783c-0.208,0.191-0.502,0.284-0.877,0.284
			c-0.182,0-0.344-0.026-0.486-0.073c-0.148-0.051-0.272-0.122-0.378-0.216c-0.105-0.093-0.187-0.202-0.243-0.334
			c-0.058-0.129-0.084-0.277-0.084-0.444v-6.744c0-0.331,0.107-0.592,0.312-0.783c0.211-0.19,0.502-0.286,0.879-0.286
			c0.177,0,0.342,0.026,0.487,0.076c0.148,0.051,0.271,0.122,0.378,0.21c0.105,0.099,0.186,0.208,0.243,0.34
			c0.055,0.126,0.081,0.276,0.081,0.443V51.978z M67.738,48.367c0-0.043,0.009-0.072,0.028-0.099
			c0.019-0.021,0.052-0.035,0.095-0.035h0.345c0.107,0,0.19,0.028,0.253,0.083c0.066,0.058,0.1,0.13,0.107,0.223
			c0.007,0.062,0.026,0.2,0.058,0.405c0.026,0.201,0.064,0.449,0.112,0.731c0.043,0.284,0.095,0.592,0.147,0.921
			c0.053,0.332,0.11,0.664,0.165,0.979c0.055,0.322,0.105,0.621,0.162,0.899c0.051,0.279,0.094,0.506,0.139,0.683l-0.064-4.609
			c0-0.093,0.033-0.169,0.102-0.228c0.065-0.055,0.15-0.086,0.256-0.086h0.349c0.043,0,0.071,0.014,0.096,0.035
			c0.019,0.026,0.028,0.056,0.028,0.099v8.415c0,0.038-0.01,0.071-0.028,0.093c-0.024,0.026-0.053,0.041-0.096,0.041h-0.349
			c-0.106,0-0.187-0.028-0.246-0.076c-0.058-0.058-0.093-0.124-0.105-0.213c0-0.046-0.017-0.165-0.045-0.347
			c-0.036-0.182-0.071-0.4-0.12-0.658c-0.047-0.258-0.1-0.543-0.159-0.854c-0.058-0.31-0.114-0.623-0.172-0.934
			c-0.058-0.311-0.112-0.611-0.165-0.893c-0.048-0.287-0.091-0.533-0.127-0.74l0.062,4.346c0.007,0.107-0.023,0.196-0.084,0.263
			c-0.064,0.069-0.157,0.105-0.276,0.105h-0.345c-0.043,0-0.076-0.015-0.095-0.041c-0.02-0.021-0.028-0.055-0.028-0.093V48.367z
			 M62.255,49.202c0-0.331,0.107-0.592,0.316-0.783c0.205-0.19,0.501-0.286,0.876-0.286c0.177,0,0.342,0.026,0.485,0.076
			c0.147,0.051,0.272,0.122,0.377,0.21c0.105,0.099,0.188,0.208,0.246,0.34c0.055,0.126,0.078,0.276,0.078,0.443v6.744
			c0,0.332-0.1,0.592-0.311,0.783c-0.209,0.191-0.501,0.284-0.876,0.284c-0.182,0-0.344-0.026-0.489-0.073
			c-0.148-0.051-0.272-0.122-0.373-0.216c-0.109-0.093-0.19-0.202-0.248-0.334c-0.053-0.129-0.081-0.277-0.081-0.444V49.202z
			 M58.324,48.548c0-0.093,0.033-0.169,0.103-0.228c0.067-0.055,0.15-0.086,0.261-0.086h0.344c0.04,0,0.071,0.014,0.091,0.035
			c0.023,0.026,0.033,0.056,0.033,0.099v8.324c0,0.06-0.024,0.114-0.067,0.157c-0.043,0.043-0.095,0.067-0.157,0.067h-0.384
			c-0.058,0-0.113-0.024-0.16-0.067c-0.041-0.043-0.062-0.098-0.062-0.157V48.548z M53.166,48.357c0-0.041,0.015-0.071,0.036-0.093
			c0.026-0.021,0.058-0.031,0.093-0.031h1.975c0.036,0,0.067,0.01,0.094,0.031c0.021,0.021,0.035,0.052,0.035,0.093v0.212
			c0,0.107-0.028,0.193-0.088,0.261c-0.06,0.067-0.134,0.098-0.23,0.098h-0.382v7.764c0,0.06-0.023,0.114-0.066,0.157
			c-0.043,0.043-0.099,0.067-0.16,0.067h-0.385c-0.062,0-0.115-0.024-0.155-0.067c-0.046-0.043-0.069-0.098-0.069-0.157v-7.764
			h-0.382c-0.096,0-0.172-0.03-0.229-0.098c-0.057-0.067-0.086-0.153-0.086-0.261V48.357z M50.109,34.204
			c0.187,0.059,0.347,0.152,0.484,0.269c0.132,0.119,0.236,0.263,0.307,0.428c0.068,0.164,0.108,0.356,0.108,0.566v3.195
			c0,0.42-0.135,0.752-0.401,0.993c-0.263,0.241-0.638,0.365-1.118,0.365c-0.227,0-0.435-0.031-0.621-0.098
			c-0.186-0.062-0.344-0.152-0.477-0.272c-0.139-0.119-0.237-0.26-0.307-0.425c-0.071-0.167-0.109-0.354-0.109-0.563v-3.195
			c0-0.423,0.136-0.755,0.396-0.998c0.27-0.239,0.64-0.363,1.117-0.363C49.718,34.105,49.926,34.14,50.109,34.204 M47.92,29.101
			c0.078-0.081,0.177-0.122,0.296-0.122h0.423c0.053,0,0.096,0.017,0.126,0.05c0.031,0.029,0.041,0.07,0.031,0.12l-1.872,10.45
			c-0.01,0.129-0.062,0.231-0.139,0.31c-0.081,0.081-0.177,0.124-0.291,0.124h-0.426c-0.057,0-0.098-0.012-0.129-0.043
			c-0.028-0.033-0.043-0.076-0.028-0.124l1.868-10.454C47.793,29.292,47.844,29.187,47.92,29.101 M43.724,30.208
			c0-0.42,0.129-0.749,0.396-0.99c0.268-0.244,0.638-0.363,1.12-0.363c0.223,0,0.43,0.031,0.619,0.093
			c0.186,0.064,0.346,0.153,0.479,0.27c0.136,0.121,0.236,0.265,0.308,0.428c0.072,0.164,0.105,0.352,0.105,0.562v3.198
			c0,0.42-0.129,0.752-0.396,0.991c-0.27,0.243-0.64,0.367-1.115,0.367c-0.234,0-0.441-0.033-0.628-0.098
			c-0.182-0.06-0.342-0.15-0.473-0.27c-0.134-0.12-0.239-0.264-0.311-0.43c-0.067-0.163-0.105-0.35-0.105-0.562V30.208z
			 M35.768,31.648c0-1.688,0.835-2.777,2.526-2.777c1.7,0,2.54,1.089,2.54,2.777v5.695c0,1.688-0.84,2.792-2.54,2.792
			c-1.691,0-2.526-1.104-2.526-2.792V31.648z M29.63,31.648c0-1.688,0.841-2.777,2.524-2.777c1.707,0,2.541,1.089,2.541,2.777v5.695
			c0,1.688-0.834,2.792-2.541,2.792c-1.684,0-2.524-1.104-2.524-2.792V31.648z M25.116,30.452c1.204-0.048,1.61-0.697,1.896-1.469
			h0.851v11.042h-1.214v-9.038c-0.41,0.253-0.948,0.439-1.533,0.473V30.452z M24.725,43.257h26.644v1.304H24.725V43.257z
			 M21.836,48.367c0-0.043,0.009-0.072,0.028-0.099c0.021-0.021,0.053-0.035,0.096-0.035h1.069c0.172,0,0.334,0.026,0.483,0.076
			c0.148,0.048,0.272,0.119,0.377,0.213c0.11,0.093,0.191,0.203,0.244,0.336c0.055,0.129,0.081,0.277,0.081,0.442v3.293
			c0,0.329-0.104,0.592-0.311,0.78c-0.21,0.189-0.499,0.285-0.874,0.285h-0.363v2.889c0,0.107-0.028,0.196-0.09,0.263
			c-0.058,0.069-0.153,0.105-0.27,0.105H21.96c-0.043,0-0.074-0.015-0.096-0.041c-0.02-0.021-0.028-0.055-0.028-0.093V48.367z
			 M11.941,48.283c0.031-0.031,0.07-0.05,0.127-0.05h0.306c0.103,0,0.191,0.031,0.253,0.091c0.072,0.06,0.11,0.134,0.119,0.22
			l0.378,6.514l0.382-6.514c0.01-0.086,0.048-0.16,0.119-0.22c0.064-0.06,0.153-0.091,0.254-0.091h0.306
			c0.058,0,0.101,0.019,0.126,0.05c0.026,0.033,0.039,0.069,0.031,0.105l-0.74,8.399c-0.005,0.036-0.015,0.066-0.038,0.088
			c-0.019,0.026-0.05,0.041-0.086,0.041h-0.7c-0.04,0-0.068-0.015-0.088-0.041c-0.022-0.021-0.031-0.052-0.033-0.088l-0.745-8.399
			C11.901,48.353,11.916,48.316,11.941,48.283 M6.576,48.367c0-0.043,0.015-0.072,0.028-0.099c0.024-0.021,0.053-0.035,0.099-0.035
			h0.346c0.105,0,0.196,0.031,0.261,0.086c0.061,0.06,0.098,0.136,0.098,0.228v7.399c0,0.115,0.028,0.203,0.086,0.27
			c0.06,0.067,0.148,0.104,0.273,0.104c0.119,0,0.212-0.036,0.271-0.104c0.061-0.066,0.091-0.154,0.091-0.27v-7.399
			c0-0.093,0.029-0.169,0.099-0.228c0.066-0.055,0.15-0.086,0.26-0.086h0.347c0.04,0,0.071,0.014,0.093,0.035
			c0.022,0.026,0.029,0.056,0.029,0.099v7.579c0,0.332-0.101,0.592-0.31,0.783c-0.211,0.191-0.497,0.284-0.879,0.284
			c-0.182,0-0.344-0.026-0.487-0.073c-0.148-0.051-0.273-0.122-0.375-0.216c-0.108-0.093-0.187-0.202-0.246-0.334
			c-0.053-0.129-0.081-0.277-0.081-0.444V48.367z"/>
		<rect y="61.618" width="78.847" height="4.022"/>
	</g>
	<g>
		<path d="M8.121,0.188c3.002,0,4.281,1.775,4.281,4.664v2.293c0,3.027-1.418,4.613-4.446,4.613H6.074v7.527h-2.13V0.188H8.121z
			 M7.956,9.849c1.581,0,2.348-0.738,2.348-2.565V4.745c0-1.746-0.628-2.619-2.183-2.619H6.074v7.723H7.956z"/>
		<path d="M24.901,4.8c0-2.918,1.447-4.8,4.365-4.8c2.947,0,4.395,1.882,4.395,4.8v9.877c0,2.893-1.447,4.805-4.395,4.805
			c-2.918,0-4.365-1.912-4.365-4.805V4.8z M27.003,14.786c0,1.746,0.735,2.756,2.264,2.756c1.558,0,2.265-1.01,2.265-2.756V4.692
			c0-1.722-0.707-2.758-2.265-2.758c-1.528,0-2.264,1.036-2.264,2.758V14.786z"/>
		<path d="M46.594,19.286V0.188h2.128v17.163h5.457v1.935H46.594z"/>
		<path d="M68.393,12.441L64.356,0.188h2.211l2.971,9.388l3.005-9.388h2.018l-4.065,12.253v6.845h-2.103V12.441z"/>
	</g>
	<g>
		<path d="M5.893,77.957c0-0.175,0.049-0.311,0.142-0.423c0.093-0.105,0.232-0.162,0.413-0.172h0.575
			c0.064,0,0.114,0.021,0.145,0.062c0.036,0.038,0.053,0.089,0.053,0.148v4.306c0,0.527-0.167,0.943-0.499,1.246
			c-0.332,0.304-0.8,0.454-1.399,0.454c-0.289,0-0.549-0.038-0.781-0.119c-0.229-0.079-0.43-0.191-0.597-0.339
			c-0.167-0.148-0.296-0.328-0.387-0.535c-0.086-0.206-0.134-0.439-0.134-0.707V71.13c0-0.528,0.167-0.943,0.499-1.244
			c0.332-0.304,0.8-0.457,1.399-0.457c0.282,0,0.542,0.039,0.776,0.12c0.233,0.078,0.434,0.19,0.601,0.339
			c0.167,0.148,0.296,0.329,0.387,0.535c0.086,0.205,0.134,0.439,0.134,0.707v4.427c0,0.058-0.017,0.11-0.053,0.146
			c-0.031,0.041-0.081,0.061-0.145,0.061H6.469c-0.191,0-0.337-0.056-0.43-0.163c-0.098-0.11-0.146-0.248-0.146-0.42v-4.05
			c0-0.18-0.045-0.32-0.138-0.431c-0.091-0.109-0.234-0.165-0.433-0.165c-0.191,0-0.337,0.056-0.43,0.165
			c-0.098,0.11-0.141,0.251-0.141,0.431v10.748c0,0.179,0.043,0.322,0.136,0.432c0.093,0.107,0.236,0.16,0.435,0.16
			c0.191,0,0.332-0.053,0.43-0.16c0.096-0.109,0.141-0.253,0.141-0.432V77.957z"/>
		<path d="M14.423,69.587c0.06,0,0.106,0.019,0.139,0.057c0.033,0.043,0.053,0.092,0.058,0.139l1.186,13.393
			c0.007,0.06-0.012,0.114-0.053,0.167c-0.045,0.052-0.109,0.081-0.202,0.081h-0.482c-0.168,0-0.307-0.051-0.414-0.146
			c-0.107-0.093-0.169-0.213-0.182-0.352l-0.109-1.886h-0.996l-0.109,1.886c-0.015,0.139-0.076,0.259-0.184,0.352
			c-0.108,0.095-0.246,0.146-0.408,0.146h-0.485c-0.093,0-0.16-0.029-0.203-0.081c-0.043-0.053-0.062-0.107-0.055-0.167
			l1.187-13.393c0.005-0.047,0.026-0.096,0.058-0.139c0.033-0.038,0.081-0.057,0.139-0.057H14.423z M13.425,79.934h0.869
			l-0.435-7.393L13.425,79.934z"/>
		<path d="M22.428,69.587c0.281,0,0.539,0.04,0.768,0.124c0.23,0.081,0.431,0.196,0.593,0.339c0.167,0.148,0.293,0.325,0.382,0.535
			c0.089,0.21,0.134,0.444,0.134,0.702v4.681c0,0.291-0.058,0.529-0.174,0.714c-0.115,0.184-0.275,0.332-0.479,0.446
			c0.203,0.109,0.363,0.256,0.479,0.438c0.116,0.182,0.174,0.413,0.174,0.697v4.95c0,0.06-0.015,0.107-0.051,0.15
			c-0.03,0.038-0.083,0.06-0.144,0.06h-0.555c-0.191,0-0.337-0.055-0.43-0.167c-0.098-0.107-0.146-0.246-0.146-0.418v-4.575
			c0-0.18-0.046-0.322-0.134-0.428c-0.088-0.109-0.234-0.167-0.438-0.167h-0.572v5.17c0,0.172-0.049,0.311-0.146,0.418
			c-0.093,0.112-0.238,0.167-0.428,0.167h-0.554c-0.066,0-0.114-0.021-0.147-0.06c-0.033-0.043-0.053-0.091-0.053-0.15V69.792
			c0-0.057,0.019-0.105,0.053-0.148c0.033-0.038,0.081-0.057,0.147-0.057H22.428z M21.836,70.694v5.867h0.572
			c0.196,0,0.34-0.055,0.433-0.164c0.093-0.115,0.139-0.258,0.139-0.43v-4.681c0-0.172-0.046-0.313-0.142-0.425
			c-0.098-0.115-0.24-0.168-0.43-0.168H21.836z"/>
		<path d="M31.163,69.587c0.282,0,0.54,0.04,0.769,0.119c0.229,0.076,0.43,0.191,0.593,0.339c0.167,0.148,0.294,0.33,0.382,0.54
			c0.088,0.21,0.134,0.444,0.134,0.702v3.94c0,0.291-0.058,0.529-0.175,0.714c-0.114,0.184-0.274,0.332-0.478,0.446
			c0.203,0.109,0.363,0.258,0.478,0.434c0.117,0.187,0.175,0.415,0.175,0.7v4.2c0,0.525-0.172,0.94-0.516,1.244
			c-0.339,0.304-0.803,0.456-1.381,0.456h-1.7c-0.066,0-0.114-0.021-0.148-0.06c-0.034-0.043-0.053-0.091-0.053-0.15V69.792
			c0-0.057,0.019-0.105,0.053-0.148c0.033-0.038,0.081-0.057,0.148-0.057H31.163z M31.715,71.287c0-0.182-0.046-0.322-0.137-0.43
			c-0.093-0.11-0.238-0.163-0.435-0.163H30.57v5.127h0.573c0.196,0,0.342-0.055,0.435-0.169c0.091-0.11,0.137-0.253,0.137-0.425
			V71.287z M31.715,77.522c0-0.17-0.046-0.313-0.137-0.426c-0.093-0.111-0.236-0.169-0.425-0.169H30.57v5.387h0.573
			c0.196,0,0.342-0.055,0.435-0.162c0.091-0.11,0.137-0.253,0.137-0.43V77.522z"/>
		<path d="M37.98,71.13c0-0.528,0.168-0.943,0.499-1.244c0.332-0.304,0.798-0.457,1.399-0.457c0.282,0,0.54,0.039,0.773,0.12
			c0.234,0.078,0.436,0.19,0.605,0.339c0.167,0.148,0.296,0.329,0.385,0.535c0.089,0.205,0.134,0.439,0.134,0.707v10.748
			c0,0.527-0.167,0.943-0.497,1.246c-0.334,0.304-0.802,0.454-1.4,0.454c-0.291,0-0.549-0.038-0.783-0.119
			c-0.229-0.079-0.43-0.191-0.597-0.339c-0.167-0.148-0.296-0.328-0.387-0.535c-0.086-0.206-0.132-0.439-0.132-0.707V71.13z
			 M40.45,71.13c0-0.18-0.046-0.32-0.137-0.431c-0.093-0.109-0.238-0.165-0.435-0.165c-0.19,0-0.336,0.056-0.43,0.165
			c-0.098,0.11-0.143,0.251-0.143,0.431v10.748c0,0.179,0.045,0.322,0.138,0.432c0.091,0.107,0.236,0.16,0.434,0.16
			c0.192,0,0.332-0.053,0.43-0.16c0.096-0.109,0.142-0.253,0.142-0.432V71.13z"/>
		<path d="M50.311,69.587c0.066,0,0.114,0.019,0.147,0.057c0.033,0.043,0.053,0.092,0.053,0.148v13.421
			c0,0.06-0.02,0.107-0.053,0.15c-0.033,0.038-0.081,0.06-0.147,0.06h-0.555c-0.172,0-0.301-0.043-0.394-0.124
			c-0.094-0.084-0.15-0.193-0.167-0.332c0-0.076-0.027-0.263-0.077-0.554c-0.048-0.292-0.109-0.641-0.184-1.051
			c-0.076-0.414-0.162-0.867-0.253-1.359c-0.094-0.496-0.187-0.993-0.277-1.49c-0.096-0.494-0.179-0.974-0.263-1.428
			c-0.081-0.453-0.15-0.846-0.2-1.175l0.098,6.928c0.005,0.172-0.041,0.311-0.141,0.418c-0.098,0.112-0.244,0.167-0.435,0.167
			h-0.555c-0.062,0-0.114-0.021-0.146-0.06c-0.035-0.043-0.05-0.091-0.05-0.15V69.792c0-0.057,0.015-0.105,0.05-0.148
			c0.031-0.038,0.084-0.057,0.146-0.057h0.555c0.167,0,0.301,0.045,0.401,0.134c0.102,0.088,0.159,0.205,0.174,0.349
			c0.012,0.107,0.041,0.324,0.088,0.646c0.046,0.328,0.105,0.719,0.178,1.168c0.071,0.449,0.152,0.941,0.238,1.471
			c0.086,0.533,0.172,1.051,0.263,1.562c0.089,0.511,0.172,0.988,0.255,1.428c0.082,0.441,0.156,0.805,0.223,1.089l-0.101-7.341
			c0-0.152,0.053-0.277,0.158-0.367c0.107-0.094,0.243-0.139,0.415-0.139H50.311z"/>
		<path d="M57.811,69.587c0.06,0,0.107,0.019,0.137,0.057c0.035,0.043,0.055,0.092,0.061,0.139l1.185,13.393
			c0.008,0.06-0.01,0.114-0.053,0.167c-0.043,0.052-0.109,0.081-0.205,0.081h-0.482c-0.165,0-0.301-0.051-0.41-0.146
			c-0.107-0.093-0.17-0.213-0.182-0.352l-0.11-1.886h-0.998l-0.107,1.886c-0.012,0.139-0.074,0.259-0.185,0.352
			c-0.107,0.095-0.243,0.146-0.408,0.146h-0.484c-0.091,0-0.162-0.029-0.2-0.081c-0.046-0.053-0.062-0.107-0.058-0.167l1.185-13.393
			c0.01-0.047,0.028-0.096,0.062-0.139c0.031-0.038,0.077-0.057,0.139-0.057H57.811z M56.814,79.934h0.867l-0.432-7.393
			L56.814,79.934z"/>
		<path d="M66.971,69.587c0.061,0,0.108,0.019,0.146,0.05c0.04,0.031,0.062,0.084,0.062,0.146v0.337
			c0,0.172-0.048,0.313-0.138,0.415c-0.092,0.107-0.216,0.16-0.366,0.16h-0.613v12.37c0,0.101-0.034,0.185-0.103,0.251
			c-0.069,0.069-0.155,0.107-0.254,0.107h-0.611c-0.098,0-0.184-0.038-0.253-0.107c-0.069-0.066-0.103-0.15-0.103-0.251v-12.37
			h-0.613c-0.15,0-0.275-0.053-0.365-0.16c-0.092-0.102-0.139-0.243-0.139-0.415v-0.337c0-0.062,0.019-0.114,0.062-0.146
			c0.038-0.031,0.086-0.05,0.146-0.05H66.971z"/>
		<path d="M74.68,69.587c0.058,0,0.107,0.019,0.146,0.05c0.041,0.031,0.062,0.084,0.062,0.146v0.337
			c0,0.172-0.048,0.313-0.139,0.415c-0.096,0.107-0.215,0.16-0.365,0.16h-1.216v5.326h1.313c0.058,0,0.11,0.019,0.147,0.05
			c0.039,0.03,0.061,0.083,0.061,0.146v0.337c0,0.172-0.046,0.311-0.139,0.415c-0.094,0.108-0.217,0.16-0.365,0.16h-1.018v5.187
			h1.216c0.15,0,0.27,0.053,0.365,0.155c0.091,0.107,0.139,0.244,0.139,0.421v0.334c0,0.064-0.021,0.114-0.062,0.147
			c-0.038,0.031-0.088,0.051-0.146,0.051h-2.639c-0.066,0-0.115-0.021-0.148-0.06c-0.033-0.043-0.05-0.091-0.05-0.15V69.792
			c0-0.057,0.017-0.105,0.05-0.148c0.033-0.038,0.082-0.057,0.148-0.057H74.68z"/>
	</g>
</g>
</svg>