<!-- Generator: Adobe Illustrator 21.1.0, SVG Export Plug-In  -->
<svg version="1.1"
	 xmlns="http://www.w3.org/2000/svg" xmlns:xlink="http://www.w3.org/1999/xlink" xmlns:a="http://ns.adobe.com/AdobeSVGViewerExtensions/3.0/"
	 x="0px" y="0px" width="62.998px" height="73.54px" viewBox="0 0 62.998 73.54" style="enable-background:new 0 0 62.998 73.54;"
	 xml:space="preserve">
<defs>
</defs>
<g>
	<g>
		<g>
			<path d="M8.707,60.837C8.46,60.615,8.216,60.39,7.973,60.16c0.04-0.042,0.08-0.084,0.12-0.127
				c0.054,0.052,0.109,0.103,0.163,0.153c0.149,0.14,0.329,0.212,0.54,0.214c0.215,0.005,0.409-0.061,0.58-0.196
				c0.048,0.044,0.096,0.087,0.145,0.13c-0.888,1.006-1.775,2.012-2.662,3.019c-0.075-0.065-0.15-0.131-0.224-0.197
				C7.325,62.383,8.016,61.609,8.707,60.837z"/>
			<path d="M8.599,64.172c0.025-0.435,0.242-0.897,0.65-1.393c0.407-0.494,0.817-0.798,1.227-0.93
				c0.408-0.124,0.773-0.059,1.104,0.196c0.331,0.255,0.487,0.59,0.472,1.014c-0.022,0.427-0.209,0.896-0.58,1.413
				c-0.37,0.518-0.758,0.847-1.171,0.985c-0.415,0.136-0.812,0.066-1.181-0.211C8.753,64.97,8.577,64.605,8.599,64.172z
				 M10.224,65.203c0.35-0.136,0.686-0.432,1.02-0.893c0.332-0.457,0.512-0.869,0.548-1.234c0.033-0.362-0.084-0.643-0.352-0.849
				c-0.268-0.206-0.57-0.247-0.914-0.122c-0.346,0.129-0.701,0.411-1.059,0.853c-0.362,0.445-0.561,0.848-0.6,1.22
				c-0.04,0.374,0.091,0.675,0.385,0.896C9.548,65.297,9.874,65.341,10.224,65.203z"/>
			<path d="M11.469,66.264c-0.01-0.429,0.168-0.902,0.53-1.425c0.362-0.521,0.741-0.856,1.134-1.021
				c0.391-0.159,0.756-0.126,1.104,0.099c0.348,0.223,0.525,0.536,0.545,0.955c0.016,0.424-0.134,0.9-0.457,1.44
				c-0.324,0.541-0.677,0.899-1.077,1.069c-0.397,0.17-0.793,0.138-1.178-0.104C11.683,67.034,11.48,66.692,11.469,66.264z
				 M13.153,67.138c0.335-0.163,0.641-0.483,0.934-0.967c0.29-0.479,0.436-0.898,0.441-1.262c0.003-0.358-0.135-0.625-0.413-0.804
				c-0.283-0.181-0.582-0.193-0.913-0.042c-0.331,0.157-0.658,0.466-0.976,0.93c-0.32,0.47-0.485,0.883-0.493,1.253
				c-0.008,0.372,0.143,0.654,0.454,0.85C12.493,67.287,12.818,67.303,13.153,67.138z"/>
			<path d="M15.403,66.507c-0.075-0.252-0.047-0.489,0.08-0.71c0.125-0.219,0.315-0.362,0.566-0.434
				c0.248-0.067,0.487-0.035,0.713,0.085c0.23,0.124,0.386,0.302,0.465,0.543c0.081,0.248,0.064,0.482-0.051,0.705
				c-0.115,0.226-0.298,0.379-0.554,0.455c-0.25,0.074-0.497,0.044-0.739-0.084C15.645,66.942,15.481,66.754,15.403,66.507z
				 M16.523,66.918c0.186-0.06,0.321-0.173,0.411-0.345c0.087-0.167,0.102-0.343,0.048-0.524c-0.053-0.177-0.163-0.31-0.329-0.398
				c-0.167-0.089-0.337-0.105-0.519-0.054c-0.185,0.055-0.326,0.165-0.419,0.33c-0.096,0.169-0.116,0.344-0.061,0.531
				c0.055,0.181,0.167,0.316,0.339,0.407C16.165,66.956,16.345,66.975,16.523,66.918z M19.059,66.472
				c0.095,0.043,0.191,0.085,0.285,0.127c-1.484,0.779-3.056,1.485-4.708,2.107c-0.108-0.058-0.217-0.116-0.324-0.175
				C15.977,67.928,17.562,67.236,19.059,66.472z M16.479,69.335c-0.101-0.251-0.089-0.488,0.023-0.711
				c0.114-0.227,0.297-0.375,0.551-0.45c0.251-0.077,0.499-0.062,0.748,0.052c0.246,0.112,0.419,0.289,0.519,0.526
				c0.101,0.236,0.104,0.469,0.002,0.699c-0.101,0.227-0.279,0.388-0.535,0.476c-0.253,0.083-0.512,0.064-0.769-0.052
				C16.758,69.757,16.577,69.577,16.479,69.335z M17.662,69.701c0.188-0.066,0.32-0.191,0.397-0.362
				c0.078-0.17,0.082-0.345,0.009-0.521c-0.069-0.175-0.188-0.306-0.365-0.387c-0.18-0.081-0.362-0.089-0.55-0.03
				c-0.182,0.06-0.319,0.175-0.402,0.343c-0.084,0.168-0.093,0.351-0.025,0.533c0.073,0.18,0.2,0.317,0.386,0.4
				C17.296,69.761,17.479,69.765,17.662,69.701z"/>
			<path d="M21.434,71.271c-0.22-0.346-0.26-0.682-0.136-1.026c0.292-0.812,0.585-1.622,0.877-2.434
				c0.084,0.029,0.169,0.058,0.253,0.087c-0.286,0.812-0.572,1.625-0.858,2.438c-0.101,0.283-0.062,0.566,0.122,0.839
				c0.177,0.276,0.447,0.47,0.806,0.574c0.342,0.1,0.664,0.079,0.967-0.055c0.297-0.132,0.483-0.345,0.565-0.633
				c0.233-0.822,0.467-1.645,0.7-2.467c0.087,0.022,0.174,0.046,0.261,0.068c-0.227,0.823-0.455,1.647-0.683,2.471
				c-0.096,0.35-0.323,0.604-0.691,0.776c-0.368,0.165-0.768,0.186-1.189,0.062C21.993,71.847,21.655,71.611,21.434,71.271z"/>
			<path d="M25.908,72.729c-0.233-1.32-0.418-2.646-0.556-3.974c0.099,0.024,0.196,0.049,0.295,0.072
				c0.127,1.205,0.294,2.408,0.499,3.607c0.699-1.021,1.362-2.054,1.988-3.096c0.102,0.018,0.203,0.034,0.304,0.051
				c-0.688,1.147-1.42,2.283-2.198,3.404C26.13,72.773,26.018,72.752,25.908,72.729z"/>
			<path d="M30.523,73.388c0.138-1.226,0.275-2.45,0.413-3.676c0.593,0.057,1.188,0.099,1.783,0.128
				c0.256,0.012,0.467,0.116,0.637,0.314c0.174,0.199,0.26,0.433,0.25,0.708c-0.012,0.284-0.119,0.525-0.318,0.722
				c-0.195,0.198-0.432,0.293-0.699,0.281c-0.535-0.023-1.068-0.056-1.601-0.1c-0.058,0.549-0.115,1.098-0.173,1.646
				C30.717,73.403,30.62,73.396,30.523,73.388z M32.553,71.626c0.205,0.01,0.385-0.057,0.535-0.202
				c0.152-0.141,0.23-0.316,0.24-0.525c0.01-0.217-0.051-0.407-0.182-0.571c-0.131-0.154-0.293-0.238-0.49-0.248
				c-0.495-0.023-0.988-0.058-1.481-0.101c-0.055,0.517-0.108,1.033-0.163,1.55C31.525,71.571,32.039,71.604,32.553,71.626z"/>
			<path d="M34.057,73.539c0.033-1.219,0.066-2.438,0.1-3.658c0.629,0.006,1.258-0.004,1.887-0.029
				c0.271-0.011,0.506,0.074,0.707,0.248c0.199,0.171,0.309,0.388,0.322,0.655c0.012,0.229-0.039,0.438-0.152,0.613
				c-0.117,0.181-0.27,0.29-0.455,0.329c0.172,0.034,0.318,0.154,0.436,0.361c0.117,0.208,0.184,0.468,0.199,0.773
				c0.008,0.171,0.019,0.3,0.033,0.38c0.012,0.104,0.039,0.175,0.07,0.21c-0.1,0.008-0.197,0.015-0.295,0.021
				c-0.049-0.045-0.086-0.133-0.104-0.262c-0.016-0.173-0.029-0.346-0.045-0.52c-0.01-0.244-0.084-0.449-0.227-0.618
				c-0.139-0.165-0.303-0.243-0.494-0.234c-0.551,0.023-1.103,0.036-1.654,0.038c-0.012,0.563-0.021,1.127-0.033,1.691
				C34.254,73.539,34.155,73.54,34.057,73.539z M36.036,71.584c0.221-0.01,0.404-0.092,0.555-0.248
				c0.148-0.152,0.217-0.334,0.207-0.539c-0.008-0.205-0.09-0.378-0.244-0.514c-0.158-0.135-0.338-0.198-0.551-0.189
				c-0.527,0.021-1.055,0.031-1.582,0.029c-0.01,0.499-0.021,0.999-0.031,1.498C34.938,71.62,35.487,71.607,36.036,71.584z"/>
			<path d="M38.164,72.875c-0.367-0.304-0.564-0.738-0.598-1.296c-0.035-0.576,0.104-1.051,0.398-1.423
				c0.301-0.376,0.707-0.587,1.236-0.653c0.531-0.065,0.975,0.039,1.342,0.33c0.371,0.285,0.602,0.708,0.689,1.271
				c0.086,0.546-0.01,1.014-0.309,1.404c-0.293,0.388-0.738,0.628-1.322,0.706C39.018,73.293,38.539,73.178,38.164,72.875z
				 M40.694,72.379c0.252-0.333,0.336-0.74,0.264-1.227c-0.074-0.495-0.271-0.867-0.586-1.125c-0.312-0.257-0.695-0.355-1.146-0.299
				c-0.451,0.057-0.801,0.245-1.051,0.576c-0.252,0.33-0.363,0.746-0.33,1.25c0.033,0.496,0.201,0.873,0.518,1.133
				c0.312,0.269,0.725,0.371,1.215,0.306C40.069,72.928,40.446,72.721,40.694,72.379z"/>
			<path d="M43.17,72.533c-0.217-1.088-0.432-2.175-0.648-3.263c-0.445,0.096-0.895,0.184-1.344,0.264
				c-0.012-0.077-0.023-0.155-0.037-0.233c0.984-0.174,1.965-0.388,2.935-0.641c0.02,0.075,0.037,0.151,0.057,0.227
				c-0.447,0.117-0.895,0.225-1.344,0.325c0.225,1.085,0.449,2.17,0.672,3.255C43.364,72.489,43.268,72.512,43.17,72.533z"/>
			<path d="M45.346,71.982c-0.293-1.142-0.586-2.284-0.879-3.427c0.836-0.227,1.666-0.483,2.488-0.77
				c0.025,0.073,0.049,0.146,0.074,0.22c-0.742,0.258-1.49,0.493-2.244,0.704c0.115,0.438,0.232,0.877,0.348,1.315
				c0.713-0.203,1.422-0.427,2.125-0.67c0.022,0.068,0.045,0.138,0.066,0.206c-0.705,0.246-1.418,0.471-2.135,0.675
				c0.127,0.483,0.256,0.967,0.383,1.45c0.814-0.235,1.621-0.496,2.422-0.782c0.023,0.069,0.047,0.14,0.07,0.209
				C47.167,71.436,46.26,71.725,45.346,71.982z"/>
			<path d="M48.7,70.402c-0.488-0.199-0.807-0.547-0.971-1.028c-0.162-0.48-0.125-0.954,0.098-1.425
				c0.217-0.46,0.557-0.781,1.025-0.974c0.391-0.161,0.752-0.212,1.094-0.149c0.344,0.058,0.615,0.213,0.812,0.479
				c-0.086,0.04-0.172,0.079-0.258,0.118c-0.143-0.2-0.367-0.32-0.66-0.365c-0.293-0.046-0.594-0.008-0.908,0.121
				c-0.402,0.165-0.691,0.45-0.875,0.854c-0.184,0.409-0.207,0.824-0.063,1.243c0.147,0.423,0.424,0.729,0.842,0.91
				c0.414,0.176,0.848,0.171,1.283-0.013c0.375-0.157,0.648-0.378,0.811-0.657c0.168-0.28,0.201-0.573,0.107-0.872
				c0.088-0.041,0.178-0.082,0.266-0.124c0.121,0.362,0.084,0.713-0.123,1.054c-0.193,0.34-0.523,0.608-0.98,0.8
				C49.686,70.592,49.18,70.604,48.7,70.402z"/>
			<path d="M53.235,68.85c-0.479-0.961-0.959-1.922-1.438-2.882c-0.414,0.212-0.832,0.416-1.254,0.611
				c-0.031-0.069-0.062-0.139-0.094-0.208c0.924-0.429,1.834-0.897,2.726-1.404c0.037,0.066,0.074,0.131,0.111,0.197
				c-0.412,0.234-0.828,0.46-1.246,0.678c0.484,0.957,0.971,1.912,1.457,2.869C53.411,68.757,53.323,68.804,53.235,68.85z"/>
			<path d="M55.233,67.733c-0.568-0.99-1.135-1.98-1.701-2.971c0.078-0.046,0.158-0.093,0.236-0.14
				c0.574,0.985,1.149,1.971,1.723,2.955C55.405,67.631,55.319,67.682,55.233,67.733z"/>
			<path d="M56.286,66.567c-0.469-0.077-0.838-0.346-1.111-0.797c-0.281-0.465-0.359-0.93-0.248-1.382
				c0.113-0.46,0.397-0.834,0.854-1.146c0.461-0.315,0.914-0.445,1.377-0.384c0.467,0.055,0.859,0.293,1.184,0.723
				c0.315,0.415,0.428,0.855,0.322,1.33c-0.103,0.472-0.408,0.892-0.912,1.243C57.252,66.503,56.758,66.641,56.286,66.567z
				 M58.395,64.916c0.086-0.402-0.012-0.785-0.287-1.157c-0.281-0.378-0.623-0.592-1.023-0.652c-0.4-0.061-0.793,0.045-1.186,0.313
				c-0.391,0.268-0.627,0.592-0.713,0.989c-0.092,0.401-0.016,0.803,0.232,1.208c0.246,0.398,0.564,0.633,0.971,0.695
				c0.404,0.074,0.82-0.036,1.244-0.331C58.057,65.686,58.313,65.326,58.395,64.916z"/>
			<path d="M59.889,64.505c-0.691-0.883-1.383-1.766-2.072-2.649c0.1-0.079,0.201-0.158,0.301-0.239
				c1.301,0.277,2.641,0.476,4.012,0.592c-0.693-0.749-1.385-1.498-2.076-2.247c0.068-0.063,0.139-0.128,0.209-0.192
				c0.76,0.809,1.518,1.617,2.277,2.426c-0.105,0.1-0.209,0.198-0.316,0.297c-1.361-0.104-2.691-0.292-3.984-0.556
				c0.629,0.793,1.26,1.585,1.889,2.378C60.047,64.378,59.969,64.441,59.889,64.505z"/>
		</g>
	</g>
	<g>
		<path d="M8.909,37.821V0h4.055v37.821c0,15.549,7.303,23.109,22.312,23.109c11.459,0,18.258-8.191,18.258-22.064V0h4.059v38.866
			c0,16.812-9.133,26.267-22.316,26.267C17.023,65.133,8.909,54.628,8.909,37.821z"/>
	</g>
	<g>
		<path d="M22.726,15.655V9.85h-6.014V8.582l5.794-8.086h1.111v8.336h2.452V9.85h-2.452v5.806H22.726z M22.726,8.832V1.889
			L17.65,8.832H22.726z"/>
		<path d="M37.655,8.052c0,4.544-2.184,7.575-5.346,7.575c-3.165,0-5.349-3.031-5.349-7.604c0-4.442,2.185-7.526,5.349-7.526
			C35.471,0.496,37.655,3.527,37.655,8.052z M36.766,8.052c0-4.043-1.785-6.544-4.457-6.544c-2.675-0.023-4.458,2.501-4.458,6.544
			c0,4.014,1.695,6.562,4.458,6.562C35.026,14.614,36.766,11.965,36.766,8.052z"/>
		<path d="M49.241,8.052c0,4.544-2.184,7.575-5.348,7.575c-3.162,0-5.35-3.031-5.35-7.604c0-4.442,2.188-7.526,5.35-7.526
			C47.057,0.496,49.241,3.527,49.241,8.052z M48.35,8.052c0-4.043-1.789-6.544-4.457-6.544c-2.676-0.023-4.459,2.501-4.459,6.544
			c0,4.014,1.697,6.562,4.459,6.562C46.61,14.614,48.35,11.965,48.35,8.052z"/>
	</g>
	<g>
		<path d="M56.989,12.991c2.824,0,4.66,0.949,6.01,2.577l-2.492,3.21c-0.818-1.354-2.332-2.034-4.25-2.034
			c-9.117,0-17.828,20.345-23.389,48.152l-4.25-0.588c0-3.436,0.366-9.088,0.366-15.193c0-13.246-1.757-28.665-12.837-28.665
			c-7.439,0-12.263,6.736-12.263,15.646c0,7.324,3.884,10.717,7.724,10.717c4.255,0,7.36-3.44,8.26-9.676l3.802,0.992
			c-1.307,7.686-5.968,11.396-11.936,11.396C4.905,49.525,0,44.143,0,35.777C0,25.201,6.538,17.92,16.392,17.92
			c13.656,0,16.639,14.967,16.639,29.027c0,4.477-0.285,8.861-0.654,12.615C37.079,32.974,46.731,12.991,56.989,12.991z"/>
	</g>
</g>
</svg>