<!-- Generator: Adobe Illustrator 21.1.0, SVG Export Plug-In  -->
<svg version="1.1"
	 xmlns="http://www.w3.org/2000/svg" xmlns:xlink="http://www.w3.org/1999/xlink" xmlns:a="http://ns.adobe.com/AdobeSVGViewerExtensions/3.0/"
	 x="0px" y="0px" width="74.097px" height="124.387px" viewBox="0 0 74.097 124.387"
	 style="enable-background:new 0 0 74.097 124.387;" xml:space="preserve">
<style type="text/css">
	.st0{fill:none;stroke:#000000;stroke-width:1.6902;stroke-miterlimit:10;}
</style>
<defs>
</defs>
<g>
	<g>
		<path d="M36.777,0C18.741,0,4.116,14.624,4.116,32.663c0,18.039,14.625,32.663,32.661,32.663
			c18.041,0,32.661-14.624,32.661-32.663C69.438,14.624,54.818,0,36.777,0 M46.317,27.548c0,5.474-2.564,8.33-8.033,8.33h-3.4
			v13.607h-3.85V14.977h7.541c5.426,0,7.742,3.205,7.742,8.43V27.548z"/>
		<path d="M38.575,18.474h-3.691v13.955h3.4c2.856,0,4.236-1.332,4.236-4.632v-4.59C42.521,20.055,41.386,18.474,38.575,18.474"/>
	</g>
	<g>
		<path d="M6.304,82.501c4.385,0,6.257,2.594,6.257,6.815v3.348c0,4.423-2.07,6.734-6.495,6.734H3.316v10.999H0.21V82.501H6.304z
			 M6.065,96.609c2.312,0,3.429-1.075,3.429-3.744v-3.706c0-2.551-0.917-3.826-3.19-3.826H3.316v11.276H6.065z"/>
		<path d="M14.867,89.235c0-4.26,2.113-7.012,6.376-7.012c4.304,0,6.417,2.752,6.417,7.012v14.428c0,4.223-2.113,7.012-6.417,7.012
			c-4.263,0-6.376-2.789-6.376-7.012V89.235z M17.938,103.821c0,2.551,1.074,4.026,3.305,4.026c2.273,0,3.31-1.476,3.31-4.026
			V89.077c0-2.512-1.036-4.025-3.31-4.025c-2.231,0-3.305,1.514-3.305,4.025V103.821z"/>
		<path d="M30.604,110.397V82.501h3.106v25.064h7.969v2.832H30.604z"/>
		<path d="M47.177,104.776l-1.076,5.621h-2.868l5.339-27.896h4.504l5.34,27.896h-3.109l-1.074-5.621H47.177z M47.573,102.106h6.219
			l-3.148-16.095L47.573,102.106z"/>
		<path d="M67.058,82.501c4.382,0,6.216,2.235,6.216,6.376v2.273c0,3.066-1.075,4.981-3.468,5.736
			c2.551,0.759,3.506,2.832,3.506,5.821v4.342c0,1.236,0.043,2.393,0.559,3.348h-3.147c-0.358-0.797-0.519-1.514-0.519-3.386v-4.385
			c0-3.147-1.473-4.146-4.063-4.146h-2.192v11.916h-3.108V82.501H67.058z M66.26,95.654c2.472,0,3.944-0.798,3.944-3.825v-2.67
			c0-2.513-0.916-3.826-3.226-3.826h-3.03v10.321H66.26z"/>
	</g>
	<g>
		<line class="st0" x1="0.702" y1="74.263" x2="72.851" y2="74.263"/>
	</g>
	<g>
		<path d="M1.137,117.562c-0.306,0.187-0.702,0.325-1.137,0.349v-0.749c0.893-0.039,1.198-0.517,1.408-1.094h0.636v8.229H1.137
			V117.562z"/>
		<path d="M3.362,118.054c0-1.256,0.623-2.068,1.881-2.068c1.272,0,1.892,0.812,1.892,2.068v4.241c0,1.261-0.62,2.082-1.892,2.082
			c-1.258,0-1.881-0.821-1.881-2.082V118.054z M4.269,122.356c0,0.74,0.316,1.185,0.974,1.185c0.669,0,0.975-0.444,0.975-1.185
			v-4.351c0-0.75-0.306-1.198-0.975-1.198c-0.658,0-0.974,0.448-0.974,1.198V122.356z"/>
		<path d="M7.938,118.054c0-1.256,0.623-2.068,1.882-2.068c1.271,0,1.891,0.812,1.891,2.068v4.241c0,1.261-0.62,2.082-1.891,2.082
			c-1.259,0-1.882-0.821-1.882-2.082V118.054z M8.845,122.356c0,0.74,0.316,1.185,0.975,1.185c0.668,0,0.975-0.444,0.975-1.185
			v-4.351c0-0.75-0.307-1.198-0.975-1.198c-0.659,0-0.975,0.448-0.975,1.198V122.356z"/>
		<path d="M14.887,117.347v2.599c0,0.797-0.375,1.327-1.175,1.327c-0.798,0-1.176-0.53-1.176-1.327v-2.599
			c0-0.788,0.378-1.328,1.176-1.328C14.512,116.019,14.887,116.559,14.887,117.347z M13.124,117.313v2.68
			c0,0.443,0.165,0.74,0.588,0.74c0.41,0,0.587-0.297,0.587-0.74v-2.68c0-0.449-0.177-0.755-0.587-0.755
			C13.289,116.559,13.124,116.864,13.124,117.313z M17.604,116.067l-3.246,8.229h-0.551l3.242-8.229H17.604z M18.932,120.418v2.584
			c0,0.798-0.365,1.327-1.175,1.327c-0.8,0-1.175-0.529-1.175-1.327v-2.584c0-0.788,0.375-1.318,1.175-1.318
			C18.566,119.1,18.932,119.63,18.932,120.418z M17.169,120.38v2.67c0,0.443,0.175,0.75,0.588,0.75c0.411,0,0.588-0.307,0.588-0.75
			v-2.67c0-0.444-0.177-0.74-0.588-0.74C17.344,119.64,17.169,119.936,17.169,120.38z"/>
		<path d="M22.523,122.356c0,0.74,0.291,1.185,0.962,1.185c0.659,0,0.953-0.444,0.953-1.185v-6.289h0.857v6.242
			c0,1.246-0.575,2.077-1.846,2.077c-1.257,0-1.834-0.831-1.834-2.077v-6.242h0.907V122.356z"/>
		<path d="M26.898,116.067l1.342,7.158l1.328-7.158h0.845l-1.54,8.229h-1.352l-1.55-8.229H26.898z"/>
		<path d="M34.743,116.067c1.291,0,1.846,0.764,1.846,2.01v0.989c0,1.304-0.611,1.981-1.915,1.981h-0.812v3.248h-0.917v-8.229
			H34.743z M34.674,120.227c0.681,0,1.008-0.315,1.008-1.103v-1.094c0-0.755-0.268-1.128-0.938-1.128h-0.882v3.324H34.674z"/>
		<path d="M39.177,116.067c1.295,0,1.834,0.658,1.834,1.881v0.669c0,0.902-0.317,1.471-1.021,1.69
			c0.752,0.225,1.034,0.836,1.034,1.72v1.28c0,0.362,0.012,0.707,0.165,0.988h-0.93c-0.107-0.238-0.152-0.449-0.152-1.003v-1.29
			c0-0.931-0.435-1.223-1.199-1.223h-0.646v3.516h-0.918v-8.229H39.177z M38.943,119.945c0.729,0,1.163-0.234,1.163-1.128v-0.787
			c0-0.74-0.271-1.128-0.953-1.128h-0.892v3.043H38.943z"/>
		<path d="M41.909,118.054c0-1.256,0.621-2.068,1.879-2.068c1.269,0,1.895,0.812,1.895,2.068v4.256c0,1.246-0.626,2.067-1.895,2.067
			c-1.258,0-1.879-0.821-1.879-2.067V118.054z M42.812,122.356c0,0.75,0.318,1.185,0.977,1.185c0.672,0,0.978-0.435,0.978-1.185
			v-4.351c0-0.74-0.306-1.189-0.978-1.189c-0.658,0-0.977,0.449-0.977,1.189V122.356z"/>
		<path d="M47.753,124.296v-7.394h-1.517v-0.835h3.95v0.835H48.67v7.394H47.753z"/>
		<path d="M53.749,119.711v0.821H51.74v2.928h2.467v0.836h-3.384v-8.229h3.384v0.835H51.74v2.809H53.749z"/>
		<path d="M58.688,118.054v0.74h-0.869v-0.788c0-0.74-0.292-1.189-0.963-1.189c-0.656,0-0.962,0.449-0.962,1.189v4.351
			c0,0.74,0.306,1.185,0.962,1.185c0.671,0,0.963-0.444,0.963-1.185v-1.069h0.869v1.022c0,1.246-0.588,2.067-1.856,2.067
			c-1.259,0-1.847-0.821-1.847-2.067v-4.256c0-1.246,0.588-2.068,1.847-2.068C58.1,115.985,58.688,116.808,58.688,118.054z"/>
		<path d="M60.727,124.296v-7.394H59.21v-0.835h3.947v0.835h-1.514v7.394H60.727z"/>
		<path d="M64.715,116.067v8.229h-0.917v-8.229H64.715z"/>
		<path d="M65.584,118.054c0-1.256,0.623-2.068,1.882-2.068c1.271,0,1.891,0.812,1.891,2.068v4.256c0,1.246-0.62,2.067-1.891,2.067
			c-1.259,0-1.882-0.821-1.882-2.067V118.054z M66.491,122.356c0,0.75,0.316,1.185,0.975,1.185c0.668,0,0.975-0.435,0.975-1.185
			v-4.351c0-0.74-0.307-1.189-0.975-1.189c-0.659,0-0.975,0.449-0.975,1.189V122.356z"/>
		<path d="M71.043,124.296h-0.824v-8.229h1.163l1.906,5.945v-5.945h0.809v8.229h-0.952l-2.102-6.653V124.296z"/>
	</g>
</g>
</svg>