<!-- Generator: Adobe Illustrator 21.1.0, SVG Export Plug-In  -->
<svg version="1.1"
	 xmlns="http://www.w3.org/2000/svg" xmlns:xlink="http://www.w3.org/1999/xlink" xmlns:a="http://ns.adobe.com/AdobeSVGViewerExtensions/3.0/"
	 x="0px" y="0px" width="472.78px" height="634.462px" viewBox="0 0 472.78 634.462"
	 style="enable-background:new 0 0 472.78 634.462;" xml:space="preserve">
<style type="text/css">
	.st0{fill:#E2B585;}
	.st1{fill:#B88A5B;}
	.st2{fill:#4E3827;}
	.st3{fill:#442E1A;}
	.st4{fill:#CD9A6E;}
	.st5{fill:#F5C398;}
	.st6{fill:#D6A875;}
</style>
<defs>
</defs>
<g>
	<path class="st0" d="M337.214,452.267c-66.958-63.403-16.792-112.242-16.792-112.242c-21.493,15.518-56.543,19.542-82.977,16.656
		v-0.325c-0.459,0.059-0.92,0.11-1.38,0.164c-0.461-0.054-0.921-0.105-1.38-0.164v0.325c-26.433,2.886-61.482-1.138-82.975-16.656
		c0,0,50.165,48.839-16.793,112.242c-37.165,35.192,33.543,53.626,101.149,50.293C303.671,505.892,374.379,487.458,337.214,452.267z
		"/>
	<path class="st1" d="M337.214,452.267c-66.958-63.403-16.792-112.242-16.792-112.242c-21.493,15.518-56.543,19.542-82.977,16.656
		v-0.325c-0.459,0.059-0.92,0.11-1.38,0.164c-0.164-0.019-0.327-0.039-0.491-0.058v146.122c0.164-0.008,0.327-0.015,0.491-0.023
		C303.671,505.892,374.379,487.458,337.214,452.267z"/>
	<path class="st2" d="M412.925,457.775c-18.083-9.628-45.55-13.116-79.007-25.875c-0.664-1.557-4.934-11.544-6.958-15.752
		c-5.184-10.781-8.621-12.831-22.598-13.891c2.011,9.475,2.141,9.915,4.983,19.074c-8.519,24.011-40.869,51.395-68.999,58.756
		c-3.084,0.807-5.46,0.807-8.544,0c-28.13-7.361-60.481-34.745-69-58.756c2.844-9.159,2.973-9.599,4.984-19.074
		c-13.977,1.06-17.414,3.11-22.598,13.891c-2.113,4.396-6.68,15.098-7.026,15.911c-33.241,12.954-60.218,16.085-78.307,25.717
		C11.324,483.614,3.786,521.615,0,634.462l236.389-0.248l236.391,0.248C468.992,521.615,461.455,483.614,412.925,457.775z"/>
	<path class="st3" d="M412.925,457.775c-18.083-9.628-45.55-13.116-79.007-25.875c-0.664-1.557-4.934-11.544-6.958-15.752
		c-5.184-10.781-8.621-12.831-22.598-13.891c2.011,9.475,2.141,9.915,4.983,19.074c-8.519,24.011-40.869,51.395-68.999,58.756
		c-1.73,0.452-3.238,0.642-4.772,0.586v153.541l0.815-0.001l236.391,0.248C468.992,521.615,461.455,483.614,412.925,457.775z"/>
	<path class="st4" d="M236.591,394.303c-0.762,0.035-9.24-0.789-13.617-1.372c-27.523-3.665-48.52-15.397-64.192-35.867
		c-13.52-17.66-23.287-41.889-30.736-76.249l-0.033-0.209l-9.733-93.129l-0.001-0.093c-0.256-28.48,12.059-57.231,33.789-78.879
		c10.744-10.703,23.163-19.176,36.916-25.183c13.809-6.032,28.319-9.276,43.159-9.653v-0.369l1.92-0.017
		c15.766-0.141,31.178,2.974,45.851,9.234c13.712,5.85,26.14,14.166,36.938,24.716c21.804,21.302,34.457,49.783,34.712,78.14
		l0.001,0.091l-0.008,0.091l-7.932,93.141l-0.018,0.095c-5.597,30.082-14.306,53.427-26.627,71.367
		c-7.295,10.623-16.012,19.478-25.908,26.317c-10.768,7.441-23.283,12.743-37.197,15.757c-6.244,1.352-11.839,2.032-17.101,2.077
		L236.591,394.303z M131.855,280.097c15.165,69.863,42.572,102.46,91.631,108.993c4.055,0.54,12.383,1.262,13.344,1.344
		c4.969-0.05,10.276-0.701,16.223-1.989c47.045-10.191,74.603-45.23,86.725-110.268l7.91-92.859
		c-0.571-57.315-52.613-107.614-111.67-108.159v0.336l-1.921,0.017c-29.551,0.256-57.711,12.238-79.293,33.738
		c-20.973,20.894-32.87,48.592-32.65,76.008L131.855,280.097z"/>
	<path class="st5" d="M341.7,278.437c-9.58,51.487-31.192,99.545-88.237,111.902c-5.319,1.152-10.699,2.048-16.707,2.034
		c-5.28-0.012-9.145-0.778-13.526-1.362c-56.674-7.547-79.989-49.251-93.29-110.606l-9.723-93.037
		c-0.523-58.124,51.152-111.248,113.863-111.793v-0.353c62.713-0.545,115.026,52.046,115.547,110.17L341.7,278.437z"/>
	<path class="st6" d="M235.574,75.228v317.128c0.387,0.009,0.779,0.016,1.182,0.017c6.007,0.014,11.388-0.882,16.707-2.034
		c57.045-12.357,78.657-60.415,88.237-111.902l7.927-93.045C349.109,127.731,297.621,75.524,235.574,75.228z"/>
	<path class="st2" d="M384.551,102.776C377.411,88.732,337.348,10.37,239.98,0.171c-18.552-1.942-46.01,13.301-62.623,13.593
		c-22.19,0.39-34.977,7.177-50.434,22.782c-53.388,53.868-79.619,133.652-69.08,208.178c4.081,28.867,16.498,63.721,38.814,85.385
		c14.975,14.537,32.654,26.847,64.641,27.549c-19.368-24.398-36.822-73.799-30.106-105.473c3.635-17.142,12.754-31.86,22.079-45.588
		c14.85-21.863,21.118-41.352,33.728-64.938c64.388,71.093,124.146,58.633,131.086,63.463c-9.4-6.544-38.896-24.432-47.424-30.977
		c-11.178-8.58-17.195-17.628-31.222-32.174c16.96,17.589,21.645,15.75,44.674,27.256c21.614,10.802,34.439,30.004,46.306,52.125
		c24.613,45.884,3.075,95.728-21.31,136.305c31.988-0.702,76.694-20.393,93.536-69.592
		C420.973,234.525,424.408,181.191,384.551,102.776z"/>
	<path class="st3" d="M384.551,102.776C377.411,88.732,337.348,10.37,239.98,0.171c-1.419-0.149-2.891-0.196-4.405-0.157v182.006
		c43.388,25.408,77.38,19.533,82.51,23.103c-9.4-6.544-38.896-24.432-47.424-30.977c-11.178-8.58-17.195-17.628-31.222-32.174
		c16.96,17.589,21.645,15.75,44.674,27.256c21.614,10.802,34.439,30.004,46.306,52.125c24.613,45.884,3.075,95.728-21.31,136.305
		c31.988-0.702,76.694-20.393,93.536-69.592C420.973,234.525,424.408,181.191,384.551,102.776z"/>
</g>
</svg>