<!-- Generator: Adobe Illustrator 21.1.0, SVG Export Plug-In  -->
<svg version="1.1"
	 xmlns="http://www.w3.org/2000/svg" xmlns:xlink="http://www.w3.org/1999/xlink" xmlns:a="http://ns.adobe.com/AdobeSVGViewerExtensions/3.0/"
	 x="0px" y="0px" width="73.219px" height="124.052px" viewBox="0 0 73.219 124.052"
	 style="enable-background:new 0 0 73.219 124.052;" xml:space="preserve">
<style type="text/css">
	.st0{fill:none;}
</style>
<defs>
</defs>
<g>
	<path d="M23.647,81.313c-1.949,3.797-2.414,9.945-3.113,15.771c3.956-0.578,6.606-5.537,6.606-10.331
		c0-4.732-2.59-9.368-9.049-9.368c-6.664,0-9.748,5.601-9.748,10.396c0,3.639,1.774,6.823,5.062,6.823
		c0.437,0,0.844-0.062,1.222-0.159l0.468,2.766c-0.555,0.227-1.167,0.323-1.807,0.323c-4.771,0-7.332-4.312-7.332-9.109
		c0-5.954,3.958-12.649,12.482-12.649c7.975,0,11.35,5.44,11.35,11.009c0,5.794-3.638,11.716-9.485,11.974
		c-0.932,7.081-2.474,13.261-7.801,13.261c-3.373,0-5.238-2.156-5.238-5.44c0-2.606,1.631-5.182,4.568-5.31v2.638
		c-1.513,0.193-2.472,1.803-2.472,3.284c0,2.091,1.426,3.25,3.055,3.25c7.478,0,3.753-20.31,8.586-30.126L23.647,81.313z"/>
	<path d="M39.27,97.277c-0.67,1.933-1.981,3.284-3.376,3.831c-0.99,2.349-2.474,3.734-4.336,3.734c-2.007,0-2.879-2.318-2.879-5.248
		c0-1.802,0.318-3.83,0.901-5.729l1.046,0.289c0.323-2.477,1.544-4.634,3.609-4.634c1.952,0,2.968,2.478,2.968,5.376
		c0,1.575-0.347,3.216-0.728,4.633c0.756-0.386,1.455-1.19,1.98-2.703C38.628,96.827,39.27,97.085,39.27,97.277z M33.246,101.14
		c-1.224-0.514-2.009-1.803-2.416-3.347c-0.058,0.481-0.087,0.966-0.087,1.383c0,1.901,0.465,3.219,1.193,3.219
		c0.086,0,0.144,0,0.233-0.031C32.547,102.233,32.895,101.782,33.246,101.14z M32.08,95.957c0,1.739,0.467,3.414,1.778,3.831
		c0.639-1.706,1.075-3.959,1.075-5.664c0-1.448-0.318-2.542-1.135-2.542c-0.058,0-0.147,0.031-0.205,0.031
		C32.75,91.806,32.08,93.897,32.08,95.957z"/>
	<path d="M45.027,96.827c0.145,0,0.699,0.258,0.699,0.419c0,0.031,0,0.031,0,0.031c-1.715,5.151-3.055,7.565-4.946,7.565
		c-1.747,0-2.445-1.901-2.445-5.248c0-2.349,0.349-5.44,0.93-9.109c1.311-8.078,3.144-11.714,4.833-11.714
		c1.513,0,1.949,1.352,1.949,2.992c0,1.898-0.581,4.186-0.875,5.183c-1.19,4.217-3.142,7.37-4.305,8.948
		c-0.147,1.383-0.234,2.638-0.234,3.669c0,2.156,0.439,2.831,1.108,2.831C42.671,102.395,43.777,100.399,45.027,96.827z
		 M44.473,80.928c-0.785,0-2.5,6.951-3.344,12.938c1.455-2.93,3.609-8.306,3.638-12.232C44.767,81.184,44.62,80.928,44.473,80.928z"
		/>
	<path d="M51.778,89.874h2.064c-0.872,4.281-1.424,7.758-1.833,10.945c-0.058,0.354-0.058,0.609-0.058,0.836
		c0,0.481,0.087,0.708,0.231,0.708c0.323,0,1.544-1.544,2.939-5.536c0.176,0,0.817,0.258,0.817,0.45
		c-1.775,5.151-3.202,7.403-4.541,7.403c-0.93,0-1.455-0.935-1.455-3.153c0-0.099,0-0.227,0-0.354
		c-0.667,1.964-1.687,3.67-3.373,3.67c-1.426,0-2.009-1.74-2.009-4.089c0-4.539,2.241-11.232,5.006-11.232
		c1.075,0,1.686,0.706,1.892,2.156L51.778,89.874z M47.005,100.431c0,0.998,0.176,1.675,0.61,1.675c1.339,0,2.997-5.247,2.997-8.239
		c0-1.19-0.26-2.029-0.901-2.029C48.49,91.837,47.005,97.504,47.005,100.431z"/>
	<path d="M59.165,102.233c0.641,0,1.66-1.706,2.94-5.406c0.144,0,0.814,0.227,0.814,0.419v0.031
		c-1.279,3.669-2.299,7.403-4.684,7.403c-1.369,0-1.892-0.966-1.892-2.414c0-2.094,1.337-4.377,1.337-6.018
		c0-0.967-0.26-1.706-0.581-2.383l-1.164,3.411c0,0-0.814-0.161-0.814-0.419v-0.031c0.523-1.545,0.901-3.154,1.191-4.698
		c-0.289-0.708-0.521-1.578-0.521-2.706c0-1.028,0.203-2.315,0.667-3.989l2.183,0.708c-0.118,2.125-0.35,3.669-0.814,5.342
		c0.961,1.096,2.209,2.383,2.209,4.219c0,2.06-1.337,4.729-1.337,5.856C58.7,102.04,58.876,102.233,59.165,102.233z"/>
	<g>
		<line x1="0.694" y1="72.242" x2="71.985" y2="72.242"/>
	</g>
	<path d="M1.13,117.291c-0.304,0.188-0.699,0.328-1.13,0.35v-0.745c0.885-0.033,1.188-0.51,1.395-1.081h0.631v8.144H1.13V117.291z"
		/>
	<path d="M3.323,117.78c0-1.243,0.617-2.045,1.862-2.045c1.255,0,1.872,0.802,1.872,2.045v4.199c0,1.246-0.617,2.061-1.872,2.061
		c-1.246,0-1.862-0.814-1.862-2.061V117.78z M4.219,122.038c0,0.734,0.316,1.175,0.966,1.175c0.663,0,0.966-0.44,0.966-1.175v-4.304
		c0-0.744-0.304-1.188-0.966-1.188c-0.65,0-0.966,0.443-0.966,1.188V122.038z"/>
	<path d="M7.845,117.78c0-1.243,0.617-2.045,1.862-2.045c1.255,0,1.872,0.802,1.872,2.045v4.199c0,1.246-0.617,2.061-1.872,2.061
		c-1.245,0-1.862-0.814-1.862-2.061V117.78z M8.741,122.038c0,0.734,0.315,1.175,0.966,1.175c0.663,0,0.964-0.44,0.964-1.175v-4.304
		c0-0.744-0.301-1.188-0.964-1.188c-0.65,0-0.966,0.443-0.966,1.188V122.038z"/>
	<path d="M14.714,117.084v2.571c0,0.79-0.371,1.312-1.161,1.312c-0.791,0-1.164-0.522-1.164-1.312v-2.571
		c0-0.78,0.374-1.315,1.164-1.315C14.343,115.769,14.714,116.304,14.714,117.084z M12.97,117.048v2.652
		c0,0.441,0.164,0.732,0.583,0.732c0.404,0,0.581-0.291,0.581-0.732v-2.652c0-0.441-0.176-0.744-0.581-0.744
		C13.133,116.304,12.97,116.606,12.97,117.048z M17.402,115.814l-3.211,8.144h-0.547l3.211-8.144H17.402z M18.718,120.12v2.559
		c0,0.79-0.361,1.312-1.166,1.312c-0.79,0-1.161-0.522-1.161-1.312v-2.559c0-0.781,0.371-1.304,1.161-1.304
		C18.356,118.816,18.718,119.339,18.718,120.12z M16.971,120.083v2.641c0,0.443,0.176,0.745,0.58,0.745
		c0.41,0,0.583-0.302,0.583-0.745v-2.641c0-0.44-0.173-0.732-0.583-0.732C17.147,119.351,16.971,119.643,16.971,120.083z"/>
	<path d="M22.255,122.038c0,0.734,0.292,1.175,0.954,1.175c0.65,0,0.944-0.44,0.944-1.175v-6.224h0.848v6.177
		c0,1.234-0.569,2.061-1.826,2.061c-1.246,0-1.817-0.826-1.817-2.061v-6.177h0.896V122.038z"/>
	<path d="M26.58,115.814l1.328,7.086l1.313-7.086h0.836l-1.523,8.144h-1.337l-1.535-8.144H26.58z"/>
	<path d="M34.333,115.814c1.279,0,1.826,0.757,1.826,1.99v0.976c0,1.291-0.604,1.966-1.896,1.966h-0.805v3.212h-0.906v-8.144H34.333
		z M34.263,119.932c0.675,0,1-0.313,1-1.091v-1.082c0-0.744-0.268-1.118-0.93-1.118h-0.875v3.291H34.263z"/>
	<path d="M38.715,115.814c1.277,0,1.812,0.653,1.812,1.862v0.662c0,0.896-0.313,1.455-1.012,1.675
		c0.747,0.222,1.026,0.826,1.026,1.698v1.268c0,0.361,0.009,0.699,0.161,0.979h-0.918c-0.106-0.234-0.154-0.441-0.154-0.988v-1.279
		c0-0.92-0.429-1.212-1.186-1.212h-0.641v3.479h-0.906v-8.144H38.715z M38.481,119.655c0.72,0,1.149-0.234,1.149-1.118v-0.778
		c0-0.735-0.265-1.118-0.94-1.118h-0.886v3.015H38.481z"/>
	<path d="M41.409,117.78c0-1.243,0.617-2.045,1.86-2.045c1.258,0,1.875,0.802,1.875,2.045v4.211c0,1.234-0.617,2.049-1.875,2.049
		c-1.243,0-1.86-0.814-1.86-2.049V117.78z M42.305,122.038c0,0.744,0.313,1.175,0.964,1.175c0.665,0,0.966-0.431,0.966-1.175v-4.304
		c0-0.732-0.301-1.176-0.966-1.176c-0.65,0-0.964,0.443-0.964,1.176V122.038z"/>
	<path d="M47.186,123.958v-7.317h-1.501v-0.826h3.908v0.826h-1.501v7.317H47.186z"/>
	<path d="M53.113,119.421v0.814h-1.99v2.896h2.443v0.826h-3.349v-8.144h3.349v0.826h-2.443v2.78H53.113z"/>
	<path d="M57.994,117.78v0.732h-0.862v-0.778c0-0.732-0.289-1.176-0.952-1.176c-0.653,0-0.954,0.443-0.954,1.176v4.304
		c0,0.734,0.301,1.175,0.954,1.175c0.663,0,0.952-0.44,0.952-1.175v-1.059h0.862v1.012c0,1.234-0.583,2.049-1.838,2.049
		c-1.246,0-1.827-0.814-1.827-2.049v-4.211c0-1.233,0.581-2.045,1.827-2.045C57.411,115.735,57.994,116.547,57.994,117.78z"/>
	<path d="M60.003,123.958v-7.317h-1.501v-0.826h3.908v0.826h-1.501v7.317H60.003z"/>
	<path d="M63.94,115.814v8.144h-0.906v-8.144H63.94z"/>
	<path d="M64.8,117.78c0-1.243,0.617-2.045,1.863-2.045c1.255,0,1.872,0.802,1.872,2.045v4.211c0,1.234-0.617,2.049-1.872,2.049
		c-1.246,0-1.863-0.814-1.863-2.049V117.78z M65.697,122.038c0,0.744,0.315,1.175,0.966,1.175c0.662,0,0.963-0.431,0.963-1.175
		v-4.304c0-0.732-0.301-1.176-0.963-1.176c-0.651,0-0.966,0.443-0.966,1.176V122.038z"/>
	<path d="M70.195,123.958H69.38v-8.144h1.152l1.884,5.886v-5.886h0.803v8.144h-0.942l-2.081-6.585V123.958z"/>
	<g>
		<path class="st0" d="M47.359,25.062c0-3.178-1.99-8.474-9.372-8.474c-2.985,0-7.907,0-7.907,0v32.839h2.096v-15.89h5.758
			C45.266,33.537,47.359,28.239,47.359,25.062z M43.799,29.141c-1.255,1.483-3.246,2.276-5.864,2.276h-5.758V18.706h5.811
			c2.617,0,4.607,0.795,5.864,2.276c1.311,1.643,1.415,3.549,1.415,4.079C45.266,25.591,45.162,27.497,43.799,29.141z"/>
		<path d="M36.34,0C18.521,0,4.069,14.456,4.069,32.274c0,17.819,14.451,32.268,32.271,32.268c17.824,0,32.272-14.448,32.272-32.268
			C68.612,14.456,54.163,0,36.34,0z M65.996,31.443l-0.525,0.013l-0.07-1.354l0.525-0.036L65.996,31.443z M65.892,29.391
			l-0.525,0.048c0.043-0.004-0.173-1.344-0.173-1.344l0.522-0.07C65.716,28.024,65.933,29.386,65.892,29.391z M65.612,27.358
			l-0.518,0.082l-0.214-1.337l0.513-0.109L65.612,27.358z M65.225,25.341l-0.513,0.118l-0.337-1.31l0.506-0.145L65.225,25.341z
			 M64.711,23.351l-0.502,0.154l-0.457-1.274l0.497-0.179L64.711,23.351z M64.015,21.419l-0.489,0.188
			c0,0.002-0.472-1.27-0.506-1.255l0.482-0.212C63.536,20.125,64.015,21.419,64.015,21.419z M63.208,19.529l-0.477,0.225
			l-0.588-1.222l0.467-0.246L63.208,19.529z M62.292,17.691l-0.458,0.255l-0.704-1.158l0.446-0.277L62.292,17.691z M60.856,15.354
			c0.202,0.279,0.371,0.58,0.371,0.58l-0.443,0.287c0,0-0.164-0.299-0.361-0.573c-0.202-0.271-0.405-0.54-0.405-0.54l0.424-0.309
			C60.442,14.8,60.649,15.077,60.856,15.354z M59.208,13.157l0.829,1.104l-0.419,0.315l-0.814-1.084L59.208,13.157z M57.828,11.635
			l0.928,1.021l-0.396,0.345l-0.913-1.003L57.828,11.635z M56.361,10.201l1.012,0.935l-0.371,0.371l-0.998-0.918L56.361,10.201z
			 M54.809,8.854c0.024-0.027,1.05,0.894,1.05,0.894l-0.347,0.396c0,0-1.007-0.904-1.031-0.878L54.809,8.854z M53.163,7.625
			l1.106,0.824l-0.318,0.419l-1.086-0.812L53.163,7.625z M51.427,6.531l1.176,0.716l-0.289,0.438l-1.156-0.703L51.427,6.531z
			 M49.627,5.541c-0.002,0.003,1.238,0.608,1.221,0.639l-0.26,0.458c0.02-0.031-1.2-0.627-1.2-0.627L49.627,5.541z M47.771,4.657
			l1.246,0.593l-0.226,0.472l-1.224-0.58L47.771,4.657z M45.842,3.948l1.296,0.477l-0.192,0.486l-1.272-0.465L45.842,3.948z
			 M43.873,3.366l1.332,0.352l-0.156,0.501l-1.309-0.347L43.873,3.366z M41.876,2.892c0.007-0.039,1.345,0.306,1.345,0.306
			l-0.123,0.511c0,0-1.313-0.34-1.32-0.302L41.876,2.892z M39.843,2.58l1.366,0.207l-0.087,0.52L39.78,3.101L39.843,2.58z
			 M37.797,2.421l1.378,0.07l-0.05,0.523l-1.354-0.067L37.797,2.421z M37.125,2.388l-0.017,0.525c0,0-1.355-0.054-1.355-0.02
			l-0.007-0.525C35.747,2.335,37.125,2.388,37.125,2.388z M35.072,2.402l0.02,0.524l-1.354,0.07l-0.043-0.523L35.072,2.402z
			 M33.02,2.527l0.058,0.522l-1.339,0.205l-0.082-0.52L33.02,2.527z M28.984,3.276l0.128,0.509l-1.313,0.337l-0.152-0.501
			L28.984,3.276z M25.074,4.536l0.198,0.487c-0.015-0.034-1.234,0.549-1.236,0.549l-0.219-0.477
			C23.816,5.096,25.059,4.501,25.074,4.536z M13.543,12.896l0.4,0.34c-0.029-0.024-0.838,1.062-0.838,1.062l-0.415-0.322
			C12.69,13.979,13.514,12.873,13.543,12.896z M12.285,14.519l0.424,0.31c0,0-0.829,1.074-0.8,1.096l-0.436-0.291
			C11.442,15.614,12.285,14.519,12.285,14.519z M11.124,16.212l0.443,0.279l-0.704,1.161l-0.458-0.263L11.124,16.212z
			 M10.059,17.971l0.462,0.251l-0.588,1.219l-0.472-0.227L10.059,17.971z M8.869,20.442c0.149-0.31,0.298-0.621,0.298-0.621
			l0.479,0.217c0,0-0.147,0.306-0.296,0.611c-0.12,0.316-0.241,0.632-0.241,0.632l-0.487-0.192
			C8.623,21.089,8.746,20.766,8.869,20.442z M8.392,21.722l0.492,0.184L8.416,23.18l-0.499-0.161L8.392,21.722z M7.725,23.664
			l0.503,0.149l-0.337,1.312L7.38,25.001L7.725,23.664z M7.211,25.654l0.516,0.113c-0.039-0.005-0.25,1.329-0.25,1.329l-0.521-0.086
			C6.956,27.011,7.175,25.646,7.211,25.654z M6.854,27.676l0.521,0.077L7.17,29.095l-0.523-0.056L6.854,27.676z M6.609,29.714
			l0.525,0.043l-0.067,1.354l-0.525-0.02L6.609,29.714z M6.505,31.767l0.528,0.007c-0.041,0,0.034,1.351,0.034,1.351l-0.525,0.02
			C6.541,33.145,6.464,31.767,6.505,31.767z M6.575,33.819l0.523-0.029l0.072,1.354l-0.523,0.053L6.575,33.819z M6.748,35.864
			L7.269,35.8l0.207,1.339l-0.521,0.09L6.748,35.864z M7.059,37.896l0.516-0.102c-0.041,0.01,0.315,1.318,0.315,1.318L7.38,39.237
			C7.38,39.237,7.018,37.905,7.059,37.896z M7.549,39.891l0.506-0.135c0,0,0.323,1.315,0.361,1.303l-0.499,0.162
			C7.876,41.232,7.549,39.891,7.549,39.891z M8.148,41.854l0.499-0.172l0.462,1.273L8.623,43.15L8.148,41.854z M8.864,43.781
			l0.481-0.204l0.588,1.219l-0.472,0.229L8.864,43.781z M9.755,45.634l0.467-0.24c-0.024,0.014,0.612,1.209,0.641,1.192l-0.458,0.26
			C10.377,46.863,9.731,45.644,9.755,45.634z M10.758,47.425l0.448-0.272l0.703,1.161l-0.436,0.289L10.758,47.425z M11.861,49.154
			l0.434-0.302l0.81,1.085L12.69,50.26L11.861,49.154z M13.996,51.841c0,0-0.933-1.017-0.901-1.041l0.407-0.33
			c-0.029,0.026,0.889,1.023,0.889,1.023L13.996,51.841z M13.996,12.396l0.93-1.021l0.376,0.366l-0.911,1.005L13.996,12.396z
			 M15.398,53.344c-0.029,0.029-0.947-1.002-0.947-1.002l0.386-0.356c0,0,0.901,1.012,0.927,0.985L15.398,53.344z M15.398,10.893
			l1.019-0.928l0.352,0.39l-1.005,0.914L15.398,10.893z M16.916,54.727l-1.02-0.927l0.359-0.384l1.002,0.911L16.916,54.727z
			 M16.916,9.51c0,0,0.248-0.241,0.52-0.453c0.274-0.207,0.554-0.415,0.554-0.415l0.323,0.415c0,0-0.272,0.204-0.545,0.407
			c-0.267,0.207-0.511,0.445-0.511,0.445L16.916,9.51z M18.53,55.999l-1.104-0.829l0.333-0.404l1.084,0.809L18.53,55.999z
			 M18.53,8.237l1.106-0.821l0.294,0.436l-1.087,0.81L18.53,8.237z M20.212,57.172c-0.015,0.027-1.159-0.744-1.142-0.769
			l0.304-0.429c-0.015,0.024,1.108,0.781,1.123,0.757L20.212,57.172z M20.212,7.063l1.181-0.715l0.262,0.453l-1.159,0.705
			L20.212,7.063z M21.971,58.239l-1.181-0.715l0.274-0.451l1.157,0.706L21.971,58.239z M21.971,5.997l1.238-0.607l0.231,0.472
			l-1.219,0.598L21.971,5.997z M23.816,59.141l-1.243-0.598l0.241-0.467l1.224,0.588L23.816,59.141z M25.71,59.934
			c0,0-1.301-0.46-1.287-0.499l0.212-0.481c-0.017,0.038,1.262,0.489,1.262,0.489L25.71,59.934z M25.71,4.303l1.296-0.475
			l0.164,0.501l-1.272,0.465L25.71,4.303z M27.647,60.615c-0.012,0.041-1.301-0.448-1.301-0.448l0.174-0.496
			c0,0,1.267,0.482,1.281,0.443L27.647,60.615z M29.637,61.128l-1.335-0.344l0.14-0.506l1.311,0.337L29.637,61.128z M29.637,3.108
			c-0.005-0.032,1.345-0.299,1.351-0.272l0.094,0.52c-0.007-0.029-1.334,0.23-1.33,0.265L29.637,3.108z M31.656,61.502l-1.364-0.21
			l0.106-0.513l1.339,0.202L31.656,61.502z M33.694,61.762c-0.005,0.039-1.369-0.159-1.369-0.159l0.067-0.52
			c0,0,1.339,0.192,1.344,0.156L33.694,61.762z M35.747,61.868l-1.378-0.072l0.034-0.523l1.354,0.07L35.747,61.868z M36.421,61.883
			l-0.005-0.525l1.354-0.067l0.029,0.525L36.421,61.883z M32.176,33.537v15.89H30.08V16.588c0,0,4.922,0,7.907,0
			c7.382,0,9.372,5.296,9.372,8.474c0,3.178-2.093,8.476-9.425,8.476H32.176z M39.161,61.745c-0.345,0.017-0.689,0.036-0.689,0.036
			l-0.039-0.525c0,0,0.34-0.017,0.677-0.033c0.337-0.024,0.672-0.087,0.672-0.087l0.063,0.521
			C39.845,61.656,39.505,61.724,39.161,61.745z M40.513,61.555l-0.075-0.521l1.34-0.205l0.099,0.516L40.513,61.555z M42.536,61.215
			l-0.108-0.513l1.313-0.338l0.135,0.506L42.536,61.215z M45.196,60.523c-0.335,0.089-0.668,0.179-0.668,0.179l-0.147-0.504
			c0,0,0.328-0.089,0.655-0.176c0.318-0.115,0.636-0.233,0.636-0.233l0.169,0.498C45.842,60.287,45.519,60.403,45.196,60.523z
			 M46.477,60.054l-0.183-0.494l1.272-0.465l0.205,0.484L46.477,60.054z M48.384,59.295l-0.215-0.481l1.222-0.588l0.236,0.47
			L48.384,59.295z M50.236,58.403l-0.248-0.465c0.019,0.036,1.169-0.685,1.169-0.685l0.27,0.451
			C51.427,57.705,50.256,58.438,50.236,58.403z M52.002,57.355l-0.277-0.446c0,0,1.162-0.698,1.14-0.729l0.301,0.432
			C53.185,56.645,52.002,57.355,52.002,57.355z M53.705,56.209l-0.308-0.427l1.084-0.81l0.328,0.409L53.705,56.209z M55.339,54.963
			l-0.337-0.404l1.002-0.911l0.357,0.388L55.339,54.963z M57.365,53.112c-0.253,0.234-0.506,0.468-0.506,0.468l-0.364-0.378
			c0,0,0.248-0.232,0.497-0.461c0.226-0.25,0.455-0.503,0.455-0.503l0.383,0.363C57.83,52.602,57.597,52.857,57.365,53.112z
			 M58.283,52.101l-0.39-0.352l0.913-1.002l0.405,0.332L58.283,52.101z M59.618,50.54l-0.415-0.323l0.814-1.087l0.426,0.307
			L59.618,50.54z M60.847,48.896l-0.434-0.299c0.026,0.02,0.718-1.149,0.718-1.149l0.448,0.277
			C61.579,47.726,60.873,48.911,60.847,48.896z M61.929,47.147l-0.456-0.266c0,0,0.704-1.161,0.672-1.176l0.465,0.244
			C62.644,45.967,61.926,47.147,61.929,47.147z M62.904,45.341l-0.472-0.234l0.588-1.222l0.482,0.212L62.904,45.341z M63.771,43.48
			l-0.484-0.202l0.465-1.272l0.497,0.179L63.771,43.48z M64.711,40.9c-0.116,0.325-0.232,0.65-0.232,0.65l-0.498-0.167
			c0,0,0.113-0.32,0.227-0.641c0.084-0.327,0.168-0.655,0.168-0.655l0.503,0.145C64.88,40.232,64.796,40.565,64.711,40.9z
			 M65.049,39.577l-0.509-0.13l0.34-1.313l0.513,0.108L65.049,39.577z M65.506,37.577l-0.516-0.096l0.205-1.34l0.521,0.07
			L65.506,37.577z M65.817,35.544l-0.523-0.058c0.039,0.003,0.106-1.352,0.106-1.352l0.525,0.036
			C65.926,34.171,65.858,35.549,65.817,35.544z M65.434,33.472l0.07-1.354h0.525l-0.07,1.378L65.434,33.472z"/>
		<path d="M37.987,18.706h-5.811v12.711h5.758c2.619,0,4.609-0.793,5.864-2.276c1.363-1.644,1.467-3.55,1.467-4.079
			c0-0.53-0.104-2.436-1.415-4.079C42.594,19.501,40.604,18.706,37.987,18.706z"/>
	</g>
</g>
</svg>