<!-- Generator: Adobe Illustrator 21.1.0, SVG Export Plug-In  -->
<svg version="1.1"
	 xmlns="http://www.w3.org/2000/svg" xmlns:xlink="http://www.w3.org/1999/xlink" xmlns:a="http://ns.adobe.com/AdobeSVGViewerExtensions/3.0/"
	 x="0px" y="0px" width="78.188px" height="81.506px" viewBox="0 0 78.188 81.506"
	 style="enable-background:new 0 0 78.188 81.506;" xml:space="preserve">
<style type="text/css">
	.st0{fill:none;}
</style>
<defs>
</defs>
<g>
	<rect x="24.516" y="42.822" class="st0" width="26.426" height="1.296"/>
	<path class="st0" d="M49.498,47.944c-0.108-0.092-0.229-0.161-0.379-0.21c-0.141-0.051-0.301-0.074-0.48-0.074
		c-0.371,0-0.662,0.094-0.867,0.281c-0.207,0.189-0.315,0.448-0.315,0.774v6.691c0,0.163,0.029,0.311,0.084,0.443
		c0.057,0.127,0.139,0.238,0.242,0.33c0.104,0.091,0.225,0.163,0.373,0.212c0.142,0.046,0.303,0.072,0.482,0.072
		c0.375,0,0.662-0.092,0.871-0.282c0.207-0.191,0.31-0.445,0.31-0.775v-2.682c0-0.036-0.008-0.062-0.031-0.094
		c-0.022-0.02-0.053-0.034-0.094-0.034h-0.359c-0.105,0.005-0.197,0.038-0.25,0.108c-0.057,0.065-0.088,0.156-0.088,0.263v2.438
		c0,0.115-0.027,0.202-0.09,0.268c-0.059,0.064-0.15,0.101-0.269,0.101c-0.121,0-0.211-0.036-0.266-0.101
		c-0.059-0.065-0.092-0.152-0.092-0.268v-6.691c0-0.108,0.033-0.194,0.092-0.267c0.059-0.067,0.15-0.097,0.266-0.097
		c0.125,0,0.217,0.029,0.269,0.097c0.063,0.072,0.09,0.159,0.09,0.267v2.518c0,0.11,0.031,0.197,0.088,0.265
		c0.058,0.067,0.146,0.105,0.266,0.105h0.344c0.041,0,0.072-0.014,0.094-0.038c0.023-0.026,0.031-0.058,0.031-0.094v-2.757
		c0-0.158-0.031-0.308-0.084-0.436C49.68,48.146,49.602,48.038,49.498,47.944z"/>
	<path class="st0" d="M44.424,47.759h-1.639c-0.041,0-0.072,0.012-0.09,0.038c-0.023,0.022-0.031,0.054-0.031,0.095v8.346
		c0,0.038,0.008,0.069,0.031,0.091c0.018,0.027,0.049,0.039,0.09,0.039h1.639c0.041,0,0.07-0.012,0.094-0.033
		c0.022-0.02,0.045-0.049,0.045-0.092v-0.207c0-0.109-0.035-0.19-0.092-0.261c-0.061-0.065-0.135-0.099-0.223-0.099h-0.762v-3.229
		h0.635c0.094,0,0.168-0.029,0.227-0.094c0.06-0.067,0.084-0.154,0.084-0.261v-0.212c0-0.036-0.01-0.069-0.033-0.092
		c-0.029-0.019-0.053-0.028-0.094-0.028h-0.818v-3.317h0.762c0.088,0,0.162-0.029,0.223-0.092c0.057-0.067,0.092-0.154,0.092-0.26
		v-0.21c0-0.041-0.023-0.075-0.045-0.094C44.494,47.766,44.465,47.759,44.424,47.759z"/>
	<path class="st0" d="M53.602,36.92c0-0.389-0.037-0.651-0.109-0.788c-0.074-0.135-0.223-0.248-0.455-0.328
		c-0.197-0.289-0.424-0.431-0.686-0.431c-0.471,0-0.943,0.183-1.42,0.544c-0.473,0.361-0.859,0.808-1.16,1.337
		c-0.299,0.528-0.447,1.018-0.447,1.463c0,0.54,0.152,1,0.451,1.383c0.307,0.383,0.602,0.573,0.896,0.573
		c0.279,0,0.654-0.186,1.133-0.559c0.471-0.371,0.891-0.851,1.254-1.434C53.42,38.098,53.602,37.512,53.602,36.92z M52.502,37.57
		c-0.182,0.412-0.434,0.821-0.75,1.221c-0.299,0.364-0.57,0.605-0.814,0.726c-0.242,0.12-0.434,0.113-0.578-0.02
		c-0.141-0.132-0.213-0.376-0.213-0.725c0-0.466,0.154-0.895,0.463-1.289c0.309-0.396,0.658-0.714,1.051-0.952
		c0.393-0.236,0.664-0.356,0.826-0.356c0.197,0,0.295,0.149,0.295,0.45C52.781,36.84,52.691,37.155,52.502,37.57z"/>
	<path class="st0" d="M67.295,56.367h0.346c0.117,0,0.209-0.036,0.272-0.102c0.061-0.069,0.092-0.156,0.082-0.262l-0.057-4.309
		c0.033,0.2,0.072,0.448,0.125,0.732c0.047,0.277,0.104,0.578,0.158,0.89c0.061,0.306,0.115,0.616,0.176,0.923
		c0.057,0.306,0.109,0.588,0.156,0.843c0.049,0.261,0.082,0.475,0.119,0.655c0.031,0.181,0.043,0.297,0.043,0.345
		c0.018,0.089,0.051,0.154,0.107,0.212c0.059,0.043,0.137,0.072,0.242,0.072h0.346c0.039,0,0.068-0.012,0.098-0.039
		c0.02-0.021,0.023-0.053,0.023-0.091v-8.346c0-0.041-0.004-0.072-0.023-0.095c-0.029-0.026-0.059-0.038-0.098-0.038h-0.346
		c-0.105,0-0.188,0.029-0.25,0.082c-0.07,0.062-0.102,0.138-0.102,0.229l0.062,4.57c-0.043-0.176-0.092-0.398-0.141-0.674
		c-0.057-0.275-0.107-0.571-0.164-0.892c-0.053-0.315-0.109-0.641-0.162-0.974c-0.055-0.327-0.102-0.631-0.143-0.913
		c-0.051-0.279-0.088-0.521-0.113-0.726c-0.031-0.202-0.049-0.339-0.059-0.402c-0.004-0.091-0.041-0.161-0.105-0.219
		c-0.063-0.053-0.145-0.082-0.248-0.082h-0.346c-0.041,0-0.072,0.012-0.094,0.038c-0.016,0.022-0.025,0.054-0.025,0.095v8.346
		c0,0.038,0.01,0.069,0.025,0.091C67.223,56.355,67.254,56.367,67.295,56.367z"/>
	<path class="st0" d="M39.627,47.759h-1.951c-0.033,0-0.066,0.007-0.09,0.029c-0.023,0.019-0.035,0.053-0.035,0.094v0.21
		c0,0.105,0.027,0.192,0.084,0.26c0.055,0.062,0.135,0.092,0.225,0.092h0.385v7.7c0,0.064,0.02,0.112,0.063,0.158
		c0.043,0.041,0.094,0.065,0.16,0.065h0.381c0.059,0,0.107-0.024,0.158-0.065c0.041-0.046,0.059-0.094,0.059-0.158v-7.7h0.381
		c0.1,0,0.172-0.029,0.231-0.092c0.053-0.067,0.082-0.154,0.082-0.26v-0.21c0-0.041-0.016-0.075-0.033-0.094
		C39.699,47.766,39.668,47.759,39.627,47.759z"/>
	<path class="st0" d="M12.609,9.264c0.25-0.564,0.377-1.627,0.377-3.181V5.71c0-1.328-0.127-2.27-0.371-2.829
		c-0.248-0.557-0.732-0.834-1.459-0.834H9.459v8.064h1.633C11.853,10.111,12.359,9.827,12.609,9.264z"/>
	<path class="st0" d="M31.508,74.799H30.6v5.288h0.836c0.391,0,0.65-0.174,0.785-0.523c0.133-0.347,0.201-1.012,0.201-1.989v-0.461
		c0-0.857-0.062-1.457-0.186-1.8C32.113,74.969,31.871,74.799,31.508,74.799z"/>
	<path class="st0" d="M30.68,17.864c0.732,0,1.219-0.268,1.459-0.807c0.246-0.538,0.367-1.54,0.367-3v-8.69
		c0-1.238-0.115-2.115-0.352-2.633c-0.232-0.519-0.703-0.776-1.412-0.776s-1.199,0.266-1.477,0.793
		c-0.277,0.527-0.412,1.397-0.412,2.605v8.702c0,1.475,0.119,2.479,0.361,3.012C29.455,17.602,29.941,17.864,30.68,17.864z"/>
	<path class="st0" d="M34.562,47.944c-0.105-0.092-0.232-0.161-0.375-0.21c-0.15-0.051-0.309-0.074-0.484-0.074
		c-0.369,0-0.658,0.094-0.869,0.281c-0.203,0.189-0.309,0.448-0.309,0.774v6.691c0,0.163,0.025,0.311,0.084,0.443
		c0.055,0.127,0.135,0.238,0.238,0.33c0.105,0.091,0.23,0.163,0.371,0.212c0.145,0.046,0.309,0.072,0.484,0.072
		c0.375,0,0.658-0.092,0.869-0.282c0.211-0.191,0.309-0.445,0.309-0.775v-6.691c0-0.158-0.023-0.308-0.082-0.436
		C34.746,48.146,34.666,48.038,34.562,47.944z M34.064,55.406c0,0.113-0.033,0.202-0.09,0.268c-0.062,0.064-0.15,0.101-0.271,0.101
		c-0.121,0-0.209-0.036-0.267-0.101c-0.059-0.065-0.086-0.154-0.086-0.268v-6.691c0-0.105,0.027-0.197,0.088-0.265
		c0.061-0.069,0.15-0.099,0.266-0.099c0.125,0,0.215,0.029,0.271,0.099c0.057,0.067,0.09,0.159,0.09,0.265V55.406z"/>
	<path class="st0" d="M39.928,69.216c-0.363,0-0.613,0.181-0.754,0.545c-0.141,0.363-0.211,0.961-0.211,1.792v5.984
		c0,1.013,0.062,1.701,0.186,2.067c0.123,0.366,0.373,0.55,0.744,0.55c0.375,0,0.627-0.185,0.746-0.557
		c0.127-0.371,0.189-1.058,0.189-2.061v-5.977c0-0.851-0.062-1.455-0.18-1.81C40.529,69.395,40.287,69.216,39.928,69.216z"/>
	<path class="st0" d="M22.744,69.276h-0.861v4.493h0.875c0.266,0,0.455-0.058,0.578-0.174c0.125-0.115,0.213-0.34,0.266-0.664
		c0.053-0.328,0.078-0.844,0.078-1.545v-0.092c0-1.023-0.082-1.614-0.242-1.775C23.277,69.358,23.047,69.276,22.744,69.276z"/>
	<path class="st0" d="M31.938,73.446c0.111-0.096,0.191-0.291,0.24-0.583c0.049-0.294,0.072-0.773,0.072-1.438v-0.371
		c0-0.015,0-0.029,0-0.044c0-0.889-0.135-1.414-0.404-1.573c-0.131-0.082-0.322-0.12-0.574-0.12H30.6v4.278h0.773
		C31.633,73.596,31.822,73.548,31.938,73.446z"/>
	<polygon class="st0" points="57.379,70.502 56.533,77.537 58.316,77.537 57.398,70.502 	"/>
	<path class="st0" d="M29.131,48.048c-0.104-0.092-0.225-0.156-0.371-0.212c-0.141-0.053-0.301-0.077-0.475-0.077h-1.072
		c-0.041,0-0.07,0.012-0.094,0.038c-0.02,0.022-0.031,0.054-0.031,0.095v8.346c0,0.038,0.012,0.069,0.031,0.091
		c0.023,0.027,0.053,0.039,0.094,0.039h0.342c0.123,0,0.209-0.036,0.268-0.102c0.057-0.069,0.092-0.156,0.092-0.262v-3.217h0.355
		c0.125,0,0.215,0.036,0.275,0.102c0.053,0.069,0.08,0.158,0.08,0.27v2.846c0,0.106,0.031,0.192,0.088,0.262
		c0.059,0.066,0.15,0.102,0.269,0.102h0.344c0.037,0,0.072-0.012,0.09-0.039c0.018-0.021,0.035-0.053,0.035-0.091v-3.079
		c0-0.174-0.039-0.323-0.111-0.434c-0.07-0.113-0.168-0.205-0.295-0.277c0.127-0.067,0.225-0.159,0.295-0.272
		c0.072-0.118,0.111-0.263,0.111-0.44v-2.916c0-0.163-0.035-0.308-0.088-0.438C29.311,48.248,29.228,48.14,29.131,48.048z
		 M28.625,51.734c0,0.105-0.027,0.195-0.086,0.26c-0.055,0.067-0.145,0.103-0.27,0.103H27.91v-3.654h0.359
		c0.121,0,0.207,0.041,0.27,0.108c0.059,0.069,0.086,0.159,0.086,0.267V51.734z"/>
	<polygon class="st0" points="14.086,70.502 13.24,77.537 15.023,77.537 14.107,70.502 	"/>
	<path class="st0" d="M23.688,48.048c-0.096-0.097-0.221-0.166-0.371-0.214c-0.146-0.051-0.309-0.075-0.478-0.075h-1.059
		c-0.049,0-0.076,0.012-0.096,0.038c-0.02,0.022-0.027,0.054-0.027,0.095v8.346c0,0.038,0.008,0.069,0.027,0.091
		c0.02,0.027,0.047,0.039,0.096,0.039h0.342c0.115,0,0.211-0.036,0.266-0.102c0.062-0.069,0.092-0.156,0.092-0.262v-2.867h0.359
		c0.367,0,0.66-0.092,0.863-0.28c0.209-0.188,0.309-0.445,0.309-0.775v-3.263c0-0.168-0.025-0.312-0.076-0.441
		C23.875,48.248,23.797,48.14,23.688,48.048z M23.186,52.081c0,0.108-0.024,0.192-0.078,0.265c-0.059,0.072-0.146,0.104-0.275,0.104
		h-0.353v-4.006h0.353c0.129,0,0.219,0.041,0.277,0.108c0.055,0.069,0.076,0.159,0.076,0.267V52.081z"/>
	<path class="st0" d="M25.471,38.623c0.242,0.521,0.568,0.92,0.973,1.199c0.41,0.279,0.846,0.422,1.31,0.422
		c0.598,0,1.365-0.332,2.299-0.995c0.838-0.59,1.576-1.342,2.221-2.253c0.646-0.91,1.152-1.884,1.51-2.922
		c0.361-1.039,0.539-2.007,0.539-2.903c0-0.593-0.068-1.038-0.203-1.342c-0.139-0.302-0.355-0.521-0.654-0.653
		c-0.043-0.434-0.275-0.693-0.69-0.785c-0.637-0.138-1.396,0.024-2.283,0.489c-0.893,0.462-1.744,1.125-2.562,1.985
		c-0.816,0.859-1.49,1.823-2.023,2.889c-0.531,1.067-0.797,2.084-0.797,3.053C25.109,37.5,25.23,38.104,25.471,38.623z
		 M26.949,35.426c0.34-0.793,0.84-1.612,1.5-2.46c0.408-0.511,0.799-0.933,1.17-1.27c0.377-0.338,0.703-0.598,0.988-0.783
		c0.289-0.183,0.619-0.371,0.994-0.561l-0.334,0.696c0.338-0.309,0.611-0.532,0.828-0.68c0.213-0.145,0.414-0.219,0.605-0.219
		c0.205,0,0.373,0.084,0.506,0.253c0.133,0.169,0.199,0.404,0.199,0.713c0,0.475-0.119,1.053-0.365,1.726
		c-0.246,0.677-0.6,1.361-1.063,2.055c-0.461,0.694-0.996,1.32-1.607,1.88c-0.637,0.58-1.24,1.035-1.809,1.368
		c-0.572,0.33-1.008,0.496-1.314,0.496c-0.535,0-0.805-0.4-0.805-1.195C26.443,36.891,26.613,36.219,26.949,35.426z"/>
	<path class="st0" d="M62.061,56.18c0.103,0.091,0.228,0.163,0.371,0.212c0.146,0.046,0.31,0.072,0.488,0.072
		c0.371,0,0.66-0.092,0.865-0.282c0.209-0.191,0.313-0.445,0.313-0.775v-6.691c0-0.158-0.025-0.308-0.08-0.436
		c-0.057-0.133-0.139-0.241-0.246-0.335c-0.1-0.092-0.225-0.161-0.371-0.21c-0.145-0.051-0.307-0.074-0.48-0.074
		c-0.375,0-0.664,0.094-0.869,0.281c-0.209,0.189-0.316,0.448-0.316,0.774v6.691c0,0.163,0.029,0.311,0.086,0.443
		C61.875,55.977,61.955,56.088,62.061,56.18z M62.561,48.715c0-0.105,0.033-0.194,0.09-0.265c0.062-0.069,0.15-0.099,0.27-0.099
		c0.121,0,0.213,0.029,0.27,0.099c0.059,0.07,0.082,0.159,0.082,0.265v6.691c0,0.113-0.023,0.202-0.086,0.268
		c-0.059,0.064-0.145,0.101-0.266,0.101c-0.125,0-0.215-0.036-0.277-0.101c-0.049-0.065-0.082-0.154-0.082-0.268V48.715z"/>
	<path class="st0" d="M21.559,40.109c0.191,0.089,0.336,0.128,0.443,0.115c0.105-0.014,0.156-0.11,0.156-0.296
		c0-0.111-0.021-0.272-0.066-0.489c-0.047-0.215-0.066-0.34-0.066-0.371c0-0.391,0.186-1.123,0.559-2.202
		c0.371-1.077,0.935-2.45,1.688-4.11c0.275-0.604,0.51-1.108,0.697-1.51c0.189-0.4,0.338-0.757,0.443-1.068
		c0.111-0.312,0.164-0.595,0.164-0.85c0-0.465-0.174-0.952-0.525-1.46c-0.394,0.214-0.746,0.426-1.055,0.628
		c-0.309,0.205-0.607,0.417-0.896,0.642c-0.289,0.222-0.551,0.429-0.791,0.619c-0.232,0.192-0.465,0.39-0.693,0.595v0.781
		c0.789-0.497,1.543-0.894,2.264-1.193c-0.334,0.559-0.684,1.174-1.059,1.839c-0.371,0.665-0.709,1.32-1.018,1.971
		c-0.303,0.65-0.572,1.301-0.799,1.958c-0.453,1.299-0.678,2.258-0.678,2.875c0,0.342,0.08,0.624,0.246,0.841
		C20.738,39.637,21.066,39.868,21.559,40.109z"/>
	<path class="st0" d="M12.586,56.328c0.019,0.027,0.049,0.039,0.086,0.039h0.695c0.035,0,0.063-0.012,0.078-0.039
		c0.025-0.021,0.037-0.053,0.041-0.086l0.734-8.329c0.008-0.038-0.004-0.072-0.031-0.106c-0.024-0.028-0.072-0.048-0.125-0.048
		h-0.301c-0.1,0-0.19,0.029-0.256,0.089c-0.066,0.061-0.104,0.131-0.109,0.22l-0.385,6.462l-0.373-6.462
		c-0.01-0.089-0.051-0.159-0.117-0.22c-0.062-0.06-0.152-0.089-0.256-0.089h-0.299c-0.059,0-0.1,0.02-0.125,0.048
		c-0.027,0.034-0.039,0.068-0.031,0.106l0.734,8.329C12.553,56.275,12.562,56.307,12.586,56.328z"/>
	<path class="st0" d="M34.037,38.623c0.242,0.521,0.566,0.92,0.975,1.199c0.406,0.279,0.844,0.422,1.305,0.422
		c0.604,0,1.367-0.332,2.305-0.995c0.832-0.59,1.574-1.342,2.221-2.253c0.646-0.91,1.146-1.884,1.508-2.922
		c0.359-1.039,0.537-2.007,0.537-2.903c0-0.593-0.064-1.038-0.205-1.342c-0.135-0.302-0.354-0.521-0.654-0.653
		c-0.043-0.434-0.273-0.693-0.684-0.785c-0.637-0.138-1.402,0.024-2.289,0.489c-0.887,0.462-1.742,1.125-2.559,1.985
		c-0.818,0.859-1.494,1.823-2.025,2.889c-0.531,1.067-0.799,2.084-0.799,3.053C33.672,37.5,33.793,38.104,34.037,38.623z
		 M35.518,35.426c0.338-0.793,0.836-1.612,1.498-2.46c0.41-0.511,0.797-0.933,1.172-1.27c0.371-0.338,0.701-0.598,0.986-0.783
		c0.287-0.183,0.617-0.371,0.994-0.561l-0.334,0.696c0.336-0.309,0.613-0.532,0.824-0.68c0.215-0.145,0.418-0.219,0.607-0.219
		c0.203,0,0.373,0.084,0.506,0.253c0.135,0.169,0.203,0.404,0.203,0.713c0,0.475-0.125,1.053-0.371,1.726
		c-0.242,0.677-0.598,1.361-1.061,2.055c-0.457,0.694-0.994,1.32-1.609,1.88c-0.637,0.58-1.238,1.035-1.807,1.368
		c-0.572,0.33-1.008,0.496-1.316,0.496c-0.531,0-0.799-0.4-0.799-1.195C35.012,36.891,35.18,36.219,35.518,35.426z"/>
	<path class="st0" d="M6.842,56.18c0.106,0.091,0.227,0.163,0.371,0.212c0.147,0.046,0.309,0.072,0.486,0.072
		c0.379,0,0.666-0.092,0.875-0.282c0.199-0.191,0.303-0.445,0.303-0.775v-7.515c0-0.041-0.006-0.072-0.025-0.095
		c-0.021-0.026-0.053-0.038-0.094-0.038h-0.34c-0.111,0-0.197,0.029-0.26,0.082c-0.068,0.062-0.098,0.138-0.098,0.229v7.337
		c0,0.115-0.029,0.202-0.092,0.268c-0.057,0.064-0.148,0.101-0.27,0.101c-0.119,0-0.211-0.036-0.269-0.101
		c-0.053-0.065-0.082-0.152-0.082-0.268v-7.337c0-0.091-0.039-0.166-0.098-0.229c-0.066-0.053-0.158-0.082-0.264-0.082H6.644
		c-0.041,0-0.072,0.012-0.094,0.038c-0.019,0.022-0.031,0.054-0.031,0.095v7.515c0,0.163,0.031,0.311,0.084,0.443
		C6.656,55.977,6.738,56.088,6.842,56.18z"/>
	<path class="st0" d="M52.758,47.788c-0.021,0.019-0.033,0.053-0.033,0.094v0.21c0,0.105,0.029,0.192,0.082,0.26
		c0.06,0.062,0.135,0.092,0.23,0.092h0.381v7.7c0,0.064,0.02,0.112,0.064,0.158c0.047,0.041,0.096,0.065,0.158,0.065h0.381
		c0.062,0,0.115-0.024,0.158-0.065c0.039-0.046,0.062-0.094,0.062-0.158v-7.7h0.381c0.09,0,0.168-0.029,0.226-0.092
		c0.057-0.067,0.086-0.154,0.086-0.26v-0.21c0-0.041-0.014-0.075-0.035-0.094c-0.027-0.023-0.061-0.029-0.094-0.029h-1.953
		C52.816,47.759,52.781,47.766,52.758,47.788z"/>
	<path class="st0" d="M58.057,56.367h0.387c0.057,0,0.111-0.024,0.154-0.065c0.043-0.046,0.068-0.094,0.068-0.158v-8.252
		c0-0.041-0.012-0.072-0.037-0.095c-0.016-0.026-0.047-0.038-0.088-0.038h-0.346c-0.107,0-0.189,0.029-0.254,0.082
		c-0.07,0.062-0.105,0.138-0.105,0.229v8.074c0,0.064,0.025,0.112,0.064,0.158C57.947,56.343,58,56.367,58.057,56.367z"/>
	<path class="st0" d="M46.488,34.312c0.555,0,1.076-0.217,1.572-0.655c0.49-0.437,0.887-0.966,1.178-1.593
		c0.291-0.629,0.438-1.199,0.438-1.713c0-0.309-0.045-0.527-0.141-0.665c-0.098-0.137-0.238-0.231-0.432-0.284
		c-0.094-0.164-0.191-0.287-0.289-0.366c-0.1-0.077-0.238-0.12-0.418-0.12c-0.531,0-1.065,0.186-1.594,0.554
		c-0.527,0.371-0.955,0.834-1.277,1.396c-0.326,0.561-0.486,1.117-0.486,1.672c0,0.547,0.135,0.98,0.41,1.299
		C45.723,34.153,46.068,34.312,46.488,34.312z M46.426,31.25c0.232-0.385,0.496-0.705,0.799-0.971
		c0.299-0.265,0.488-0.398,0.572-0.398c0.018,0,0.039,0.007,0.062,0.02c0.021,0.012,0.039,0.024,0.051,0.038
		c0.111,0.062,0.273,0.07,0.492,0.019c0.221-0.051,0.342-0.077,0.365-0.077c0.199,0,0.299,0.174,0.299,0.525
		c0,0.299-0.115,0.667-0.34,1.101c-0.223,0.437-0.527,0.815-0.902,1.133c-0.377,0.318-0.762,0.479-1.164,0.479
		c-0.156,0-0.297-0.062-0.412-0.188c-0.113-0.122-0.172-0.289-0.172-0.488C46.076,32.033,46.193,31.636,46.426,31.25z"/>
	<path class="st0" d="M44.74,41.179c0.102,0,0.207-0.062,0.315-0.186c0.109-0.125,0.303-0.385,0.584-0.785
		c0.281-0.397,0.623-0.862,1.029-1.397c0.408-0.535,0.842-1.067,1.301-1.595c0.916-1.058,1.767-1.983,2.553-2.78
		c0.787-0.793,1.553-1.545,2.299-2.253c0.744-0.706,1.244-1.214,1.498-1.522c0.254-0.309,0.381-0.578,0.381-0.807
		c0-0.299-0.096-0.398-0.289-0.297c-0.197,0.101-0.527,0.366-0.996,0.795c-0.117,0.106-0.506,0.434-1.166,0.976
		c-0.664,0.547-1.16,0.957-1.492,1.238c-0.33,0.28-0.787,0.694-1.369,1.241c-0.582,0.547-1.191,1.156-1.828,1.824
		c-1.324,1.399-2.221,2.383-2.684,2.946c-0.465,0.563-0.697,0.992-0.697,1.294c0,0.222,0.061,0.496,0.182,0.821
		C44.48,41.016,44.607,41.179,44.74,41.179z"/>
	<path d="M9.459,12.003h1.904c1.32,0,2.307-0.304,2.957-0.909c0.646-0.604,1.055-1.565,1.228-2.886
		c0.078-0.602,0.115-1.501,0.115-2.696c0-1.194-0.164-2.24-0.49-3.137c-0.519-1.422-1.789-2.132-3.811-2.132H6.779v19.36h2.68
		V12.003z M9.459,2.047h1.697c0.727,0,1.211,0.277,1.459,0.834c0.244,0.559,0.371,1.501,0.371,2.829v0.373
		c0,1.554-0.127,2.616-0.377,3.181c-0.25,0.564-0.756,0.848-1.518,0.848H9.459V2.047z"/>
	<path d="M30.699,19.823c1.66,0,2.826-0.458,3.488-1.381c0.668-0.918,0.998-2.388,0.998-4.404V5.5c0-1.4-0.168-2.523-0.502-3.366
		C34.109,0.713,32.807,0,30.768,0c-1.398,0-2.467,0.322-3.201,0.968C26.637,1.79,26.17,3.301,26.17,5.5v8.538
		c0,2.01,0.336,3.477,1.016,4.399C27.863,19.363,29.037,19.823,30.699,19.823z M28.853,5.356c0-1.207,0.135-2.077,0.412-2.605
		c0.277-0.527,0.768-0.793,1.477-0.793s1.18,0.258,1.412,0.776c0.236,0.518,0.352,1.395,0.352,2.633v8.69
		c0,1.46-0.121,2.462-0.367,3c-0.24,0.539-0.727,0.807-1.459,0.807c-0.738,0-1.225-0.263-1.465-0.795
		c-0.242-0.532-0.361-1.537-0.361-3.012V5.356z"/>
	<polygon points="53.674,17.725 49.463,17.725 49.463,0.243 46.781,0.243 46.781,19.604 53.674,19.604 	"/>
	<polygon points="65.951,19.604 68.635,19.604 68.635,11.475 72.316,0.243 69.684,0.243 67.34,8.162 67.285,8.162 64.592,0.243 
		61.988,0.243 65.951,11.475 	"/>
	<path d="M6.74,77.453c0,1.008-0.06,1.713-0.183,2.118c-0.119,0.404-0.361,0.604-0.719,0.604c-0.359,0-0.6-0.197-0.727-0.6
		c-0.125-0.402-0.188-1.106-0.188-2.115v-5.764c0-0.853,0.068-1.477,0.207-1.872c0.139-0.395,0.391-0.593,0.758-0.593
		c0.172,0,0.32,0.049,0.434,0.147c0.115,0.099,0.213,0.296,0.295,0.598c0.08,0.299,0.123,0.874,0.123,1.728v1.483h1.34v-1.474
		c0-0.964-0.084-1.737-0.25-2.318c-0.289-1.007-0.939-1.513-1.941-1.521c-0.719,0.008-1.266,0.251-1.639,0.737
		c-0.172,0.22-0.332,0.569-0.477,1.041c-0.147,0.475-0.219,1.217-0.219,2.224v5.546c0,1.367,0.18,2.389,0.531,3.066
		c0.35,0.679,0.941,1.017,1.767,1.017c0.83,0,1.408-0.325,1.74-0.985c0.334-0.658,0.502-1.685,0.502-3.082v-1.46H6.74V77.453z"/>
	<path d="M13.25,68.038L11.484,81.35h1.303l0.303-2.542h2.107l0.332,2.542h1.287l-1.922-13.312H13.25z M13.24,77.537l0.846-7.035
		h0.021l0.916,7.035H13.24z"/>
	<path d="M24.949,76.264c-0.062-0.644-0.168-1.111-0.316-1.408c-0.15-0.296-0.371-0.469-0.66-0.524
		c0.394-0.138,0.67-0.438,0.828-0.901c0.156-0.465,0.236-1.038,0.236-1.721c0-0.682-0.016-1.185-0.041-1.508
		c-0.062-0.787-0.246-1.344-0.549-1.672c-0.307-0.328-0.803-0.491-1.492-0.491h-2.438V81.35h1.365v-6.431l0.812,0.053
		c0.33,0,0.578,0.077,0.742,0.231c0.16,0.154,0.242,0.708,0.242,1.662c0,2.826,0.037,4.322,0.107,4.484h1.361
		c-0.07-0.213-0.108-0.952-0.108-2.22C25.041,77.86,25.01,76.906,24.949,76.264z M23.68,71.387c0,0.701-0.025,1.217-0.078,1.545
		c-0.053,0.324-0.141,0.549-0.266,0.664c-0.123,0.116-0.312,0.174-0.578,0.174h-0.875v-4.493h0.861c0.303,0,0.533,0.082,0.693,0.243
		c0.16,0.161,0.242,0.752,0.242,1.775V71.387z"/>
	<path d="M32.727,74.141c0.328-0.2,0.56-0.525,0.685-0.976c0.129-0.448,0.191-1.062,0.191-1.846V71.03
		c-0.01-1.082-0.17-1.853-0.486-2.309c-0.312-0.457-0.91-0.684-1.787-0.684h-2.102V81.35h2.275c0.838,0,1.424-0.289,1.764-0.865
		c0.336-0.578,0.516-1.532,0.529-2.862V77.34C33.797,75.538,33.438,74.473,32.727,74.141z M30.6,69.317h0.672
		c0.252,0,0.443,0.038,0.574,0.12c0.269,0.159,0.404,0.685,0.404,1.573c0,0.015,0,0.029,0,0.044v0.371
		c0,0.664-0.023,1.144-0.072,1.438c-0.049,0.292-0.129,0.487-0.24,0.583c-0.115,0.102-0.305,0.149-0.564,0.149H30.6V69.317z
		 M32.422,77.574c0,0.978-0.068,1.643-0.201,1.989c-0.135,0.35-0.395,0.523-0.785,0.523H30.6v-5.288h0.908
		c0.363,0,0.606,0.17,0.728,0.515c0.123,0.343,0.186,0.942,0.186,1.8V77.574z"/>
	<path d="M39.941,67.869c-0.715,0-1.258,0.224-1.635,0.667c-0.475,0.564-0.713,1.604-0.713,3.115v5.869
		c0,1.381,0.174,2.393,0.521,3.028c0.344,0.634,0.94,0.952,1.789,0.952c0.848,0,1.443-0.318,1.781-0.952
		c0.34-0.631,0.508-1.641,0.508-3.028v-5.869c0-0.961-0.084-1.734-0.258-2.315C41.646,68.36,40.982,67.869,39.941,67.869z
		 M40.828,77.537c0,1.003-0.062,1.689-0.189,2.061c-0.119,0.371-0.371,0.557-0.746,0.557c-0.371,0-0.621-0.184-0.744-0.55
		c-0.123-0.366-0.186-1.055-0.186-2.067v-5.984c0-0.831,0.07-1.429,0.211-1.792c0.141-0.364,0.391-0.545,0.754-0.545
		c0.359,0,0.602,0.179,0.721,0.535c0.117,0.354,0.18,0.959,0.18,1.81V77.537z"/>
	<polygon points="49.867,73.249 50.004,77.1 47.309,68.038 46.279,68.038 46.279,81.35 47.539,81.35 47.539,75.569 47.461,72.213 
		50.072,81.35 51.074,81.35 51.074,68.038 49.867,68.038 	"/>
	<path d="M56.541,68.038L54.777,81.35h1.301l0.303-2.542h2.107l0.332,2.542h1.289l-1.926-13.312H56.541z M56.533,77.537l0.846-7.035
		h0.02l0.918,7.035H56.533z"/>
	<polygon points="62.863,69.336 64.145,69.336 64.145,81.35 65.506,81.35 65.506,69.336 66.701,69.336 66.701,68.038 62.863,68.038 
			"/>
	<polygon points="71.52,75.193 73.516,75.193 73.516,73.89 71.52,73.89 71.52,69.336 73.627,69.336 73.627,68.038 70.152,68.038 
		70.152,81.35 73.652,81.35 73.652,80.048 71.52,80.048 	"/>
	<path d="M33.703,48.352c-0.115,0-0.205,0.029-0.266,0.099c-0.061,0.067-0.088,0.159-0.088,0.265v6.691
		c0,0.113,0.027,0.202,0.086,0.268c0.059,0.064,0.146,0.101,0.267,0.101c0.121,0,0.209-0.036,0.271-0.101
		c0.057-0.065,0.09-0.154,0.09-0.268v-6.691c0-0.105-0.033-0.197-0.09-0.265C33.918,48.381,33.828,48.352,33.703,48.352z"/>
	<path d="M28.269,48.443H27.91v3.654h0.359c0.125,0,0.215-0.036,0.27-0.103c0.059-0.065,0.086-0.154,0.086-0.26v-2.916
		c0-0.108-0.027-0.197-0.086-0.267C28.477,48.484,28.391,48.443,28.269,48.443z"/>
	<path d="M22.832,48.443h-0.353v4.006h0.353c0.129,0,0.217-0.031,0.275-0.104c0.055-0.072,0.078-0.156,0.078-0.265v-3.263
		c0-0.108-0.022-0.197-0.076-0.267C23.051,48.484,22.961,48.443,22.832,48.443z"/>
	<path d="M62.92,55.774c0.121,0,0.207-0.036,0.266-0.101c0.062-0.065,0.086-0.154,0.086-0.268v-6.691
		c0-0.105-0.023-0.194-0.082-0.265c-0.057-0.069-0.149-0.099-0.27-0.099c-0.119,0-0.207,0.029-0.27,0.099
		c-0.057,0.07-0.09,0.159-0.09,0.265v6.691c0,0.113,0.033,0.202,0.082,0.268C62.705,55.738,62.795,55.774,62.92,55.774z"/>
	<rect y="21.917" width="78.188" height="2.852"/>
	<path d="M52.486,36.175c-0.162,0-0.434,0.12-0.826,0.356c-0.393,0.238-0.742,0.557-1.051,0.952
		c-0.309,0.395-0.463,0.823-0.463,1.289c0,0.349,0.072,0.593,0.213,0.725c0.145,0.133,0.336,0.14,0.578,0.02
		c0.244-0.12,0.516-0.361,0.814-0.726c0.316-0.399,0.568-0.809,0.75-1.221c0.189-0.415,0.279-0.73,0.279-0.945
		C52.781,36.324,52.684,36.175,52.486,36.175z"/>
	<path d="M35.811,38.64c0.309,0,0.744-0.166,1.316-0.496c0.568-0.333,1.17-0.788,1.807-1.368c0.615-0.56,1.152-1.185,1.609-1.88
		c0.463-0.693,0.818-1.378,1.061-2.055c0.246-0.673,0.371-1.251,0.371-1.726c0-0.309-0.068-0.544-0.203-0.713
		c-0.133-0.169-0.303-0.253-0.506-0.253c-0.189,0-0.392,0.074-0.607,0.219c-0.211,0.147-0.488,0.371-0.824,0.68l0.334-0.696
		c-0.377,0.19-0.707,0.379-0.994,0.561c-0.285,0.186-0.615,0.445-0.986,0.783c-0.375,0.337-0.762,0.759-1.172,1.27
		c-0.662,0.848-1.16,1.667-1.498,2.46c-0.338,0.793-0.506,1.465-0.506,2.019C35.012,38.24,35.279,38.64,35.811,38.64z"/>
	<path d="M46.66,33.12c0.402,0,0.787-0.161,1.164-0.479c0.375-0.318,0.68-0.696,0.902-1.133c0.225-0.434,0.34-0.802,0.34-1.101
		c0-0.351-0.1-0.525-0.299-0.525c-0.023,0-0.144,0.026-0.365,0.077c-0.219,0.051-0.381,0.043-0.492-0.019
		c-0.012-0.014-0.029-0.026-0.051-0.038c-0.023-0.013-0.045-0.02-0.062-0.02c-0.084,0-0.273,0.133-0.572,0.398
		c-0.303,0.266-0.566,0.586-0.799,0.971c-0.232,0.386-0.35,0.783-0.35,1.193c0,0.199,0.059,0.366,0.172,0.488
		C46.363,33.058,46.504,33.12,46.66,33.12z"/>
	<path d="M0,59.735h78.188V26.061H0V59.735z M24.01,52.081c0,0.33-0.1,0.588-0.309,0.775c-0.203,0.188-0.496,0.28-0.863,0.28h-0.359
		v2.867c0,0.106-0.029,0.192-0.092,0.262c-0.055,0.066-0.15,0.102-0.266,0.102h-0.342c-0.049,0-0.076-0.012-0.096-0.039
		c-0.02-0.021-0.027-0.053-0.027-0.091v-8.346c0-0.041,0.008-0.072,0.027-0.095c0.02-0.026,0.047-0.038,0.096-0.038h1.059
		c0.17,0,0.332,0.024,0.478,0.075c0.15,0.048,0.275,0.117,0.371,0.214c0.109,0.092,0.188,0.2,0.246,0.33
		c0.051,0.128,0.076,0.272,0.076,0.441V52.081z M29.451,51.734c0,0.178-0.039,0.322-0.111,0.44c-0.07,0.113-0.168,0.205-0.295,0.272
		c0.127,0.072,0.225,0.164,0.295,0.277c0.072,0.11,0.111,0.26,0.111,0.434v3.079c0,0.038-0.018,0.069-0.035,0.091
		c-0.017,0.027-0.053,0.039-0.09,0.039h-0.344c-0.119,0-0.211-0.036-0.269-0.102c-0.057-0.069-0.088-0.156-0.088-0.262v-2.846
		c0-0.111-0.027-0.2-0.08-0.27c-0.06-0.065-0.15-0.102-0.275-0.102h-0.355v3.217c0,0.106-0.035,0.192-0.092,0.262
		c-0.059,0.066-0.145,0.102-0.268,0.102h-0.342c-0.041,0-0.07-0.012-0.094-0.039c-0.02-0.021-0.031-0.053-0.031-0.091v-8.346
		c0-0.041,0.012-0.072,0.031-0.095c0.023-0.026,0.053-0.038,0.094-0.038h1.072c0.174,0,0.334,0.024,0.475,0.077
		c0.146,0.056,0.268,0.12,0.371,0.212c0.098,0.092,0.18,0.2,0.232,0.333c0.053,0.13,0.088,0.274,0.088,0.438V51.734z M34.881,55.406
		c0,0.33-0.098,0.585-0.309,0.775c-0.211,0.19-0.494,0.282-0.869,0.282c-0.176,0-0.34-0.026-0.484-0.072
		c-0.141-0.049-0.266-0.121-0.371-0.212c-0.104-0.092-0.184-0.203-0.238-0.33c-0.059-0.133-0.084-0.28-0.084-0.443v-6.691
		c0-0.325,0.105-0.585,0.309-0.774c0.211-0.188,0.5-0.281,0.869-0.281c0.176,0,0.334,0.023,0.484,0.074
		c0.143,0.049,0.27,0.118,0.375,0.21c0.104,0.094,0.184,0.202,0.236,0.335c0.059,0.128,0.082,0.277,0.082,0.436V55.406z
		 M39.758,48.092c0,0.105-0.029,0.192-0.082,0.26c-0.059,0.062-0.131,0.092-0.231,0.092h-0.381v7.7c0,0.064-0.018,0.112-0.059,0.158
		c-0.051,0.041-0.1,0.065-0.158,0.065h-0.381c-0.066,0-0.117-0.024-0.16-0.065c-0.043-0.046-0.063-0.094-0.063-0.158v-7.7h-0.385
		c-0.09,0-0.17-0.029-0.225-0.092c-0.057-0.067-0.084-0.154-0.084-0.26v-0.21c0-0.041,0.012-0.075,0.035-0.094
		c0.023-0.023,0.057-0.029,0.09-0.029h1.951c0.041,0,0.072,0.007,0.098,0.029c0.018,0.019,0.033,0.053,0.033,0.094V48.092z
		 M44.562,48.092c0,0.105-0.035,0.192-0.092,0.26c-0.061,0.062-0.135,0.092-0.223,0.092h-0.762v3.317h0.818
		c0.041,0,0.064,0.01,0.094,0.028c0.023,0.022,0.033,0.056,0.033,0.092v0.212c0,0.106-0.024,0.193-0.084,0.261
		c-0.059,0.064-0.133,0.094-0.227,0.094h-0.635v3.229h0.762c0.088,0,0.162,0.033,0.223,0.099c0.057,0.07,0.092,0.151,0.092,0.261
		v0.207c0,0.043-0.023,0.072-0.045,0.092c-0.023,0.021-0.053,0.033-0.094,0.033h-1.639c-0.041,0-0.072-0.012-0.09-0.039
		c-0.023-0.021-0.031-0.053-0.031-0.091v-8.346c0-0.041,0.008-0.072,0.031-0.095c0.018-0.026,0.049-0.038,0.09-0.038h1.639
		c0.041,0,0.07,0.007,0.094,0.029c0.022,0.019,0.045,0.053,0.045,0.094V48.092z M49.82,51.472c0,0.036-0.008,0.067-0.031,0.094
		c-0.022,0.025-0.053,0.038-0.094,0.038h-0.344c-0.119,0-0.207-0.038-0.266-0.105c-0.057-0.067-0.088-0.154-0.088-0.265v-2.518
		c0-0.108-0.027-0.194-0.09-0.267c-0.053-0.067-0.144-0.097-0.269-0.097c-0.115,0-0.207,0.029-0.266,0.097
		c-0.059,0.072-0.092,0.159-0.092,0.267v6.691c0,0.115,0.033,0.202,0.092,0.268c0.055,0.064,0.144,0.101,0.266,0.101
		c0.119,0,0.211-0.036,0.269-0.101c0.063-0.065,0.09-0.152,0.09-0.268v-2.438c0-0.106,0.031-0.197,0.088-0.263
		c0.053-0.07,0.145-0.104,0.25-0.108h0.359c0.041,0,0.072,0.015,0.094,0.034c0.023,0.031,0.031,0.058,0.031,0.094v2.682
		c0,0.33-0.104,0.585-0.31,0.775c-0.209,0.19-0.496,0.282-0.871,0.282c-0.18,0-0.34-0.026-0.482-0.072
		c-0.149-0.049-0.27-0.121-0.373-0.212c-0.103-0.092-0.185-0.203-0.242-0.33c-0.055-0.133-0.084-0.28-0.084-0.443v-6.691
		c0-0.325,0.108-0.585,0.315-0.774c0.205-0.188,0.496-0.281,0.867-0.281c0.18,0,0.34,0.023,0.48,0.074
		c0.15,0.049,0.271,0.118,0.379,0.21c0.104,0.094,0.182,0.202,0.238,0.335c0.053,0.128,0.084,0.277,0.084,0.436V51.472z
		 M50.941,44.118H24.516v-1.296h26.426V44.118z M51.805,40.114c-0.479,0.373-0.854,0.559-1.133,0.559
		c-0.295,0-0.59-0.191-0.896-0.573c-0.299-0.383-0.451-0.843-0.451-1.383c0-0.445,0.149-0.935,0.447-1.463
		c0.301-0.529,0.688-0.976,1.16-1.337c0.476-0.361,0.949-0.544,1.42-0.544c0.262,0,0.488,0.142,0.686,0.431
		c0.232,0.08,0.381,0.193,0.455,0.328c0.072,0.137,0.109,0.399,0.109,0.788c0,0.592-0.182,1.178-0.543,1.761
		C52.695,39.264,52.275,39.743,51.805,40.114z M67.176,47.892c0-0.041,0.01-0.072,0.025-0.095c0.022-0.026,0.053-0.038,0.094-0.038
		h0.346c0.104,0,0.186,0.029,0.248,0.082c0.064,0.058,0.101,0.128,0.105,0.219c0.01,0.063,0.027,0.2,0.059,0.402
		c0.025,0.205,0.062,0.446,0.113,0.726c0.041,0.282,0.088,0.586,0.143,0.913c0.053,0.333,0.109,0.658,0.162,0.974
		c0.057,0.32,0.107,0.616,0.164,0.892c0.049,0.276,0.098,0.498,0.141,0.674l-0.062-4.57c0-0.091,0.031-0.166,0.102-0.229
		c0.062-0.053,0.145-0.082,0.25-0.082h0.346c0.039,0,0.068,0.012,0.098,0.038c0.02,0.022,0.023,0.054,0.023,0.095v8.346
		c0,0.038-0.004,0.069-0.023,0.091c-0.029,0.027-0.059,0.039-0.098,0.039h-0.346c-0.105,0-0.184-0.029-0.242-0.072
		c-0.057-0.058-0.09-0.123-0.107-0.212c0-0.048-0.012-0.164-0.043-0.345c-0.037-0.181-0.07-0.395-0.119-0.655
		c-0.047-0.255-0.1-0.537-0.156-0.843c-0.061-0.307-0.115-0.617-0.176-0.923c-0.055-0.312-0.111-0.612-0.158-0.89
		c-0.053-0.284-0.092-0.532-0.125-0.732l0.057,4.309c0.01,0.106-0.021,0.192-0.082,0.262c-0.062,0.066-0.154,0.102-0.272,0.102
		h-0.346c-0.041,0-0.072-0.012-0.094-0.039c-0.016-0.021-0.025-0.053-0.025-0.091V47.892z M61.734,48.715
		c0-0.325,0.107-0.585,0.316-0.774c0.205-0.188,0.494-0.281,0.869-0.281c0.174,0,0.336,0.023,0.48,0.074
		c0.146,0.049,0.271,0.118,0.371,0.21c0.107,0.094,0.189,0.202,0.246,0.335c0.055,0.128,0.08,0.277,0.08,0.436v6.691
		c0,0.33-0.104,0.585-0.313,0.775c-0.205,0.19-0.494,0.282-0.865,0.282c-0.178,0-0.342-0.026-0.488-0.072
		c-0.143-0.049-0.268-0.121-0.371-0.212c-0.106-0.092-0.186-0.203-0.24-0.33c-0.057-0.133-0.086-0.28-0.086-0.443V48.715z
		 M57.836,48.069c0-0.091,0.035-0.166,0.105-0.229c0.064-0.053,0.146-0.082,0.254-0.082h0.346c0.041,0,0.072,0.012,0.088,0.038
		c0.025,0.022,0.037,0.054,0.037,0.095v8.252c0,0.064-0.025,0.112-0.068,0.158c-0.043,0.041-0.098,0.065-0.154,0.065h-0.387
		c-0.057,0-0.109-0.024-0.156-0.065c-0.039-0.046-0.064-0.094-0.064-0.158V48.069z M54.9,47.788
		c0.021,0.019,0.035,0.053,0.035,0.094v0.21c0,0.105-0.029,0.192-0.086,0.26c-0.059,0.062-0.137,0.092-0.226,0.092h-0.381v7.7
		c0,0.064-0.023,0.112-0.062,0.158c-0.043,0.041-0.096,0.065-0.158,0.065h-0.381c-0.062,0-0.111-0.024-0.158-0.065
		c-0.045-0.046-0.064-0.094-0.064-0.158v-7.7h-0.381c-0.096,0-0.17-0.029-0.23-0.092c-0.053-0.067-0.082-0.154-0.082-0.26v-0.21
		c0-0.041,0.012-0.075,0.033-0.094c0.024-0.023,0.059-0.029,0.096-0.029h1.953C54.84,47.759,54.873,47.766,54.9,47.788z
		 M45.525,30.865c0.322-0.562,0.75-1.024,1.277-1.396c0.529-0.368,1.062-0.554,1.594-0.554c0.18,0,0.318,0.043,0.418,0.12
		c0.098,0.079,0.195,0.202,0.289,0.366c0.193,0.053,0.334,0.147,0.432,0.284c0.096,0.138,0.141,0.356,0.141,0.665
		c0,0.514-0.147,1.084-0.438,1.713c-0.291,0.627-0.688,1.156-1.178,1.593c-0.496,0.438-1.018,0.655-1.572,0.655
		c-0.42,0-0.766-0.159-1.039-0.477c-0.275-0.318-0.41-0.752-0.41-1.299C45.039,31.982,45.199,31.426,45.525,30.865z M44.875,38.577
		c0.463-0.564,1.359-1.547,2.684-2.946c0.637-0.668,1.246-1.277,1.828-1.824c0.582-0.547,1.039-0.961,1.369-1.241
		c0.332-0.281,0.828-0.691,1.492-1.238c0.66-0.542,1.049-0.869,1.166-0.976c0.469-0.429,0.799-0.693,0.996-0.795
		c0.193-0.102,0.289-0.002,0.289,0.297c0,0.229-0.127,0.498-0.381,0.807c-0.254,0.309-0.754,0.816-1.498,1.522
		c-0.746,0.708-1.512,1.46-2.299,2.253c-0.785,0.797-1.637,1.723-2.553,2.78c-0.459,0.527-0.893,1.06-1.301,1.595
		c-0.406,0.535-0.748,1-1.029,1.397c-0.281,0.4-0.475,0.66-0.584,0.785c-0.107,0.123-0.213,0.186-0.315,0.186
		c-0.133,0-0.26-0.163-0.381-0.486c-0.121-0.325-0.182-0.6-0.182-0.821C44.178,39.569,44.41,39.141,44.875,38.577z M36.496,30.865
		c0.816-0.86,1.672-1.523,2.559-1.985c0.887-0.465,1.652-0.627,2.289-0.489c0.41,0.092,0.641,0.352,0.684,0.785
		c0.301,0.133,0.52,0.352,0.654,0.653c0.141,0.304,0.205,0.749,0.205,1.342c0,0.897-0.178,1.864-0.537,2.903
		c-0.361,1.038-0.861,2.012-1.508,2.922c-0.647,0.911-1.389,1.663-2.221,2.253c-0.938,0.663-1.701,0.995-2.305,0.995
		c-0.461,0-0.898-0.143-1.305-0.422c-0.408-0.279-0.732-0.679-0.975-1.199c-0.244-0.519-0.365-1.123-0.365-1.816
		c0-0.969,0.268-1.985,0.799-3.053C35.002,32.688,35.678,31.725,36.496,30.865z M27.93,30.865c0.818-0.86,1.67-1.523,2.562-1.985
		c0.887-0.465,1.647-0.627,2.283-0.489c0.414,0.092,0.646,0.352,0.69,0.785c0.299,0.133,0.516,0.352,0.654,0.653
		c0.135,0.304,0.203,0.749,0.203,1.342c0,0.897-0.178,1.864-0.539,2.903c-0.357,1.038-0.863,2.012-1.51,2.922
		c-0.645,0.911-1.383,1.663-2.221,2.253c-0.934,0.663-1.701,0.995-2.299,0.995c-0.465,0-0.9-0.143-1.31-0.422
		c-0.404-0.279-0.73-0.679-0.973-1.199c-0.24-0.519-0.361-1.123-0.361-1.816c0-0.969,0.266-1.985,0.797-3.053
		C26.439,32.688,27.113,31.725,27.93,30.865z M21.004,35.707c0.227-0.657,0.496-1.308,0.799-1.958
		c0.309-0.65,0.646-1.306,1.018-1.971c0.375-0.665,0.725-1.279,1.059-1.839c-0.721,0.299-1.475,0.696-2.264,1.193v-0.781
		c0.229-0.205,0.461-0.402,0.693-0.595c0.24-0.19,0.502-0.397,0.791-0.619c0.289-0.225,0.588-0.436,0.896-0.642
		c0.309-0.202,0.66-0.414,1.055-0.628c0.352,0.508,0.525,0.995,0.525,1.46c0,0.255-0.053,0.537-0.164,0.85
		c-0.105,0.312-0.254,0.668-0.443,1.068c-0.188,0.402-0.422,0.905-0.697,1.51c-0.752,1.66-1.316,3.033-1.688,4.11
		c-0.373,1.079-0.559,1.812-0.559,2.202c0,0.031,0.019,0.156,0.066,0.371c0.045,0.217,0.066,0.378,0.066,0.489
		c0,0.186-0.051,0.282-0.156,0.296c-0.108,0.013-0.252-0.026-0.443-0.115c-0.492-0.241-0.82-0.473-0.986-0.687
		c-0.166-0.217-0.246-0.499-0.246-0.841C20.326,37.965,20.551,37.006,21.004,35.707z M11.844,47.807
		c0.025-0.028,0.066-0.048,0.125-0.048h0.299c0.103,0,0.193,0.029,0.256,0.089c0.066,0.061,0.107,0.131,0.117,0.22l0.373,6.462
		l0.385-6.462c0.006-0.089,0.043-0.159,0.109-0.22c0.066-0.06,0.156-0.089,0.256-0.089h0.301c0.053,0,0.101,0.02,0.125,0.048
		c0.027,0.034,0.039,0.068,0.031,0.106l-0.734,8.329c-0.004,0.033-0.016,0.065-0.041,0.086c-0.016,0.027-0.043,0.039-0.078,0.039
		h-0.695c-0.037,0-0.066-0.012-0.086-0.039c-0.023-0.021-0.033-0.053-0.039-0.086l-0.734-8.329
		C11.805,47.875,11.816,47.841,11.844,47.807z M6.519,47.892c0-0.041,0.012-0.072,0.031-0.095c0.022-0.026,0.053-0.038,0.094-0.038
		h0.342c0.105,0,0.197,0.029,0.264,0.082c0.059,0.062,0.098,0.138,0.098,0.229v7.337c0,0.115,0.029,0.202,0.082,0.268
		c0.059,0.064,0.15,0.101,0.269,0.101c0.121,0,0.213-0.036,0.27-0.101c0.062-0.065,0.092-0.152,0.092-0.268v-7.337
		c0-0.091,0.029-0.166,0.098-0.229c0.063-0.053,0.149-0.082,0.26-0.082h0.34c0.041,0,0.072,0.012,0.094,0.038
		c0.019,0.022,0.025,0.054,0.025,0.095v7.515c0,0.33-0.104,0.585-0.303,0.775c-0.209,0.19-0.496,0.282-0.875,0.282
		c-0.178,0-0.34-0.026-0.486-0.072c-0.144-0.049-0.266-0.121-0.371-0.212c-0.103-0.092-0.185-0.203-0.238-0.33
		c-0.053-0.133-0.084-0.28-0.084-0.443V47.892z"/>
	<path d="M27.248,38.64c0.307,0,0.742-0.166,1.314-0.496c0.568-0.333,1.172-0.788,1.809-1.368c0.611-0.56,1.146-1.185,1.607-1.88
		c0.463-0.693,0.816-1.378,1.063-2.055c0.246-0.673,0.365-1.251,0.365-1.726c0-0.309-0.066-0.544-0.199-0.713
		c-0.133-0.169-0.301-0.253-0.506-0.253c-0.191,0-0.393,0.074-0.605,0.219c-0.217,0.147-0.49,0.371-0.828,0.68l0.334-0.696
		c-0.375,0.19-0.705,0.379-0.994,0.561c-0.285,0.186-0.611,0.445-0.988,0.783c-0.371,0.337-0.762,0.759-1.17,1.27
		c-0.66,0.848-1.16,1.667-1.5,2.46c-0.336,0.793-0.506,1.465-0.506,2.019C26.443,38.24,26.713,38.64,27.248,38.64z"/>
	<rect y="61.029" width="78.188" height="3.245"/>
</g>
</svg>