<!-- Generator: Adobe Illustrator 21.1.0, SVG Export Plug-In  -->
<svg version="1.1"
	 xmlns="http://www.w3.org/2000/svg" xmlns:xlink="http://www.w3.org/1999/xlink" xmlns:a="http://ns.adobe.com/AdobeSVGViewerExtensions/3.0/"
	 x="0px" y="0px" width="468.676px" height="620.42px" viewBox="0 0 468.676 620.42"
	 style="enable-background:new 0 0 468.676 620.42;" xml:space="preserve">
<style type="text/css">
	.st0{fill:#E2B585;}
	.st1{fill:#B88A5B;}
	.st2{fill:#4E3827;}
	.st3{fill:#442E1A;}
	.st4{fill:#CD9A6E;}
	.st5{fill:#F5C398;}
	.st6{fill:#D6A875;}
	.st7{fill-rule:evenodd;clip-rule:evenodd;fill:#4E3827;}
	.st8{fill-rule:evenodd;clip-rule:evenodd;fill:#442E1A;}
</style>
<defs>
</defs>
<g>
	<path class="st0" d="M334.287,440.198c-66.377-62.854-16.646-111.268-16.646-111.268c-21.307,15.384-56.052,19.373-82.256,16.512
		v-0.323c-0.456,0.059-0.912,0.11-1.369,0.163c-0.456-0.053-0.913-0.105-1.368-0.163v0.323
		c-26.204,2.861-60.949-1.128-82.256-16.512c0,0,49.73,48.415-16.647,111.268c-36.842,34.887,33.253,53.16,100.272,49.857
		C301.035,493.358,371.129,475.084,334.287,440.198z"/>
	<path class="st1" d="M334.287,440.198c-66.377-62.854-16.646-111.268-16.646-111.268c-21.307,15.384-56.052,19.373-82.256,16.512
		v-0.323c-0.456,0.059-0.912,0.11-1.369,0.163c-0.456-0.053-0.913-0.105-1.368-0.163v0.323c-0.303,0.033-0.613,0.061-0.919,0.092
		v144.624c0.763-0.032,1.525-0.066,2.287-0.103C301.035,493.358,371.129,475.084,334.287,440.198z"/>
	<path class="st2" d="M409.341,445.267c-17.999-9.583-45.373-13.029-78.72-25.802c-1.277-2.981-4.743-11.028-6.499-14.682
		c-5.138-10.688-8.546-12.718-22.402-13.771c1.993,9.394,2.122,9.829,4.94,18.909c-8.445,23.802-40.515,50.948-68.4,58.246
		c-1.116,0.292-7.318,0.302-8.471,0c-27.886-7.298-59.956-34.444-68.4-58.246c2.818-9.08,2.947-9.515,4.94-18.909
		c-13.856,1.053-17.263,3.084-22.402,13.771c-1.788,3.719-5.346,11.988-6.565,14.836c-33.136,12.973-60.023,16.062-78.028,25.648
		C11.225,470.882,3.754,508.554,0,620.42l234.338-0.247l234.338,0.247C464.922,508.554,457.45,470.882,409.341,445.267z"/>
	<path class="st3" d="M409.341,445.267c-17.999-9.583-45.373-13.029-78.72-25.802c-1.277-2.981-4.743-11.028-6.499-14.682
		c-5.138-10.688-8.546-12.718-22.402-13.771c1.993,9.394,2.122,9.829,4.94,18.909c-8.445,23.802-40.515,50.948-68.4,58.246
		c-0.803,0.21-4.238,0.274-6.531,0.181v151.829l2.609-0.003l234.338,0.247C464.922,508.554,457.45,470.882,409.341,445.267z"/>
	<path class="st4" d="M235.019,396.01C235.018,396.01,235.019,396.01,235.019,396.01c-0.336,0-0.648-0.002-0.933-0.002
		c-0.268,0.001-0.579,0.002-0.915,0.002c-15.737,0-18.082-1.496-18.853-1.986c-48.221-30.747-52.424-37.85-72.621-71.979
		c-4.033-6.814-15.093-40.701-15.231-50.305l-6.168-82.256l0.156-0.404c3.806-9.871,6.995-19.375,10.079-28.566
		c8.126-24.22,15.144-45.137,29.427-60.588c15.62-16.898,38.655-25.336,72.49-26.555l0.069-0.002l3.22,0.002
		c33.828,1.218,56.983,9.902,72.867,27.329c14.392,15.789,21.374,36.678,29.459,60.866c2.975,8.9,6.051,18.104,9.671,27.517
		l0.155,0.403l-6.168,82.254c-0.139,9.603-11.199,43.491-15.232,50.306c-20.196,34.128-24.399,41.23-72.62,71.978
		C253.1,394.514,250.753,396.01,235.019,396.01z M234.085,392.166c0.297,0,0.603,0.001,0.933,0.001
		c11.538,0,15.981-0.869,16.788-1.383c47.447-30.253,51.101-36.429,71.38-70.696c3.697-6.247,14.617-39.878,14.697-48.449
		l0.006-0.126l6.108-81.454c-3.584-9.352-6.629-18.461-9.575-27.275c-15.499-46.371-27.746-83-98.785-85.572h-3.082
		c-70.876,2.565-82.415,36.945-98.379,84.525c-3.055,9.105-6.213,18.517-9.981,28.323l6.113,81.516l0.001,0.063
		c0.079,8.571,10.999,42.202,14.697,48.449c20.278,34.267,23.932,40.442,71.38,70.696c0.807,0.515,5.25,1.383,16.788,1.383
		C233.5,392.167,233.806,392.166,234.085,392.166z"/>
	<path class="st5" d="M235.669,75.29h-3.151c-86.03,3.099-86.431,52.651-110.273,114.482l6.14,81.884
		c0.082,8.918,11.041,42.78,14.965,49.411c20.242,34.206,24.166,40.835,72,71.337c2.505,1.596,14.161,1.704,18.744,1.683
		c4.584,0.021,16.24-0.087,18.744-1.683c47.834-30.502,51.757-37.131,72-71.337c3.924-6.631,14.882-40.493,14.965-49.411
		l6.14-81.884C322.983,130.085,321.7,78.389,235.669,75.29z"/>
	<path class="st6" d="M235.669,75.29h-3.151c-0.265,0.01-0.526,0.022-0.789,0.032v318.761c0.901,0.006,1.707,0.006,2.365,0.003
		c4.584,0.021,16.24-0.087,18.744-1.683c47.834-30.502,51.757-37.131,72-71.337c3.924-6.631,14.882-40.493,14.965-49.411
		l6.14-81.884C322.983,130.085,321.7,78.389,235.669,75.29z"/>
	<path class="st7" d="M404.078,230.277c9.212-36.837-5.543-81.994-18.676-112.249c-12.939-29.808-33.411-70.332-59.898-90.958
		c-23.411-18.228-43.585-32-72.195-25.385c-7.364,1.703-15.453,8.791-23.785,8.882c-9.623,0.104-19.148-5.759-28.737-6.652
		c-27.688-2.574-46.233,13.115-65.239,27.397c-30.168,22.683-50.507,59.111-63.855,92.854c-13.516,34.169-19.88,64.888-10.11,98.82
		c5.535,19.222,22.825,32.336,19.297,41.198c-5.955,14.958-18.348,19.291-18.348,19.291c13.718-0.669,20.621-5.557,23.945-11.262
		c-4.255,18.566-18.238,21.38-18.238,21.38s34.283,5.65,35.928,2.725c0.454-0.325,0.91-0.658,1.368-1.013
		c0.256,0.538-19.097,13.512-18.775,13.765c9.16,7.247,20.35,10.713,30.405,10.096c1.196,4.01,1.236,8.12,0.544,12.359
		c-0.568,3.493-2.414,6.795-3.626,10.2c-0.177,0.502-0.025,1.111-0.025,2.57c6.03-3.751,11.491-7.148,16.797-10.447
		c0.14,2.115,27.874,11.766,27.874,11.766s-11.502-15.314-17.417-28.368c-11.612-25.625-23.685-107.516-13.291-126.565
		c8.719-15.98,22.932-36.232,25.167-54.085c0,0,12.52,25.237,83.662,52.46c0,0-5.38-5.743-13.736-11.675
		c-6.208-6.116-37.166-24.766-50.735-65.201c40.189,59.482,141.119,94.178,153.795,103.519c-0.135-0.121-0.271-0.249-0.411-0.379
		c0.581,0.446,1.07,0.821,1.464,1.124c-6.234-5.489-41.272-65.141-50.529-78.06c7.851,10.257,46.84,61.351,58.567,69.074
		c0.004,0.002,0.01,0.003,0.013,0.009c11.371,17.51,6.551,47.667,3.862,61.9c-2.228,11.789-4.748,24.145-9.196,35.387
		c-7.512,18.988-19.002,40.404-19.002,40.404s23.65-6.884,23.947-11.308c5.304,3.299,10.765,6.696,16.795,10.447
		c0-1.459,0.153-2.068-0.024-2.57c-1.211-3.405-3.058-6.707-3.628-10.2c-0.335-2.062-0.498-4.096-0.44-6.1
		c10.043,2,20.713-0.105,31.931-9.197c0.516-0.417-9.08-4.108-15.775-7.892c-2.415-1.366-4.551-4.832-5.877-7.889
		c0.463-1.044,0.933-2.095,1.412-3.148c14.67,13.445,36.124,2.367,36.124,2.367s-9.677-3.068-14.778-19.538
		c4.023,2.186,9.571,3.652,17.186,3.853c0,0-9.976-0.508-15.039-18.023C382.823,266.112,400.133,246.055,404.078,230.277z"/>
	<path class="st8" d="M231.729,184.2v2.854c1.676,0.665,3.376,1.332,5.122,2C236.852,189.054,234.979,187.056,231.729,184.2z"/>
	<path class="st8" d="M404.078,230.277c9.212-36.837-5.543-81.994-18.676-112.249c-12.939-29.808-33.411-70.332-59.898-90.958
		c-23.411-18.228-43.585-32-72.195-25.385c-6.713,1.552-14.028,7.577-21.58,8.7V166.29c41.557,26.874,86.285,43.394,94.445,49.406
		c-0.135-0.121-0.271-0.249-0.411-0.379c0.581,0.446,1.07,0.821,1.464,1.124c-6.234-5.489-41.272-65.141-50.529-78.06
		c7.851,10.257,46.84,61.351,58.567,69.074c0.004,0.002,0.01,0.003,0.013,0.009c11.371,17.51,6.551,47.667,3.862,61.9
		c-2.228,11.789-4.748,24.145-9.196,35.387c-7.512,18.988-19.002,40.404-19.002,40.404s23.65-6.884,23.947-11.308
		c5.304,3.299,10.765,6.696,16.795,10.447c0-1.459,0.153-2.068-0.024-2.57c-1.211-3.405-3.058-6.707-3.628-10.2
		c-0.335-2.062-0.498-4.096-0.44-6.1c10.043,2,20.713-0.105,31.931-9.197c0.516-0.417-9.08-4.108-15.775-7.892
		c-2.415-1.366-4.551-4.832-5.877-7.889c0.463-1.044,0.933-2.095,1.412-3.148c14.67,13.445,36.124,2.367,36.124,2.367
		s-9.677-3.068-14.778-19.538c4.023,2.186,9.571,3.652,17.186,3.853c0,0-9.976-0.508-15.039-18.023
		C382.823,266.112,400.133,246.055,404.078,230.277z"/>
</g>
</svg>