<!-- Generator: Adobe Illustrator 21.1.0, SVG Export Plug-In  -->
<svg version="1.1"
	 xmlns="http://www.w3.org/2000/svg" xmlns:xlink="http://www.w3.org/1999/xlink" xmlns:a="http://ns.adobe.com/AdobeSVGViewerExtensions/3.0/"
	 x="0px" y="0px" width="432.425px" height="563.485px" viewBox="0 0 432.425 563.485"
	 style="enable-background:new 0 0 432.425 563.485;" xml:space="preserve">
<style type="text/css">
	.st0{fill:#E2B585;}
	.st1{fill:#B88A5B;}
	.st2{fill:#4E3827;}
	.st3{fill:#442E1A;}
	.st4{fill:#CD9A6E;}
	.st5{fill:#F5C398;}
	.st6{fill:#D6A875;}
</style>
<defs>
</defs>
<g>
	<path class="st0" d="M308.431,397.202c-61.243-57.992-15.359-102.662-15.359-102.662c-19.66,14.194-51.717,17.875-75.894,15.234
		v-0.297c-0.42,0.055-0.842,0.1-1.263,0.151c-0.421-0.051-0.842-0.096-1.263-0.151v0.297c-24.176,2.641-56.234-1.04-75.893-15.234
		c0,0,45.884,44.671-15.359,102.662c-33.992,32.189,30.68,49.048,92.515,46C277.751,446.251,342.424,429.391,308.431,397.202z"/>
	<path class="st1" d="M308.431,397.202c-61.243-57.992-15.359-102.662-15.359-102.662c-19.66,14.194-51.717,17.875-75.894,15.234
		v-0.297c-0.39,0.051-0.78,0.093-1.171,0.14v133.59C277.815,446.234,342.407,429.375,308.431,397.202z"/>
	<path class="st2" d="M377.68,401.88c-16.573-8.824-41.763-12.009-72.447-23.736c-0.984-2.301-4.466-10.41-6.181-13.978
		c-4.741-9.861-7.885-11.735-20.669-12.706c1.839,8.666,1.958,9.069,4.558,17.446c-7.792,21.961-37.381,47.008-63.11,53.741
		c-1.993,0.521-5.784,0.531-7.815,0c-25.729-6.733-55.318-31.78-63.11-53.741c2.6-8.377,2.719-8.78,4.558-17.446
		c-12.784,0.971-15.929,2.845-20.669,12.706c-1.753,3.644-5.349,12.029-6.243,14.121c-30.488,11.909-55.228,14.766-71.807,23.593
		C10.357,425.514,3.463,460.27,0,563.485l216.213-0.227l216.213,0.227C428.962,460.27,422.068,425.514,377.68,401.88z"/>
	<path class="st3" d="M377.68,401.88c-16.573-8.824-41.763-12.009-72.447-23.736c-0.984-2.301-4.466-10.41-6.181-13.978
		c-4.741-9.861-7.885-11.735-20.669-12.706c1.839,8.666,1.958,9.069,4.558,17.446c-7.792,21.961-37.381,47.008-63.11,53.741
		c-0.981,0.256-2.396,0.388-3.824,0.394v140.218l0.205,0l216.213,0.227C428.962,460.27,422.068,425.514,377.68,401.88z"/>
	<path class="st4" d="M216.461,48.133c-0.17-0.006-0.845-0.007-1.015,0c-74.714,2.846-97.281,41.887-96.812,98.893l5.268,79.476
		c0.07,8.656,2.426,21.255,3.458,28.678c8.192,58.858,21.371,85.789,71.158,88.521c3.214,0.176,13.822,1.438,17.187,1.615
		c0,0,14.5-1.129,17.682-1.615c53.287-8.142,63.296-29.663,71.488-88.521c1.033-7.422,3.058-20.021,3.129-28.678l5.268-79.476
		C313.742,90.02,292.053,50.444,216.461,48.133z"/>
	<path class="st5" d="M217.543,45.788c-0.17-0.006-0.845-0.007-1.015,0c-74.714,2.846-97.281,41.887-96.812,98.893l5.268,79.476
		c0.07,8.656,2.426,21.255,3.458,28.678c8.192,58.858,21.371,85.789,71.158,88.521c3.214,0.176,13.822,1.438,17.187,1.615
		c0,0,14.5-1.129,17.683-1.615c53.287-8.142,63.296-29.663,71.488-88.521c1.033-7.422,3.058-20.021,3.129-28.678l5.268-79.476
		C314.824,87.674,293.135,48.099,217.543,45.788z"/>
	<path class="st6" d="M217.543,45.788c-0.17-0.006-0.845-0.007-1.015,0c0,96.469,0.26,297.183,0.26,297.183s14.5-1.129,17.683-1.615
		c53.287-8.142,63.296-29.663,71.488-88.521c1.033-7.422,3.058-20.021,3.129-28.678l5.268-79.476
		C314.824,87.674,293.135,48.099,217.543,45.788z"/>
	<path class="st2" d="M278.182,26.564c-27.294-40.18-103.524-32.795-150.374,8.803C85.193,73.206,55.531,141.65,71.429,232.82
		c11.087,63.578,73.239,89.144,73.239,89.144s-33.435-71.455-14.211-171.535l39.673,1.486l7.504-27.379l1.796,27.948l14.185,0.106
		l4.264-47.469l2.986,47.363l102.173-4.69c20.232,108.611-16.821,174.958-16.821,174.958s52.276-20.836,68.465-78.26
		C381.565,149.143,351.647,32.227,278.182,26.564z"/>
	<path class="st3" d="M278.182,26.564c-12.729-18.739-36.103-27.128-62.175-26.53v151.756l87.03-3.995
		c20.232,108.611-16.821,174.958-16.821,174.958s52.276-20.836,68.465-78.26C381.565,149.143,351.647,32.227,278.182,26.564z"/>
</g>
</svg>