<!-- Generator: Adobe Illustrator 18.1.1, SVG Export Plug-In  -->
<svg version="1.1"
	 xmlns="http://www.w3.org/2000/svg" xmlns:xlink="http://www.w3.org/1999/xlink" xmlns:a="http://ns.adobe.com/AdobeSVGViewerExtensions/3.0/"
	 x="0px" y="0px" width="499.893px" height="99.476px" viewBox="0 0 499.893 99.476" enable-background="new 0 0 499.893 99.476"
	 xml:space="preserve">
<defs>
</defs>
<circle fill="#FFFFFF" cx="49.738" cy="49.738" r="49.738"/>
<g>
	<path fill="#FFFFFF" d="M49.738,2.496c-26.049,0-47.242,21.193-47.242,47.241c0,26.049,21.193,47.242,47.242,47.242
		S96.98,75.787,96.98,49.738C96.98,23.689,75.787,2.496,49.738,2.496 M49.738,99.476C22.312,99.476,0,77.164,0,49.738
		C0,22.312,22.312,0,49.738,0s49.738,22.312,49.738,49.738C99.476,77.164,77.164,99.476,49.738,99.476"/>
</g>
<path stroke="#000000" stroke-miterlimit="10" d="M23.206,38.173L11.359,55.141h11.847V38.173z M25.897,57.528v6.943h-2.69v-6.943
	H8.148v-2.04l14.235-20.484h3.514v20.137h4.817v2.387H25.897z"/>
<g>
	<path stroke="#000000" stroke-miterlimit="10" d="M87.598,47.677v-0.607c0-6.076-3.081-10.068-7.508-10.068
		c-4.079,0-6.64,2.777-6.64,6.943c0,3.949,2.213,6.596,6.51,6.596C82.651,50.541,85.341,49.5,87.598,47.677 M87.294,50.541
		c-2.343,1.606-4.948,2.56-7.811,2.56c-5.425,0-8.94-3.428-8.94-9.026c0-5.468,3.862-9.591,9.591-9.591
		c6.075,0,10.285,4.687,10.285,12.455c0,9.894-6.249,15.753-15.667,18.053l-0.434-2.647C81.305,60.783,86.122,57.007,87.294,50.541"
		/>
</g>
<polygon stroke="#000000" stroke-miterlimit="10" points="76.455,20.157 74.933,18.304 50.637,47.885 26.341,18.304 24.818,20.157 
	49.115,49.738 24.818,79.319 26.341,81.172 50.637,51.591 74.933,81.172 76.455,79.319 52.159,49.738 "/>
<g>
	<path fill="#FFFFFF" stroke="#FFFFFF" stroke-width="3" stroke-miterlimit="10" d="M130.096,56.554
		c0.529,0.917,1.216,1.6,2.062,2.048c0.846,0.449,1.808,0.672,2.889,0.672c0.672,0,1.303-0.101,1.895-0.306
		c0.591-0.204,1.106-0.49,1.543-0.856c0.437-0.367,0.784-0.81,1.04-1.329c0.253-0.519,0.381-1.106,0.381-1.757
		c0-0.754-0.158-1.375-0.475-1.865c-0.314-0.49-0.738-0.891-1.267-1.208c-0.531-0.316-1.126-0.585-1.789-0.81
		c-0.661-0.224-1.343-0.447-2.048-0.672c-0.702-0.224-1.385-0.478-2.046-0.764c-0.663-0.285-1.259-0.656-1.788-1.116
		c-0.531-0.458-0.954-1.034-1.269-1.727c-0.317-0.692-0.475-1.548-0.475-2.567c0-0.957,0.189-1.808,0.565-2.552
		c0.378-0.744,0.887-1.365,1.528-1.864c0.642-0.501,1.38-0.876,2.215-1.132c0.836-0.255,1.713-0.381,2.629-0.381
		c1.182,0,2.277,0.209,3.286,0.626c1.008,0.417,1.88,1.116,2.613,2.094l-1.742,1.254c-0.509-0.713-1.106-1.247-1.788-1.605
		c-0.683-0.357-1.492-0.535-2.43-0.535c-0.652,0-1.274,0.088-1.864,0.261c-0.591,0.173-1.106,0.429-1.543,0.764
		c-0.44,0.337-0.79,0.759-1.055,1.267c-0.266,0.511-0.398,1.112-0.398,1.804c0,1.081,0.275,1.911,0.825,2.491
		c0.55,0.58,1.237,1.039,2.062,1.375c0.826,0.337,1.722,0.632,2.691,0.887c0.967,0.255,1.864,0.595,2.689,1.023
		c0.826,0.429,1.513,1.024,2.064,1.788c0.55,0.764,0.825,1.819,0.825,3.165c0,0.978-0.184,1.844-0.55,2.598
		c-0.367,0.754-0.861,1.39-1.482,1.91c-0.622,0.519-1.341,0.913-2.154,1.178c-0.816,0.265-1.661,0.396-2.537,0.396
		c-1.426,0-2.741-0.25-3.942-0.749c-1.204-0.498-2.233-1.339-3.087-2.521L130.096,56.554z"/>
	<path fill="#FFFFFF" stroke="#FFFFFF" stroke-width="3" stroke-miterlimit="10" d="M156.257,48.455h4.585
		c0.57,0,1.132-0.066,1.682-0.2c0.549-0.132,1.037-0.345,1.467-0.641c0.427-0.296,0.774-0.687,1.039-1.177
		c0.265-0.49,0.396-1.09,0.396-1.803c0-0.693-0.137-1.283-0.411-1.773c-0.276-0.49-0.632-0.892-1.071-1.208
		c-0.437-0.317-0.942-0.545-1.512-0.688c-0.572-0.142-1.142-0.214-1.712-0.214h-4.463V48.455z M154.241,38.918h6.236
		c0.753,0,1.542,0.088,2.368,0.26c0.825,0.174,1.578,0.475,2.261,0.902c0.683,0.429,1.244,1.014,1.681,1.758
		c0.439,0.744,0.657,1.676,0.657,2.797c0,0.978-0.179,1.823-0.536,2.537c-0.355,0.713-0.835,1.297-1.436,1.757
		c-0.601,0.458-1.293,0.8-2.079,1.024c-0.784,0.225-1.604,0.335-2.459,0.335h-4.678v10.27h-2.016V38.918z"/>
	<path fill="#FFFFFF" stroke="#FFFFFF" stroke-width="3" stroke-miterlimit="10" d="M180.129,49.738c0,1.346,0.214,2.598,0.642,3.76
		c0.427,1.162,1.04,2.171,1.834,3.025c0.794,0.856,1.758,1.528,2.889,2.018c1.131,0.488,2.399,0.733,3.804,0.733
		c1.406,0,2.675-0.245,3.806-0.733c1.132-0.49,2.094-1.162,2.889-2.018c0.795-0.855,1.405-1.864,1.834-3.025
		c0.427-1.162,0.641-2.414,0.641-3.76c0-1.346-0.214-2.598-0.641-3.758c-0.429-1.163-1.039-2.172-1.834-3.027
		c-0.795-0.856-1.757-1.528-2.889-2.018c-1.131-0.49-2.399-0.733-3.806-0.733c-1.405,0-2.674,0.244-3.804,0.733
		c-1.131,0.49-2.095,1.162-2.889,2.018c-0.794,0.855-1.406,1.864-1.834,3.027C180.343,47.14,180.129,48.392,180.129,49.738
		 M178.112,49.738c0-1.651,0.275-3.168,0.825-4.554c0.55-1.387,1.315-2.583,2.292-3.592s2.154-1.798,3.53-2.369
		c1.377-0.57,2.889-0.855,4.539-0.855c1.651,0,3.165,0.285,4.539,0.855c1.377,0.572,2.552,1.36,3.531,2.369
		c0.978,1.009,1.742,2.205,2.292,3.592c0.549,1.385,0.825,2.902,0.825,4.554c0,1.65-0.276,3.173-0.825,4.57
		c-0.55,1.395-1.315,2.598-2.292,3.607c-0.979,1.008-2.154,1.793-3.531,2.353c-1.374,0.559-2.887,0.84-4.539,0.84
		c-1.65,0-3.162-0.281-4.539-0.84c-1.375-0.56-2.552-1.346-3.53-2.353c-0.978-1.009-1.742-2.212-2.292-3.607
		C178.387,52.911,178.112,51.388,178.112,49.738"/>
</g>
<polygon fill="#FFFFFF" stroke="#FFFFFF" stroke-width="3" stroke-miterlimit="10" points="210.143,38.918 210.143,40.752 
	217.54,40.752 217.54,60.558 219.556,60.558 219.556,40.752 226.954,40.752 226.954,38.918 "/>
<polygon fill="#FFFFFF" stroke="#FFFFFF" stroke-width="3" stroke-miterlimit="10" points="253.698,38.918 253.698,60.558 
	255.714,60.558 255.714,50.288 265.892,50.288 265.892,48.454 255.714,48.454 255.714,40.752 266.656,40.752 266.656,38.918 "/>
<g>
	<path fill="#FFFFFF" stroke="#FFFFFF" stroke-width="3" stroke-miterlimit="10" d="M279.034,49.738c0,1.346,0.214,2.598,0.642,3.76
		c0.427,1.162,1.039,2.171,1.834,3.025c0.794,0.856,1.757,1.528,2.889,2.018c1.131,0.488,2.399,0.733,3.804,0.733
		c1.406,0,2.675-0.245,3.806-0.733c1.132-0.49,2.094-1.162,2.889-2.018c0.795-0.855,1.405-1.864,1.833-3.025
		c0.429-1.162,0.642-2.414,0.642-3.76s-0.214-2.598-0.642-3.758c-0.427-1.163-1.037-2.172-1.833-3.027
		c-0.795-0.856-1.757-1.528-2.889-2.018c-1.131-0.49-2.399-0.733-3.806-0.733c-1.405,0-2.674,0.244-3.804,0.733
		c-1.132,0.49-2.095,1.162-2.889,2.018c-0.795,0.855-1.406,1.864-1.834,3.027C279.248,47.14,279.034,48.393,279.034,49.738
		 M277.018,49.738c0-1.651,0.275-3.168,0.825-4.554c0.549-1.387,1.315-2.583,2.292-3.592s2.154-1.798,3.53-2.369
		c1.375-0.57,2.889-0.855,4.539-0.855c1.651,0,3.165,0.285,4.539,0.855c1.377,0.572,2.552,1.36,3.53,2.369
		c0.979,1.009,1.743,2.205,2.292,3.592c0.55,1.385,0.826,2.902,0.826,4.554c0,1.65-0.276,3.173-0.826,4.57
		c-0.549,1.395-1.313,2.598-2.292,3.607c-0.978,1.008-2.153,1.793-3.53,2.353c-1.374,0.559-2.887,0.84-4.539,0.84
		c-1.65,0-3.163-0.281-4.539-0.84c-1.375-0.56-2.552-1.346-3.53-2.353c-0.978-1.009-1.743-2.212-2.292-3.607
		C277.293,52.911,277.018,51.388,277.018,49.738"/>
	<path fill="#FFFFFF" stroke="#FFFFFF" stroke-width="3" stroke-miterlimit="10" d="M313.664,48.455h4.279
		c1.06,0,1.921-0.133,2.583-0.398c0.662-0.265,1.178-0.591,1.543-0.979c0.368-0.386,0.617-0.804,0.749-1.252
		c0.133-0.447,0.199-0.856,0.199-1.223s-0.066-0.774-0.199-1.223c-0.132-0.449-0.381-0.866-0.749-1.254
		c-0.365-0.386-0.881-0.713-1.543-0.978c-0.662-0.265-1.523-0.398-2.583-0.398h-4.279V48.455z M311.647,38.918h5.685
		c0.285,0,0.672,0.011,1.16,0.031c0.49,0.021,1.019,0.082,1.59,0.183c0.57,0.103,1.151,0.266,1.742,0.49
		c0.59,0.224,1.121,0.55,1.589,0.978c0.468,0.429,0.856,0.969,1.162,1.62c0.306,0.652,0.458,1.446,0.458,2.384
		c0,1.04-0.179,1.895-0.535,2.568c-0.357,0.671-0.805,1.218-1.344,1.634c-0.54,0.419-1.137,0.729-1.788,0.933
		c-0.652,0.204-1.274,0.347-1.865,0.427l6.297,10.392h-2.292l-6.083-10.27h-3.76v10.27h-2.016V38.918z"/>
</g>
<polygon fill="#FFFFFF" stroke="#FFFFFF" stroke-width="3" stroke-miterlimit="10" points="334.906,38.918 334.906,40.752 
	342.303,40.752 342.303,60.558 344.319,60.558 344.319,40.752 351.717,40.752 351.717,38.918 "/>
<polygon fill="#FFFFFF" stroke="#FFFFFF" stroke-width="3" stroke-miterlimit="10" points="375.281,38.918 368.59,49.188 
	362.048,38.918 359.633,38.918 367.579,51.235 367.579,60.558 369.596,60.558 369.596,51.235 377.544,38.918 "/>
<rect x="386.406" y="48.913" fill="#FFFFFF" stroke="#FFFFFF" stroke-width="3" stroke-miterlimit="10" width="7.549" height="1.65"/>
<polygon fill="#FFFFFF" stroke="#FFFFFF" stroke-width="3" stroke-miterlimit="10" points="421.8,38.918 421.8,57.868 
	421.738,57.868 408.565,38.918 405.967,38.918 405.967,60.558 407.984,60.558 407.984,41.608 408.045,41.608 421.219,60.558 
	423.816,60.558 423.816,38.918 "/>
<rect x="437.48" y="38.918" fill="#FFFFFF" stroke="#FFFFFF" stroke-width="3" stroke-miterlimit="10" width="2.018" height="21.64"/>
<polygon fill="#FFFFFF" stroke="#FFFFFF" stroke-width="3" stroke-miterlimit="10" points="468.991,38.918 468.991,57.868 
	468.93,57.868 455.756,38.918 453.159,38.918 453.159,60.558 455.175,60.558 455.175,41.608 455.237,41.608 468.41,60.558 
	471.008,60.558 471.008,38.918 "/>
<polygon fill="#FFFFFF" stroke="#FFFFFF" stroke-width="3" stroke-miterlimit="10" points="484.67,38.918 484.67,60.558 
	498.393,60.558 498.393,58.724 486.688,58.724 486.688,50.288 497.202,50.288 497.202,48.454 486.688,48.454 486.688,40.752 
	497.905,40.752 497.905,38.918 "/>
</svg>