<svg id="Layer_1" data-name="Layer 1" xmlns="http://www.w3.org/2000/svg" viewBox="0 0 27.719 35.808">
  <defs>
    <style>
      .cls-1 {
        fill: #030504;
      }
    </style>
  </defs>
  <title>Pinterest_K</title>
  <path class="cls-1" d="M49.646,30.324c0,8.067-4.486,14.1-11.1,14.1a5.892,5.892,0,0,1-5.024-2.565s-1.2,4.739-1.446,5.653a21.943,21.943,0,0,1-3.713,6.73.273.273,0,0,1-.488-.118A23.059,23.059,0,0,1,27.94,46.3c.395-1.67,2.645-11.207,2.645-11.207a7.905,7.905,0,0,1-.656-3.254c0-3.048,1.767-5.324,3.966-5.324,1.87,0,2.773,1.4,2.773,3.086,0,1.881-1.2,4.694-1.815,7.3A3.184,3.184,0,0,0,38.1,40.866c3.9,0,6.521-5.005,6.521-10.935,0-4.506-3.034-7.882-8.557-7.882A9.739,9.739,0,0,0,25.936,31.9a5.931,5.931,0,0,0,1.358,4.034,1,1,0,0,1,.294,1.147c-.1.379-.324,1.289-.421,1.651a.708.708,0,0,1-1.029.514c-2.873-1.173-4.212-4.321-4.212-7.858,0-5.842,4.927-12.847,14.7-12.847C44.48,18.543,49.646,24.224,49.646,30.324Z" transform="translate(-21.927 -18.538)"/>
</svg>
