<svg id="Layer_1" data-name="Layer 1" xmlns="http://www.w3.org/2000/svg" viewBox="0 0 54 44.507">
  <defs>
    <style>
      .cls-1 {
        fill: #1a1718;
      }
    </style>
  </defs>
  <title>Scratch-resistant</title>
  <g>
    <path class="cls-1" d="M17.65,15.072H54A8.835,8.835,0,0,1,62.823,23.9V50.755A8.835,8.835,0,0,1,54,59.58H17.65a8.836,8.836,0,0,1-8.826-8.824V23.9A8.835,8.835,0,0,1,17.65,15.072ZM54,56.695a5.942,5.942,0,0,0,5.932-5.939V23.9A5.942,5.942,0,0,0,54,17.957H17.65A5.946,5.946,0,0,0,11.713,23.9V50.755a5.946,5.946,0,0,0,5.936,5.939Z" transform="translate(-8.823 -15.072)"/>
    <path class="cls-1" d="M54,22.423H17.65A1.477,1.477,0,0,0,16.17,23.9V50.755a1.477,1.477,0,0,0,1.48,1.472H54a1.474,1.474,0,0,0,1.475-1.472V23.9A1.474,1.474,0,0,0,54,22.423ZM45.534,30.71,34.169,38.987V35.644l-7.65,8.913,3.892-7.292L19.523,43.6l4.312-9.083L23.758,38.6l11.721-6.615.607,3.283,9.672-7.58L53.619,36.6Z" transform="translate(-8.823 -15.072)"/>
  </g>
</svg>
