<svg id="Layer_1" data-name="Layer 1" xmlns="http://www.w3.org/2000/svg" viewBox="0 0 54 44.507">
  <defs>
    <style>
      .cls-1 {
        fill: #1a1718;
      }
    </style>
  </defs>
  <title>Silicone</title>
  <g>
    <path class="cls-1" d="M17.486,14.728H53.833a8.835,8.835,0,0,1,8.824,8.824v26.86a8.835,8.835,0,0,1-8.824,8.824H17.486a8.837,8.837,0,0,1-8.829-8.824V23.552A8.838,8.838,0,0,1,17.486,14.728ZM53.833,56.341a5.933,5.933,0,0,0,5.932-5.929V23.552a5.942,5.942,0,0,0-5.932-5.939H17.486a5.946,5.946,0,0,0-5.939,5.939v26.86a5.937,5.937,0,0,0,5.939,5.929Z" transform="translate(-8.657 -14.728)"/>
    <g>
      <path class="cls-1" d="M16.008,50.412a1.473,1.473,0,0,0,1.478,1.472H53.833a1.473,1.473,0,0,0,1.475-1.472v-.965h-39.3Z" transform="translate(-8.657 -14.728)"/>
      <path class="cls-1" d="M55.308,23.552a1.473,1.473,0,0,0-1.475-1.472H17.486a1.473,1.473,0,0,0-1.478,1.472v.965h39.3Z" transform="translate(-8.657 -14.728)"/>
      <rect class="cls-1" x="7.351" y="12.952" width="39.3" height="18.603"/>
    </g>
  </g>
</svg>
