<svg id="Layer_1" data-name="Layer 1" xmlns="http://www.w3.org/2000/svg" viewBox="0 0 54 44.518">
  <defs>
    <style>
      .cls-1 {
        fill: #1a1718;
      }
    </style>
  </defs>
  <title>Triple-layer</title>
  <g>
    <g>
      <path class="cls-1" d="M30.781,39.011a14.679,14.679,0,0,0-2.477-.239,20.644,20.644,0,0,0-4.29.438,21.467,21.467,0,0,1,4.265-.418A16.067,16.067,0,0,1,30.781,39.011Z" transform="translate(-9.657 -13.573)"/>
      <path class="cls-1" d="M56.628,34.813V28.3c-5.2.318-30.413-4.855-37.981-2.726a80.112,80.112,0,0,1,31.518,7.023A28.283,28.283,0,0,0,56.628,34.813Z" transform="translate(-9.657 -13.573)"/>
      <path class="cls-1" d="M16.006,40.861c2.531-3.383,7.046-4.875,12.3-4.875,10.5,0,18.409,9.8,28.324,10.485l.1-8.834c-6.554-.448-16.156-9.351-40.727-9.351Z" transform="translate(-9.657 -13.573)"/>
      <path class="cls-1" d="M35.564,40.373a21.649,21.649,0,0,0-4.783-1.362,16.067,16.067,0,0,0-2.5-.219,21.467,21.467,0,0,0-4.265.418c-3.984.806-6.553,2.8-7.548,5.69a8.5,8.5,0,0,0-.388,1.612H47.34C43.385,44.562,39.607,42.015,35.564,40.373Z" transform="translate(-9.657 -13.573)"/>
    </g>
    <path class="cls-1" d="M18.483,13.573h36.35A8.835,8.835,0,0,1,63.657,22.4V49.257a8.837,8.837,0,0,1-8.824,8.834H18.483a8.838,8.838,0,0,1-8.826-8.834V22.4A8.836,8.836,0,0,1,18.483,13.573ZM54.833,55.2a5.942,5.942,0,0,0,5.932-5.939V22.4a5.933,5.933,0,0,0-5.932-5.929H18.483A5.937,5.937,0,0,0,12.547,22.4V49.257A5.946,5.946,0,0,0,18.483,55.2Z" transform="translate(-9.657 -13.573)"/>
  </g>
</svg>
