<svg id="Layer_1" data-name="Layer 1" xmlns="http://www.w3.org/2000/svg" viewBox="0 0 30.495 25.239">
  <defs>
    <style>
      .cls-1 {
        fill: #030504;
      }
    </style>
  </defs>
  <title>Twitter_K</title>
  <path class="cls-1" d="M39.828,23.636a6.38,6.38,0,0,0-4.3,6.415l.066,1.091-1.1-.133a17.917,17.917,0,0,1-10.489-5.168l-1.455-1.448-.372,1.069a6.439,6.439,0,0,0,1.366,6.6c.882.935.682,1.069-.837.513a2.57,2.57,0,0,0-1.036-.244,7.994,7.994,0,0,0,.793,2.986,7.124,7.124,0,0,0,3.019,2.852l1.081.513-1.28.019c-1.233,0-1.278.023-1.145.492a6.662,6.662,0,0,0,4.12,3.654l1.366.468-1.19.714a12.335,12.335,0,0,1-5.906,1.647,6.5,6.5,0,0,0-1.808.178,16.886,16.886,0,0,0,4.252,1.961A18.6,18.6,0,0,0,39.432,46.16a19.363,19.363,0,0,0,7.338-8.646,22.965,22.965,0,0,0,1.5-6.682c0-1.025.066-1.159,1.3-2.383a14.819,14.819,0,0,0,1.543-1.715c.222-.424.2-.424-.925-.045-1.872.669-2.137.58-1.211-.423a6.5,6.5,0,0,0,1.5-2.383c0-.066-.331.045-.7.244a12.087,12.087,0,0,1-1.94.757l-1.19.379-1.079-.738a8.988,8.988,0,0,0-1.872-.98A7.525,7.525,0,0,0,39.828,23.636Z" transform="translate(-20.725 -23.338)"/>
</svg>
