<svg id="Layer_1" data-name="Layer 1" xmlns="http://www.w3.org/2000/svg" viewBox="0 0 108 72">
  <defs>
    <style>
      .cls-1 {
        fill: #262626;
      }

      .cls-2 {
        fill: #fff;
      }

      .cls-3 {
        fill: #edeeef;
      }
    </style>
  </defs>
  <title>WomensOn</title>
  <polygon class="cls-1" points="108 72 0 72 15.767 36.877 0 0 108 0 108 72"/>
  <g>
    <path class="cls-2" d="M75.117,18.036c-.141-.3-.291-.587-.441-.879-.048-.086-.1-.172-.147-.259,0,4.483-6.221,11.256-17.887,12.32-.224.02-.5.038-.8.055l-.431.028.028.529c0,.055,0,.114.011.187a11.515,11.515,0,0,0,1.262,4.334,5.632,5.632,0,0,0,3.443,2.6c.126.036.235.063.333.084.121.028.245.052.371.075l.665.119-.172-.658a6.329,6.329,0,0,1,6.362-7.9c2.558,0,4.143,1.167,4.143,3.046,0,1.921-1.888,4.427-6.045,5.388-.516.127-1.031.227-1.528.3l-.7.1.41.576a6.055,6.055,0,0,0,2.455,2.013l.038-.014a3.257,3.257,0,0,1,.389-.164,16.336,16.336,0,0,0,8.24-21.879"/>
    <path class="cls-2" d="M70.061,31.367a2.377,2.377,0,0,0-2.635-2.427c-3,0-4.617,2.784-4.617,5.4a6.291,6.291,0,0,0,.5,2.506l.132.309.334-.052c3.883-.6,6.282-3.45,6.282-5.74"/>
    <path class="cls-2" d="M56.8,28.867h.005A20.038,20.038,0,0,0,68.322,23.86c2.423-2.255,3.869-5,3.869-7.357a3.3,3.3,0,0,0-2.722-3.584l.013-.033-.594-.041c-2.136-.154-5.5.53-9.4,4.679a17.593,17.593,0,0,0-4.08,10.99L55.4,29l.479-.041c.31-.023.624-.055.919-.088"/>
    <path class="cls-2" d="M61.841,37.783l-.115-.223-.25-.01c-4.09-.2-6.622-2.178-7.552-3.819a11.45,11.45,0,0,1-1.352-4.03l-.05-.36-.363-.012a20.156,20.156,0,0,1-7.994-1.837A16.334,16.334,0,0,0,65.507,40.438c-.22-.042-.45-.092-.707-.167a4.853,4.853,0,0,1-2.959-2.489"/>
    <path class="cls-2" d="M52.009,29.039l.484.024-.026-.481a14.79,14.79,0,0,1,2.652-9.047l.025-.04c.015-.021.026-.044.044-.071a13.186,13.186,0,0,1,1.475-1.793l.184-.193a15.741,15.741,0,0,1,1.4-1.262,15.332,15.332,0,0,1,5.241-2.928,17.2,17.2,0,0,1,6.066-.644,8.49,8.49,0,0,1,1.844.347,16.345,16.345,0,0,0-25.589,4.475,11.916,11.916,0,0,1,1.357-.277,7.237,7.237,0,0,1,.951-.063,4.566,4.566,0,0,1,2.413.591,13.118,13.118,0,0,0-4.792,1.178,5.636,5.636,0,0,0-.745.4,16.3,16.3,0,0,0-1.024,5.7c0,.406.02.807.05,1.2,1.514,1.634,4.3,2.678,7.992,2.881"/>
  </g>
  <g>
    <path class="cls-3" d="M22.171,52.548a2.3,2.3,0,0,1-.637,1.707,2.334,2.334,0,0,1-1.723.634,4.712,4.712,0,0,1-1.15-.173,4.09,4.09,0,0,0-1-.161q-.032-.917-.129-1.834c0-.058.054-.087.162-.087a.129.129,0,0,1,.14.087,3.029,3.029,0,0,0,.746,1.413,1.83,1.83,0,0,0,1.273.41,1.325,1.325,0,0,0,1.01-.378,1.477,1.477,0,0,0,.358-1.058,1.243,1.243,0,0,0-.313-.812,5.451,5.451,0,0,0-1.332-.968,5.523,5.523,0,0,1-1.532-1.144,1.665,1.665,0,0,1-.361-1.041,1.951,1.951,0,0,1,.651-1.485,2.324,2.324,0,0,1,1.65-.607,4.315,4.315,0,0,1,.869.1,4.109,4.109,0,0,0,.794.092q.064.949.173,1.672c0,.058-.047.087-.14.087s-.157-.029-.167-.087a2.316,2.316,0,0,0-.54-1.165,1.367,1.367,0,0,0-1-.355,1.23,1.23,0,0,0-1.322,1.315,1.107,1.107,0,0,0,.3.731,5.642,5.642,0,0,0,1.3.93A5.939,5.939,0,0,1,21.8,51.528,1.6,1.6,0,0,1,22.171,52.548Z"/>
    <path class="cls-3" d="M31.593,54.565c0,.1-.029.15-.086.15q-.366,0-.868-.032-.475-.032-.8-.032t-.76.032q-.453.032-.814.032c-.058,0-.086-.05-.086-.15s.031-.139.092-.146a2.637,2.637,0,0,0,.674-.148.491.491,0,0,0,.283-.249,1.523,1.523,0,0,0,.062-.516V51.1H25.169v2.4a1.511,1.511,0,0,0,.062.516.491.491,0,0,0,.283.249,2.653,2.653,0,0,0,.68.148c.057.007.086.056.086.146s-.029.15-.086.15q-.362,0-.814-.032-.431-.032-.761-.032t-.809.032q-.5.032-.863.032c-.058,0-.086-.05-.086-.15s.028-.139.086-.146a2.072,2.072,0,0,0,.887-.243.78.78,0,0,0,.235-.67V48.429a1.083,1.083,0,0,0-.095-.532.629.629,0,0,0-.332-.243,3.2,3.2,0,0,0-.7-.143c-.058,0-.086-.05-.086-.148s.028-.148.086-.148q.362,0,.863.032.48.032.809.032t.761-.032q.453-.032.814-.032c.057,0,.086.05.086.148s-.029.148-.086.148a2.8,2.8,0,0,0-.637.13.577.577,0,0,0-.3.218,1.228,1.228,0,0,0-.086.57v2.329h4.115V48.429a1.551,1.551,0,0,0-.062-.519.483.483,0,0,0-.281-.251,2.581,2.581,0,0,0-.682-.148c-.058,0-.086-.05-.086-.148s.029-.148.086-.148q.361,0,.814.032.431.032.76.032t.8-.032q.5-.032.868-.032c.058,0,.086.05.086.148s-.029.148-.086.148a3.2,3.2,0,0,0-.7.143.633.633,0,0,0-.332.243,1.084,1.084,0,0,0-.094.532v5.078a.78.78,0,0,0,.235.67,2.069,2.069,0,0,0,.887.243C31.564,54.427,31.593,54.476,31.593,54.565Z"/>
    <path class="cls-3" d="M40.33,51.006a3.76,3.76,0,0,1-1.1,2.8,4.341,4.341,0,0,1-5.747,0,3.764,3.764,0,0,1-1.1-2.8,3.973,3.973,0,1,1,7.944,0Zm-1.187,0a4.171,4.171,0,0,0-.769-2.6,2.526,2.526,0,0,0-4.04,0,4.19,4.19,0,0,0-.763,2.6,4.062,4.062,0,0,0,.758,2.559,2.583,2.583,0,0,0,4.05,0A4.043,4.043,0,0,0,39.144,51.006Z"/>
    <path class="cls-3" d="M47.239,49.414a2.043,2.043,0,0,1-.729,1.594,2.632,2.632,0,0,1-1.807.645q-.646,0-1.271-.054v1.909a1.061,1.061,0,0,0,.094.528.634.634,0,0,0,.329.24,3.064,3.064,0,0,0,.688.144c.058.007.086.056.086.146s-.029.15-.086.15q-.361,0-.857-.032-.475-.032-.8-.032t-.809.032q-.5.032-.863.032c-.058,0-.086-.05-.086-.15s.028-.139.086-.146a2.072,2.072,0,0,0,.887-.243.78.78,0,0,0,.235-.67V48.428a1.081,1.081,0,0,0-.095-.531.629.629,0,0,0-.332-.243,3.2,3.2,0,0,0-.7-.143c-.058,0-.086-.05-.086-.148s.028-.148.086-.148q.362,0,.863.032.48.032.808.032t.8-.032q.5-.032.856-.032a3.123,3.123,0,0,1,2.012.561A1.994,1.994,0,0,1,47.239,49.414Zm-1.192,0a1.992,1.992,0,0,0-.423-1.352,1.415,1.415,0,0,0-1.125-.487,2.479,2.479,0,0,0-.65.065.539.539,0,0,0-.324.211,1.185,1.185,0,0,0-.094.578v2.483a.32.32,0,0,0,.146.311,1.589,1.589,0,0,0,.631.078,1.787,1.787,0,0,0,1.359-.5A1.924,1.924,0,0,0,46.047,49.414Z"/>
    <path class="cls-3" d="M61.688,47.341a.186.186,0,0,1-.041.117.113.113,0,0,1-.089.053,1.132,1.132,0,0,0-.652.258,2.406,2.406,0,0,0-.523.837l-2.751,6.2c-.018.057-.068.086-.15.086a.17.17,0,0,1-.151-.086l-1.544-3.22L54.013,54.8a.17.17,0,0,1-.151.086.153.153,0,0,1-.156-.086l-2.7-6.2a2.186,2.186,0,0,0-.534-.811,1.458,1.458,0,0,0-.782-.284.106.106,0,0,1-.081-.045.158.158,0,0,1-.038-.1c0-.1.029-.148.086-.148q.361,0,.755.032.367.032.691.032t.777-.032q.469-.032.831-.032c.058,0,.086.05.086.148s-.018.148-.054.148a1.05,1.05,0,0,0-.569.185.492.492,0,0,0-.208.411.841.841,0,0,0,.086.325l2.2,5.056,1.3-2.407-1.183-2.475a3.224,3.224,0,0,0-.523-.859,1.048,1.048,0,0,0-.62-.235.1.1,0,0,1-.073-.045.164.164,0,0,1-.035-.1c0-.1.025-.148.076-.148a6.276,6.276,0,0,1,.663.032,5.65,5.65,0,0,0,.62.032c.216,0,.444-.011.686-.032s.492-.032.733-.032c.057,0,.086.05.086.148s-.019.148-.054.148c-.482.032-.723.17-.723.412a1.334,1.334,0,0,0,.167.5l.781,1.586.777-1.451a1.175,1.175,0,0,0,.162-.521q0-.5-.723-.531c-.043,0-.064-.05-.064-.148a.176.176,0,0,1,.032-.1c.021-.032.043-.048.064-.048q.259,0,.637.032c.24.021.438.032.593.032.111,0,.275-.009.491-.026.273-.025.5-.038.685-.038.043,0,.064.043.064.127,0,.113-.039.17-.118.17a1.352,1.352,0,0,0-.677.233,2.977,2.977,0,0,0-.64.861L56.4,50.522l1.4,2.856,2.073-4.816a1.318,1.318,0,0,0,.107-.488q0-.53-.723-.563c-.043,0-.064-.05-.064-.148s.032-.148.1-.148q.264,0,.626.032.334.032.561.032a5.433,5.433,0,0,0,.55-.032q.324-.032.582-.032C61.663,47.214,61.688,47.257,61.688,47.341Z"/>
    <path class="cls-3" d="M69.691,51.006a3.756,3.756,0,0,1-1.1,2.8,4.341,4.341,0,0,1-5.746,0,3.765,3.765,0,0,1-1.1-2.8,3.973,3.973,0,1,1,7.944,0Zm-1.187,0a4.168,4.168,0,0,0-.769-2.6,2.526,2.526,0,0,0-4.039,0,4.184,4.184,0,0,0-.764,2.6,4.065,4.065,0,0,0,.758,2.559,2.584,2.584,0,0,0,4.051,0A4.043,4.043,0,0,0,68.5,51.006Z"/>
    <path class="cls-3" d="M80.44,54.565c0,.1-.028.15-.086.15q-.362,0-.879-.032-.5-.032-.823-.032t-.8.032q-.5.032-.857.032c-.064,0-.1-.05-.1-.15s.028-.139.086-.146a2.1,2.1,0,0,0,.86-.232.669.669,0,0,0,.229-.593v-.087l-.227-5.226-2.6,6.521a.144.144,0,0,1-.151.086c-.083,0-.131-.029-.146-.086L72.5,48.541l-.389,4.972a1.482,1.482,0,0,0-.011.162.564.564,0,0,0,.248.518,2.245,2.245,0,0,0,.885.228c.05.007.075.056.075.147s-.032.148-.1.148q-.281,0-.766-.032-.453-.032-.7-.032c-.179,0-.422.011-.731.032s-.528.032-.69.032c-.05,0-.075-.05-.075-.15s.032-.139.1-.146a2.355,2.355,0,0,0,.941-.254.814.814,0,0,0,.3-.659l.562-5.079c0-.064,0-.122,0-.172a.554.554,0,0,0-.248-.508,2.38,2.38,0,0,0-.9-.237c-.051,0-.075-.05-.075-.148a.176.176,0,0,1,.032-.1c.021-.032.043-.048.064-.048.133,0,.322.011.566.032.208.021.361.032.458.032.126,0,.306-.011.54-.032s.428-.032.561-.032l2.313,5.99,2.39-5.99c.143,0,.331.011.563.032.211.021.377.032.5.032q.226,0,.545-.032t.566-.032c.064,0,.1.05.1.148s-.029.148-.086.148a2.089,2.089,0,0,0-.86.232.668.668,0,0,0-.229.594v.091l.248,5.079a1.1,1.1,0,0,0,.116.529.672.672,0,0,0,.342.24,3.24,3.24,0,0,0,.7.144C80.412,54.427,80.44,54.476,80.44,54.565Z"/>
    <path class="cls-3" d="M87.565,52.937a15.27,15.27,0,0,0-.712,1.779q-2.035-.064-2.9-.064t-2.891.064c-.058,0-.087-.05-.087-.15s.029-.139.087-.146a3.107,3.107,0,0,0,.685-.144.642.642,0,0,0,.332-.24,1.072,1.072,0,0,0,.094-.529V48.428a1.117,1.117,0,0,0-.089-.525.616.616,0,0,0-.326-.246,3,3,0,0,0-.7-.146c-.058,0-.087-.05-.087-.148s.029-.148.087-.148q1.359.064,2.782.064t2.789-.064A12.285,12.285,0,0,0,87,48.864c0,.072-.063.108-.189.108A.1.1,0,0,1,86.7,48.9a1.643,1.643,0,0,0-1.7-1.272H83.9a.563.563,0,0,0-.626.647v2.4h1.359a.886.886,0,0,0,.734-.248,1.863,1.863,0,0,0,.269-.879c0-.058.05-.086.148-.086s.148.028.148.086q0,.27-.032.68c-.021.263-.033.477-.033.642s.012.385.033.647q.032.42.032.69c0,.058-.05.086-.148.086s-.148-.028-.148-.086a1.979,1.979,0,0,0-.285-.923.855.855,0,0,0-.718-.264H83.277V53.67a.558.558,0,0,0,.626.637h1.176a2.289,2.289,0,0,0,1.272-.418,2.568,2.568,0,0,0,.928-1.044.09.09,0,0,1,.092-.049.233.233,0,0,1,.135.041A.118.118,0,0,1,87.565,52.937Z"/>
    <path class="cls-3" d="M96.938,47.365c0,.09-.029.139-.087.146a2.18,2.18,0,0,0-.925.248.778.778,0,0,0-.262.665l-.118,6.357c0,.071-.044.107-.13.107a.324.324,0,0,1-.173-.086L89.684,48.52l-.075,4.988a.6.6,0,0,0,0,.081.64.64,0,0,0,.259.58,2.35,2.35,0,0,0,.933.251c.058.007.086.056.086.146s-.028.15-.086.15c-.187,0-.444-.011-.771-.032q-.458-.032-.706-.032-.27,0-.729.032c-.295.021-.522.032-.685.032-.058,0-.086-.05-.086-.15s.032-.139.1-.146a2.247,2.247,0,0,0,.917-.251.788.788,0,0,0,.264-.662l.189-5.079V48.38a.686.686,0,0,0-.254-.61,2.334,2.334,0,0,0-.943-.259c-.051,0-.076-.05-.076-.148s.029-.148.087-.148c.126,0,.3.011.528.032.2.021.353.032.453.032a3.833,3.833,0,0,0,.453-.032A3.984,3.984,0,0,1,90,47.214l5.193,5.809v-4.6a.738.738,0,0,0-.262-.646,2.226,2.226,0,0,0-.968-.268c-.058-.007-.086-.056-.086-.146s.028-.151.086-.151q.292,0,.776.032.454.032.7.032.27,0,.729-.032c.295-.021.522-.032.685-.032C96.909,47.214,96.938,47.265,96.938,47.365Z"/>
    <path class="cls-3" d="M98.906,48.142a2.111,2.111,0,0,1-.2.931,2.249,2.249,0,0,1-.612.755,1.412,1.412,0,0,1-.522.337.142.142,0,0,1-.119-.072.243.243,0,0,1-.049-.127l.017-.043a1.619,1.619,0,0,0,.885-1.359c0-.165-.029-.248-.087-.248l-.064.016a.283.283,0,0,1-.107.027.55.55,0,0,1-.424-.187.643.643,0,0,1-.17-.45.625.625,0,0,1,.626-.625.729.729,0,0,1,.6.3A1.174,1.174,0,0,1,98.906,48.142Z"/>
    <path class="cls-3" d="M104.277,52.548a2.3,2.3,0,0,1-.637,1.707,2.334,2.334,0,0,1-1.723.634,4.708,4.708,0,0,1-1.149-.173,4.1,4.1,0,0,0-1-.161q-.034-.917-.13-1.834c0-.058.054-.087.162-.087a.128.128,0,0,1,.14.087,3.038,3.038,0,0,0,.745,1.413,1.833,1.833,0,0,0,1.273.41,1.323,1.323,0,0,0,1.01-.378,1.474,1.474,0,0,0,.358-1.058,1.24,1.24,0,0,0-.312-.812,5.441,5.441,0,0,0-1.332-.968,5.511,5.511,0,0,1-1.531-1.144,1.662,1.662,0,0,1-.361-1.041,1.953,1.953,0,0,1,.65-1.485,2.324,2.324,0,0,1,1.649-.607,4.328,4.328,0,0,1,.87.1,4.1,4.1,0,0,0,.793.092q.066.949.173,1.672c0,.058-.046.087-.14.087s-.156-.029-.167-.087a2.32,2.32,0,0,0-.541-1.165,1.366,1.366,0,0,0-1-.355,1.229,1.229,0,0,0-1.322,1.315,1.108,1.108,0,0,0,.3.731,5.624,5.624,0,0,0,1.3.93,5.935,5.935,0,0,1,1.553,1.154A1.605,1.605,0,0,1,104.277,52.548Z"/>
  </g>
</svg>
